{"glyphs":{"0":{"ha":806,"x_min":56,"x_max":750,"o":"m 404 889 q 542 863 479 889 q 651 783 606 838 q 724 642 697 728 q 750 438 750 557 q 722 233 750 318 q 645 93 693 149 q 535 12 597 38 q 403 -14 472 -14 q 265 12 328 -14 q 155 92 201 38 q 82 233 108 147 q 56 438 56 318 q 84 637 56 551 q 160 778 113 722 q 272 861 208 833 q 404 889 335 889 m 204 438 q 221 267 204 333 q 265 163 238 201 q 329 110 293 125 q 404 96 365 96 q 479 112 443 96 q 542 167 515 128 q 585 272 569 206 q 601 438 601 338 q 585 608 601 542 q 541 712 568 674 q 478 765 514 750 q 403 779 442 779 q 328 763 364 779 q 265 708 292 747 q 221 603 238 669 q 204 438 204 538 z "},"1":{"ha":526,"x_min":72,"x_max":404,"o":"m 294 875 l 404 875 l 404 0 l 264 0 l 264 733 l 106 660 l 72 772 l 294 875 z "},"2":{"ha":674,"x_min":58,"x_max":614,"o":"m 310 775 q 225 759 265 775 q 139 707 185 743 l 76 800 q 195 869 136 849 q 318 889 254 889 q 440 869 388 889 q 528 814 493 849 q 580 732 563 779 q 597 629 597 685 q 522 426 597 531 q 317 196 447 322 l 233 115 l 614 115 l 614 0 l 85 0 l 58 99 l 178 218 q 303 349 251 292 q 388 454 356 407 q 436 542 421 501 q 451 622 451 582 q 415 733 451 690 q 310 775 379 775 z "},"3":{"ha":685,"x_min":54,"x_max":601,"o":"m 72 824 q 183 874 125 858 q 300 889 240 889 q 410 872 360 889 q 496 824 460 854 q 551 753 532 794 q 571 663 571 711 q 528 528 571 581 q 425 451 485 475 q 551 378 501 435 q 601 243 601 322 q 574 125 601 174 q 503 45 547 76 q 401 0 458 14 q 282 -14 343 -14 q 159 -2 219 -14 q 54 33 99 10 l 86 139 q 173 110 133 121 q 272 99 213 99 q 340 107 307 99 q 397 133 372 115 q 438 179 422 151 q 453 246 453 207 q 403 353 453 318 q 269 389 353 389 l 167 389 l 167 497 l 244 497 q 374 534 324 497 q 425 646 425 571 q 384 741 425 704 q 282 778 343 778 q 203 766 240 778 q 117 726 165 754 l 72 824 z "},"4":{"ha":754,"x_min":28,"x_max":710,"o":"m 431 875 l 575 875 l 575 331 l 710 331 l 710 215 l 575 215 l 575 0 l 440 0 l 440 215 l 28 215 l 28 306 l 431 875 m 374 600 l 182 331 l 440 331 l 440 590 l 449 731 l 446 731 l 374 600 z "},"5":{"ha":724,"x_min":83,"x_max":635,"o":"m 600 878 l 600 763 l 283 760 l 258 547 q 335 553 290 553 q 442 538 389 553 q 538 492 496 524 q 608 409 581 460 q 635 286 635 358 q 613 169 635 224 q 547 74 590 115 q 438 10 503 33 q 285 -14 372 -14 q 176 -1 229 -14 q 83 31 124 11 l 115 140 q 190 113 150 124 q 276 101 231 101 q 431 147 376 101 q 486 279 486 193 q 427 408 486 365 q 281 450 368 450 q 205 445 243 450 q 129 433 167 440 l 172 875 l 600 878 z "},"6":{"ha":738,"x_min":58,"x_max":689,"o":"m 443 889 q 533 882 492 889 q 614 858 575 875 l 581 746 q 519 768 553 760 q 447 776 486 776 q 346 756 389 776 q 273 697 303 735 q 226 608 243 660 q 207 493 210 556 q 297 558 244 538 q 408 578 350 578 q 519 558 468 578 q 608 503 571 539 q 667 414 646 467 q 689 293 689 361 q 666 167 689 224 q 602 71 643 111 q 505 8 561 31 q 381 -14 449 -14 q 263 8 321 -14 q 160 81 206 31 q 86 210 114 131 q 58 403 58 289 q 91 628 58 536 q 177 778 124 721 q 300 863 231 836 q 443 889 369 889 m 207 318 q 219 230 207 271 q 255 159 232 189 q 310 112 278 129 q 383 94 343 94 q 451 110 421 94 q 501 151 481 125 q 534 212 522 176 q 546 289 546 247 q 500 424 546 381 q 378 467 454 467 q 283 442 322 467 q 224 383 244 417 q 210 352 214 368 q 207 318 207 336 z "},"7":{"ha":688,"x_min":75,"x_max":626,"o":"m 626 875 l 626 778 l 251 -28 l 129 26 l 486 763 l 75 763 l 75 875 l 626 875 z "},"8":{"ha":708,"x_min":49,"x_max":658,"o":"m 358 889 q 480 870 428 889 q 567 821 532 851 q 619 751 601 790 q 636 668 636 711 q 595 549 636 603 q 474 463 554 494 q 610 376 563 428 q 658 240 658 324 q 635 132 658 179 q 572 53 613 85 q 476 3 532 21 q 354 -14 421 -14 q 233 3 289 -14 q 135 52 176 21 q 72 128 94 83 q 49 228 49 172 q 94 365 49 314 q 226 451 139 415 q 118 535 158 483 q 78 653 78 586 q 95 741 78 699 q 148 817 113 783 q 235 869 183 850 q 358 889 288 889 m 214 661 q 226 608 214 632 q 258 567 238 585 q 306 535 279 549 q 361 511 332 521 q 459 570 419 533 q 499 661 499 607 q 458 751 499 718 q 356 783 417 783 q 250 747 286 783 q 214 661 214 710 m 344 399 q 235 338 278 376 q 193 232 193 300 q 234 135 193 175 q 357 94 275 94 q 473 136 431 94 q 515 233 515 178 q 467 338 515 299 q 344 399 418 378 z "},"9":{"ha":728,"x_min":53,"x_max":669,"o":"m 294 -14 q 183 -3 229 -14 q 104 24 136 7 l 136 133 q 199 109 165 119 q 286 99 233 99 q 459 171 403 99 q 521 378 515 243 q 439 321 489 342 q 332 300 389 300 q 220 319 271 300 q 132 374 169 338 q 74 464 94 411 q 53 585 53 517 q 75 709 53 653 q 138 806 97 765 q 236 867 179 846 q 363 889 293 889 q 478 866 422 889 q 576 793 533 843 q 644 664 618 743 q 669 474 669 585 q 641 249 669 342 q 562 99 613 157 q 442 13 511 40 q 294 -14 374 -14 m 521 551 q 509 639 521 597 q 475 712 497 681 q 422 762 453 743 q 353 781 392 781 q 237 731 278 781 q 196 594 196 681 q 241 457 196 503 q 361 411 286 411 q 449 433 411 411 q 506 489 486 456 q 521 551 521 515 z "},"\u0000":{"ha":0,"x_min":0,"x_max":0,"o":""},"\r":{"ha":1425,"x_min":0,"x_max":0,"o":""}," ":{"ha":314,"x_min":0,"x_max":0,"o":""},"!":{"ha":350,"x_min":83,"x_max":265,"o":"m 100 986 l 251 986 l 232 297 l 117 297 l 100 986 m 83 81 q 111 147 83 121 q 175 174 139 174 q 239 147 213 174 q 265 81 265 121 q 239 12 265 38 q 175 -14 213 -14 q 111 12 139 -14 q 83 81 83 38 z "},"\"":{"ha":469,"x_min":67,"x_max":401,"o":"m 272 896 l 401 896 l 379 588 l 293 588 l 272 896 m 67 896 l 196 896 l 175 588 l 89 588 l 67 896 z "},"#":{"ha":860,"x_min":49,"x_max":814,"o":"m 360 644 l 321 399 l 517 399 l 556 644 l 360 644 m 618 1028 l 718 1028 l 672 746 l 814 746 l 814 644 l 657 644 l 617 399 l 767 399 l 767 297 l 603 297 l 554 0 l 453 0 l 500 297 l 306 297 l 257 0 l 157 0 l 203 297 l 49 297 l 49 399 l 221 399 l 260 644 l 97 644 l 97 746 l 278 746 l 322 1028 l 422 1028 l 376 744 l 574 744 l 618 1028 z "},"%":{"ha":1132,"x_min":40,"x_max":1089,"o":"m 221 0 l 828 1042 l 925 1042 l 318 0 l 221 0 m 1089 249 q 1074 148 1089 196 q 1031 64 1060 100 q 958 7 1001 28 q 857 -14 914 -14 q 758 7 801 -14 q 686 64 715 28 q 642 148 657 100 q 628 249 628 196 q 644 349 628 301 q 690 431 660 396 q 763 488 719 467 q 861 508 806 508 q 958 488 915 508 q 1029 431 1000 467 q 1074 349 1058 396 q 1089 249 1089 301 m 975 249 q 969 314 975 282 q 951 371 964 346 q 915 410 938 396 q 861 425 893 425 q 807 410 829 425 q 770 372 785 396 q 749 316 756 349 q 742 249 742 283 q 748 180 742 213 q 768 123 754 147 q 803 84 782 99 q 857 69 825 69 q 947 119 919 69 q 975 249 975 169 m 501 782 q 486 681 501 729 q 442 597 471 633 q 369 540 413 561 q 269 519 326 519 q 171 540 214 519 q 99 597 128 561 q 55 681 69 633 q 40 782 40 729 q 56 882 40 835 q 102 965 72 929 q 175 1021 132 1000 q 274 1042 218 1042 q 370 1021 328 1042 q 442 965 413 1000 q 486 882 471 929 q 501 782 501 835 m 388 782 q 382 847 388 815 q 363 902 376 878 q 328 941 350 926 q 274 956 306 956 q 219 942 242 956 q 183 903 197 928 q 161 848 168 879 q 154 782 154 817 q 160 713 154 746 q 181 656 167 681 q 216 617 194 632 q 269 603 238 603 q 359 653 331 603 q 388 782 388 703 z "},"&":{"ha":929,"x_min":42,"x_max":929,"o":"m 181 263 q 235 138 181 179 q 381 96 289 96 q 497 120 443 96 q 581 182 550 144 l 319 447 q 222 375 263 419 q 181 263 181 331 m 42 258 q 99 421 42 356 q 253 528 157 486 q 192 616 218 564 q 165 726 165 668 q 183 812 165 774 q 234 876 201 850 q 310 917 267 903 q 406 931 354 931 q 499 916 456 931 q 572 874 542 901 q 620 810 603 847 q 638 731 638 774 q 599 608 638 657 q 501 531 560 558 l 435 607 q 487 654 467 624 q 507 725 507 685 q 478 799 507 769 q 403 828 449 828 q 326 801 353 828 q 299 728 299 774 q 331 623 299 671 q 424 513 363 575 l 653 279 q 694 361 674 314 q 729 450 714 408 l 842 406 q 792 288 819 343 q 738 194 764 233 l 929 0 l 757 0 l 657 103 q 544 23 618 58 q 364 -12 471 -12 q 231 7 290 -12 q 130 62 172 26 q 65 147 88 97 q 42 258 42 197 z "},"'":{"ha":264,"x_min":67,"x_max":196,"o":"m 67 896 l 196 896 l 175 588 l 89 588 l 67 896 z "},"(":{"ha":421,"x_min":65,"x_max":369,"o":"m 289 -212 q 207 -92 247 -156 q 135 47 167 -28 q 85 205 104 121 q 65 388 65 289 q 85 572 65 485 q 136 734 104 658 q 209 873 168 810 q 292 986 250 936 l 369 935 q 247 685 294 821 q 200 388 200 550 q 211 235 200 307 q 244 96 222 163 q 298 -35 267 29 q 369 -165 329 -100 l 289 -212 z "},")":{"ha":421,"x_min":51,"x_max":356,"o":"m 131 986 q 215 867 174 931 q 287 728 256 803 q 337 569 318 654 q 356 386 356 483 q 336 202 356 289 q 285 40 317 115 q 212 -98 253 -35 q 129 -212 171 -161 l 51 -160 q 174 91 126 -42 q 221 386 221 224 q 209 540 221 467 q 175 681 197 613 q 122 813 153 749 q 51 940 90 876 l 131 986 z "},"*":{"ha":489,"x_min":19,"x_max":483,"o":"m 79 571 l 135 646 l 215 717 l 108 728 l 19 756 l 47 840 l 135 815 l 233 761 l 204 865 l 204 956 l 299 956 l 299 865 l 272 761 l 368 814 l 456 840 l 483 756 l 394 726 l 288 717 l 368 646 l 422 571 l 347 515 l 294 592 l 251 690 l 208 590 l 153 515 l 79 571 z "},"+":{"ha":776,"x_min":51,"x_max":725,"o":"m 725 472 l 725 374 l 438 374 l 438 86 l 339 86 l 339 374 l 51 374 l 51 472 l 339 472 l 339 760 l 438 760 l 438 472 l 725 472 z "},",":{"ha":308,"x_min":58,"x_max":267,"o":"m 143 -14 q 83 21 104 -7 q 63 85 63 49 q 88 150 63 121 q 158 179 113 179 q 196 173 176 179 q 231 151 215 167 q 256 107 246 135 q 267 36 267 79 q 219 -114 267 -47 q 103 -218 172 -181 l 58 -157 q 127 -101 97 -136 q 167 -18 157 -67 l 143 -14 z "},"-":{"ha":389,"x_min":42,"x_max":347,"o":"m 347 465 l 347 346 l 42 346 l 42 465 l 347 465 z "},".":{"ha":303,"x_min":72,"x_max":257,"o":"m 72 83 q 100 151 72 124 q 165 178 128 178 q 230 151 203 178 q 257 83 257 124 q 230 13 257 39 q 165 -14 203 -14 q 100 13 128 -14 q 72 83 72 39 z "},"/":{"ha":517,"x_min":-1,"x_max":521,"o":"m -1 -151 l 407 1042 l 521 1042 l 113 -151 l -1 -151 z "},":":{"ha":319,"x_min":67,"x_max":253,"o":"m 67 82 q 94 150 67 122 q 161 178 122 178 q 226 150 199 178 q 253 82 253 122 q 226 12 253 38 q 161 -14 199 -14 q 94 12 122 -14 q 67 82 67 38 m 67 503 q 94 570 67 543 q 161 597 122 597 q 226 570 199 597 q 253 503 253 543 q 226 433 253 458 q 161 407 199 407 q 94 433 122 407 q 67 503 67 458 z "},";":{"ha":315,"x_min":58,"x_max":267,"o":"m 69 503 q 97 570 69 543 q 163 597 125 597 q 227 570 200 597 q 254 503 254 543 q 227 433 254 458 q 163 407 200 407 q 97 433 125 407 q 69 503 69 458 m 143 -14 q 83 21 104 -7 q 63 85 63 49 q 88 150 63 121 q 158 179 113 179 q 196 173 176 179 q 231 151 215 167 q 256 107 246 135 q 267 36 267 79 q 219 -114 267 -47 q 103 -218 172 -181 l 58 -157 q 127 -101 97 -136 q 167 -18 157 -67 l 143 -14 z "},"<":{"ha":682,"x_min":88,"x_max":593,"o":"m 88 308 l 88 396 l 593 685 l 593 571 l 196 353 l 593 135 l 593 21 l 88 308 z "},"=":{"ha":636,"x_min":51,"x_max":583,"o":"m 51 340 l 51 243 l 583 243 l 583 340 l 51 340 m 583 589 l 583 492 l 51 492 l 51 589 l 583 589 z "},">":{"ha":682,"x_min":88,"x_max":593,"o":"m 88 21 l 88 135 l 486 353 l 88 571 l 88 685 l 593 396 l 593 308 l 88 21 z "},"?":{"ha":608,"x_min":76,"x_max":550,"o":"m 281 993 q 394 975 344 993 q 479 926 444 957 q 532 851 514 894 q 550 758 550 808 q 539 690 550 722 q 508 627 528 657 q 464 569 489 597 q 413 515 439 542 q 324 427 354 463 q 294 346 294 392 q 297 315 294 328 q 306 282 299 301 l 186 263 q 174 305 179 282 q 169 351 169 328 q 199 458 169 411 q 285 561 228 504 q 332 609 310 586 q 370 655 354 632 q 395 701 386 678 q 404 754 404 725 q 373 837 404 800 q 268 874 342 874 q 201 864 235 874 q 135 831 168 854 l 76 933 q 172 978 117 963 q 281 993 228 993 m 167 81 q 194 147 167 121 q 258 174 222 174 q 322 147 296 174 q 349 81 349 121 q 322 12 349 38 q 258 -14 296 -14 q 194 12 222 -14 q 167 81 167 38 z "},"@":{"ha":1340,"x_min":68,"x_max":1276,"o":"m 779 83 l 776 83 q 680 11 729 36 q 556 -14 631 -14 q 419 34 468 -14 q 369 156 369 82 q 395 263 369 218 q 465 336 421 307 q 567 378 508 365 q 689 392 625 392 l 800 392 l 808 440 q 810 456 810 449 q 811 469 811 463 q 782 538 811 518 q 701 557 753 557 q 615 544 665 557 q 504 500 565 532 l 469 599 q 600 649 538 632 q 729 667 663 667 q 819 657 779 667 q 889 626 860 647 q 934 569 918 604 q 950 485 950 535 q 946 426 950 457 l 910 204 q 903 146 903 165 q 914 106 903 118 q 949 94 925 94 q 1027 122 990 94 q 1092 199 1064 150 q 1135 315 1119 249 q 1151 456 1151 381 q 1124 616 1151 542 q 1047 744 1097 690 q 921 830 996 799 q 750 861 846 861 q 531 822 633 861 q 353 704 429 782 q 233 510 276 626 q 189 243 189 394 q 230 33 189 118 q 336 -103 271 -51 q 483 -178 401 -156 q 647 -201 565 -201 q 799 -186 736 -201 q 917 -149 861 -171 l 943 -240 q 803 -285 885 -265 q 625 -304 721 -304 q 421 -275 521 -304 q 242 -181 321 -246 q 116 -15 164 -117 q 68 235 68 88 q 123 539 68 404 q 271 767 178 674 q 486 911 364 861 q 744 961 608 961 q 972 924 874 961 q 1139 819 1071 886 q 1242 662 1207 753 q 1276 464 1276 571 q 1243 255 1276 343 q 1158 110 1210 167 q 1041 26 1106 53 q 913 -1 976 -1 q 851 3 879 -1 q 807 15 822 8 l 779 83 m 788 301 l 697 299 q 557 260 599 296 q 515 169 515 224 q 544 107 515 126 q 613 88 572 88 q 765 167 697 88 l 788 301 z "},"[":{"ha":415,"x_min":106,"x_max":376,"o":"m 106 -218 l 106 1003 l 376 1003 l 376 904 l 235 904 l 235 -118 l 376 -118 l 376 -218 l 106 -218 z "},"\\":{"ha":451,"x_min":0,"x_max":451,"o":"m 338 -122 l 0 1000 l 113 1000 l 451 -122 l 338 -122 z "},"]":{"ha":415,"x_min":40,"x_max":311,"o":"m 40 -218 l 40 -118 l 181 -118 l 181 904 l 40 904 l 40 1003 l 311 1003 l 311 -218 l 40 -218 z "},"^":{"ha":713,"x_min":79,"x_max":635,"o":"m 635 574 l 522 574 l 356 908 l 193 574 l 79 574 l 311 1000 l 400 1000 l 635 574 z "},"_":{"ha":511,"x_min":13,"x_max":500,"o":"m 500 -257 l 500 -347 l 13 -347 l 13 -257 l 500 -257 z "},"{":{"ha":453,"x_min":39,"x_max":418,"o":"m 418 881 q 315 843 347 881 q 283 726 283 806 l 283 546 q 186 388 283 422 l 186 383 q 283 188 283 336 l 283 7 q 315 -81 283 -53 q 418 -112 347 -108 l 418 -215 q 232 -153 303 -212 q 161 10 161 -94 l 161 208 q 132 301 161 268 q 39 338 103 335 l 39 429 q 131 465 101 438 q 161 556 161 493 l 161 771 q 178 853 161 815 q 227 919 194 892 q 308 963 260 947 q 418 979 356 979 l 418 881 z "},"|":{"ha":314,"x_min":100,"x_max":214,"o":"m 100 -319 l 100 1042 l 214 1042 l 214 -319 l 100 -319 z "},"}":{"ha":453,"x_min":33,"x_max":413,"o":"m 33 985 q 223 922 156 983 q 290 767 290 860 l 290 556 q 320 465 290 494 q 413 429 350 436 l 413 338 q 319 301 349 332 q 290 208 290 269 l 290 6 q 272 -85 290 -44 q 220 -153 254 -125 q 139 -198 186 -182 q 33 -215 92 -214 l 33 -114 q 136 -81 104 -111 q 168 15 168 -50 l 168 194 q 267 382 168 336 l 267 386 q 168 553 168 422 l 168 735 q 136 842 168 808 q 33 879 104 876 l 33 985 z "},"~":{"ha":810,"x_min":64,"x_max":744,"o":"m 64 288 q 119 449 64 394 q 260 503 175 503 q 340 485 301 503 q 415 448 379 468 q 485 410 451 428 q 553 393 519 393 q 624 421 599 393 q 649 501 649 449 l 744 501 q 729 401 744 442 q 688 334 714 360 q 628 297 661 308 q 558 286 594 286 q 477 303 517 286 q 400 342 438 321 q 327 381 363 364 q 258 399 292 399 q 185 366 211 399 q 160 288 160 333 l 64 288 z "},"…":{"ha":917,"x_min":72,"x_max":857,"o":"m 72 83 q 100 151 72 124 q 165 178 128 178 q 230 151 203 178 q 257 83 257 124 q 230 13 257 39 q 165 -14 203 -14 q 100 13 128 -14 q 72 83 72 39 m 372 83 q 400 151 372 124 q 465 178 428 178 q 530 151 503 178 q 557 83 557 124 q 530 13 557 39 q 465 -14 503 -14 q 400 13 428 -14 q 372 83 372 39 m 672 83 q 700 151 672 124 q 765 178 728 178 q 830 151 803 178 q 857 83 857 124 q 830 13 857 39 q 765 -14 803 -14 q 700 13 728 -14 q 672 83 672 39 z "},"–":{"ha":714,"x_min":67,"x_max":647,"o":"m 647 356 l 647 261 l 67 261 l 67 356 l 647 356 z "},"—":{"ha":1288,"x_min":67,"x_max":1221,"o":"m 1221 354 l 1221 261 l 67 261 l 67 354 l 1221 354 z "},"‘":{"ha":294,"x_min":38,"x_max":246,"o":"m 161 840 q 221 806 200 833 q 242 742 242 778 q 217 677 242 706 q 147 649 193 649 q 110 656 129 649 q 74 679 90 663 q 48 724 58 696 q 38 794 38 751 q 51 872 38 835 q 86 942 64 910 q 138 1000 108 974 q 201 1044 168 1026 l 246 983 q 177 928 207 963 q 138 844 147 893 l 161 840 z "},"’":{"ha":294,"x_min":49,"x_max":257,"o":"m 133 853 q 74 887 94 860 q 53 950 53 914 q 78 1016 53 988 q 149 1044 103 1044 q 185 1038 167 1044 q 220 1015 204 1031 q 247 971 236 999 q 257 901 257 943 q 244 822 257 860 q 208 752 231 785 q 156 693 186 719 q 93 649 126 667 l 49 710 q 117 765 88 731 q 157 849 147 800 l 133 853 z "},"÷":{"ha":747,"x_min":56,"x_max":692,"o":"m 281 121 q 308 183 281 157 q 371 210 335 210 q 433 183 407 210 q 460 121 460 157 q 433 57 460 83 q 371 31 407 31 q 308 57 335 31 q 281 121 281 83 m 281 578 q 308 640 281 613 q 371 667 335 667 q 433 640 407 667 q 460 578 460 613 q 433 513 460 539 q 371 488 407 488 q 308 513 335 488 q 281 578 281 539 m 692 394 l 692 303 l 56 303 l 56 394 l 692 394 z "},"−":{"ha":657,"x_min":56,"x_max":601,"o":"m 601 472 l 601 381 l 56 381 l 56 472 l 601 472 z "},"×":{"ha":576,"x_min":53,"x_max":522,"o":"m 53 250 l 222 419 l 53 589 l 118 654 l 288 485 l 457 654 l 522 589 l 353 419 l 522 250 l 457 185 l 288 354 l 118 185 l 53 250 z "},"$":{"ha":747,"x_min":89,"x_max":650,"o":"m 326 1003 l 426 1003 l 426 858 q 513 842 468 854 q 601 806 557 829 l 561 699 q 376 749 467 749 q 274 721 314 749 q 235 638 235 693 q 270 562 235 586 q 369 517 306 538 l 433 496 q 595 403 540 461 q 650 254 650 344 q 632 163 650 204 q 581 91 614 122 q 504 40 549 60 q 406 15 460 21 l 406 -135 l 306 -135 l 306 15 q 194 33 243 18 q 93 78 146 49 l 143 185 q 252 139 199 151 q 350 126 306 126 q 463 156 419 126 q 506 243 506 185 q 469 323 506 294 q 358 375 433 351 l 292 397 q 210 431 247 411 q 147 477 174 450 q 104 540 119 504 q 89 622 89 576 q 154 788 89 726 q 326 858 219 850 l 326 1003 z "},"A":{"ha":835,"x_min":4,"x_max":831,"o":"m 282 343 l 547 343 l 496 485 q 455 594 472 543 q 418 710 438 644 l 415 710 q 376 597 394 649 q 335 483 358 544 l 282 343 m 349 875 l 490 875 l 831 0 l 675 0 l 588 229 l 244 229 l 158 0 l 4 0 l 349 875 z "},"B":{"ha":761,"x_min":106,"x_max":696,"o":"m 385 875 q 594 817 519 875 q 669 651 669 760 q 656 580 669 611 q 622 526 643 549 q 571 488 600 503 q 510 464 542 472 q 583 440 549 457 q 642 395 617 422 q 681 331 667 368 q 696 246 696 293 q 672 147 696 192 q 606 69 649 101 q 506 18 564 36 q 376 0 447 0 l 106 0 l 106 875 l 385 875 m 254 515 l 354 515 q 417 521 388 515 q 469 541 447 526 q 503 580 490 556 q 517 640 517 604 q 475 730 517 701 q 363 758 433 758 l 254 758 l 254 515 m 254 117 l 358 117 q 429 124 396 117 q 488 149 463 132 q 527 192 513 165 q 542 260 542 219 q 525 326 542 299 q 481 369 508 353 q 417 393 453 386 q 342 400 381 400 l 254 400 l 254 117 z "},"C":{"ha":782,"x_min":60,"x_max":738,"o":"m 504 106 q 617 117 572 106 q 703 149 663 129 l 735 33 q 632 -1 690 13 q 489 -14 574 -14 q 320 16 399 -14 q 184 103 242 46 q 93 245 126 161 q 60 438 60 329 q 92 627 60 543 q 181 769 124 711 q 319 858 239 828 q 494 889 399 889 q 638 874 582 889 q 738 836 694 860 l 703 724 q 613 757 656 744 q 513 769 571 769 q 399 751 453 769 q 306 693 346 733 q 243 590 267 653 q 219 438 219 526 q 242 285 219 349 q 303 183 265 222 q 394 124 342 143 q 504 106 446 106 z "},"D":{"ha":897,"x_min":106,"x_max":836,"o":"m 397 875 q 574 849 493 875 q 713 770 654 822 q 803 640 771 718 q 836 457 836 561 q 797 247 836 333 q 692 105 758 160 q 538 25 626 50 q 353 0 450 0 l 106 0 l 106 875 l 397 875 m 254 119 l 340 119 q 465 134 404 119 q 572 187 525 149 q 648 290 619 225 q 676 457 676 356 q 594 678 676 601 q 372 756 511 756 l 254 756 l 254 119 z "},"E":{"ha":703,"x_min":106,"x_max":651,"o":"m 106 875 l 647 875 l 647 756 l 254 756 l 254 514 l 611 514 l 611 396 l 254 396 l 254 119 l 651 119 l 651 0 l 106 0 l 106 875 z "},"F":{"ha":679,"x_min":106,"x_max":633,"o":"m 633 875 l 633 756 l 254 756 l 254 489 l 603 489 l 603 371 l 254 371 l 254 0 l 106 0 l 106 875 l 633 875 z "},"G":{"ha":864,"x_min":60,"x_max":788,"o":"m 500 889 q 756 838 653 889 l 722 728 q 622 763 672 751 q 517 774 571 774 q 403 756 457 774 q 309 697 350 738 q 244 593 268 657 q 219 436 219 529 q 293 188 219 274 q 501 103 367 103 q 583 108 549 103 q 647 124 617 113 l 647 354 l 489 354 l 489 468 l 788 468 l 788 39 q 663 1 732 17 q 500 -14 593 -14 q 328 15 408 -14 q 188 101 247 44 q 94 242 128 158 q 60 436 60 326 q 93 631 60 546 q 185 773 126 715 q 325 860 244 831 q 500 889 406 889 z "},"H":{"ha":896,"x_min":106,"x_max":790,"o":"m 106 0 l 106 875 l 254 875 l 254 514 l 642 514 l 642 875 l 790 875 l 790 0 l 642 0 l 642 392 l 254 392 l 254 0 l 106 0 z "},"I":{"ha":360,"x_min":106,"x_max":254,"o":"m 254 875 l 254 0 l 106 0 l 106 875 l 254 875 z "},"J":{"ha":383,"x_min":-22,"x_max":286,"o":"m 286 875 l 286 160 q 275 -6 286 58 q 226 -119 264 -71 q 115 -199 182 -178 q -22 -222 49 -221 l -22 -104 q 47 -91 18 -103 q 97 -57 76 -79 q 130 8 122 -32 q 138 92 138 47 l 138 875 l 286 875 z "},"K":{"ha":817,"x_min":106,"x_max":813,"o":"m 106 0 l 106 875 l 254 875 l 254 489 l 600 875 l 785 875 l 435 489 l 813 0 l 626 0 l 328 392 l 254 313 l 254 0 l 106 0 z "},"L":{"ha":639,"x_min":106,"x_max":621,"o":"m 106 875 l 254 875 l 254 122 l 621 122 l 621 0 l 106 0 l 106 875 z "},"M":{"ha":1136,"x_min":89,"x_max":1047,"o":"m 158 875 l 350 875 l 504 403 q 538 295 524 343 q 568 188 553 247 l 572 188 q 603 294 588 238 q 635 403 619 351 l 783 875 l 975 875 l 1047 0 l 903 0 q 881 280 892 139 q 865 563 871 421 l 860 722 l 857 722 q 808 547 833 636 q 754 376 782 458 l 631 0 l 504 0 l 379 378 q 345 486 360 438 q 319 576 331 535 q 297 653 307 617 q 279 722 288 689 l 275 722 q 263 482 271 604 q 247 247 254 360 l 231 0 l 89 0 l 158 875 z "},"N":{"ha":933,"x_min":106,"x_max":828,"o":"m 106 875 l 238 875 l 604 351 q 651 279 629 315 q 689 214 674 243 l 692 214 q 685 419 685 317 q 685 625 685 521 l 685 875 l 828 875 l 828 0 l 696 0 l 339 507 q 288 588 313 544 q 244 667 263 632 l 242 667 q 249 452 249 558 q 249 239 249 346 l 249 0 l 106 0 l 106 875 z "},"O":{"ha":961,"x_min":61,"x_max":900,"o":"m 483 889 q 650 860 574 889 q 782 774 726 831 q 869 632 838 717 q 900 438 900 547 q 868 245 900 329 q 779 103 836 161 q 645 16 722 46 q 478 -14 568 -14 q 311 15 388 -14 q 179 101 235 44 q 92 242 124 158 q 61 438 61 326 q 93 630 61 546 q 182 772 125 714 q 316 859 239 829 q 483 889 393 889 m 221 438 q 242 290 221 353 q 298 185 263 226 q 381 123 333 143 q 483 103 429 103 q 585 123 538 103 q 666 185 632 143 q 720 290 700 226 q 740 438 740 353 q 719 588 740 525 q 663 692 699 651 q 580 753 628 733 q 478 772 532 772 q 376 752 424 772 q 295 690 329 732 q 241 585 261 649 q 221 438 221 522 z "},"P":{"ha":743,"x_min":106,"x_max":706,"o":"m 106 875 l 392 875 q 520 857 463 875 q 619 805 578 839 q 683 722 660 771 q 706 608 706 672 q 681 485 706 538 q 611 399 656 433 q 506 349 567 365 q 375 332 446 332 l 254 332 l 254 0 l 106 0 l 106 875 m 254 450 l 333 450 q 420 457 381 450 q 489 481 460 464 q 535 528 518 499 q 551 606 551 558 q 536 676 551 647 q 494 724 521 706 q 435 750 468 742 q 364 758 401 758 l 254 758 l 254 450 z "},"Q":{"ha":957,"x_min":61,"x_max":933,"o":"m 483 889 q 650 860 574 889 q 782 774 726 831 q 869 632 838 717 q 900 438 900 547 q 838 183 900 289 q 646 7 775 78 l 465 -94 q 536 -106 503 -96 q 604 -127 569 -115 q 676 -149 639 -139 q 758 -158 713 -158 q 821 -149 789 -158 q 878 -119 853 -139 l 933 -225 q 853 -263 900 -249 q 757 -278 806 -278 q 656 -265 704 -278 q 560 -235 607 -251 q 467 -206 513 -219 q 376 -193 422 -193 q 303 -203 338 -193 q 233 -235 269 -214 l 176 -131 l 394 -6 q 258 42 319 7 q 153 132 197 76 q 85 264 110 188 q 61 438 61 340 q 93 630 61 546 q 182 772 125 714 q 316 859 239 829 q 483 889 393 889 m 221 438 q 240 289 221 353 q 293 183 260 225 q 373 119 326 140 q 474 97 419 97 q 576 119 528 97 q 662 185 625 142 q 719 291 699 228 q 740 438 740 354 q 719 588 740 525 q 663 692 699 651 q 580 753 628 733 q 478 772 532 772 q 376 752 424 772 q 295 690 329 732 q 241 585 261 649 q 221 438 221 522 z "},"R":{"ha":761,"x_min":106,"x_max":740,"o":"m 106 875 l 407 875 q 530 855 476 875 q 619 799 583 835 q 674 715 656 764 q 692 610 692 667 q 676 518 692 558 q 635 448 660 478 q 578 397 610 418 q 515 363 547 375 l 740 0 l 572 0 l 379 336 l 250 336 l 250 0 l 106 0 l 106 875 m 250 454 l 344 454 q 421 463 386 454 q 482 489 456 471 q 523 535 508 507 q 538 604 538 564 q 493 720 538 682 q 365 758 449 758 l 250 758 l 250 454 z "},"S":{"ha":715,"x_min":60,"x_max":658,"o":"m 364 889 q 614 836 507 889 l 579 718 q 472 759 521 746 q 372 772 422 772 q 254 740 297 772 q 211 651 211 708 q 244 572 211 601 q 353 519 278 543 l 439 492 q 606 391 553 456 q 658 242 658 326 q 636 138 658 185 q 573 57 614 90 q 474 5 532 24 q 344 -14 415 -14 q 203 -1 274 -14 q 67 44 133 13 l 101 161 q 218 117 161 132 q 338 103 275 103 q 460 135 413 103 q 507 229 507 167 q 474 308 507 274 q 347 374 442 343 l 265 400 q 115 485 169 432 q 60 635 60 539 q 138 819 60 750 q 364 889 215 889 z "},"T":{"ha":699,"x_min":14,"x_max":686,"o":"m 686 875 l 686 753 l 422 753 l 422 0 l 274 0 l 274 753 l 14 753 l 14 875 l 686 875 z "},"U":{"ha":899,"x_min":97,"x_max":800,"o":"m 97 875 l 246 875 l 246 351 q 294 163 246 221 q 450 104 343 104 q 603 167 556 104 q 651 335 651 231 l 651 875 l 800 875 l 800 342 q 709 73 800 160 q 450 -14 618 -14 q 191 73 285 -14 q 97 349 97 160 l 97 875 z "},"V":{"ha":814,"x_min":0,"x_max":815,"o":"m 157 875 l 326 396 q 345 343 335 372 q 367 283 356 314 q 388 220 378 251 q 407 163 399 189 l 410 163 q 426 219 417 189 q 446 279 436 249 q 465 338 456 310 q 483 386 475 365 l 661 875 l 815 875 l 482 0 l 331 0 l 0 875 l 157 875 z "},"W":{"ha":1194,"x_min":10,"x_max":1185,"o":"m 161 875 l 293 394 q 304 348 297 376 q 317 288 311 319 q 329 226 324 257 q 339 169 335 194 l 342 169 q 351 226 346 194 q 364 288 357 257 q 378 347 371 319 q 390 394 385 375 l 528 875 l 669 875 l 808 397 q 821 351 814 381 q 835 290 828 322 q 848 226 842 258 q 858 169 854 193 l 861 169 q 872 225 865 194 q 884 287 878 256 q 897 347 890 318 q 910 397 904 376 l 1035 875 l 1185 875 l 939 0 l 783 0 l 654 468 q 626 579 639 526 q 597 694 613 632 l 594 694 q 567 581 579 632 q 539 471 554 529 l 414 0 l 261 0 l 10 875 l 161 875 z "},"X":{"ha":794,"x_min":11,"x_max":783,"o":"m 196 875 l 396 546 l 604 875 l 769 875 l 485 444 l 783 0 l 611 0 l 393 343 l 178 0 l 11 0 l 301 444 l 24 875 l 196 875 z "},"Y":{"ha":756,"x_min":14,"x_max":754,"o":"m 178 875 l 386 500 l 594 875 l 754 875 l 454 365 l 454 0 l 306 0 l 306 365 l 14 875 l 178 875 z "},"Z":{"ha":721,"x_min":36,"x_max":685,"o":"m 676 875 l 676 788 l 215 117 l 685 117 l 685 0 l 36 0 l 36 100 l 489 758 l 54 758 l 54 875 l 676 875 z "},"`":{"ha":294,"x_min":28,"x_max":268,"o":"m 28 1000 l 161 1000 l 268 771 l 175 771 l 28 1000 z "},"a":{"ha":688,"x_min":47,"x_max":606,"o":"m 99 597 q 222 649 163 632 q 353 667 281 667 q 455 654 408 667 q 535 614 501 642 q 587 540 568 586 q 606 426 606 493 l 606 0 l 490 0 l 475 71 l 471 71 q 381 6 432 26 q 267 -14 329 -14 q 108 39 168 -14 q 47 179 47 92 q 69 273 47 233 q 132 339 92 313 q 228 378 172 365 q 350 392 283 392 l 461 392 l 461 442 q 428 528 461 504 q 336 553 394 553 q 255 541 300 553 q 151 497 210 529 l 99 597 m 463 297 l 375 296 q 236 261 276 293 q 196 186 196 229 q 205 140 196 158 q 229 111 214 122 q 265 95 244 100 q 306 90 285 90 q 391 112 349 90 q 463 174 433 133 l 463 297 z "},"b":{"ha":763,"x_min":93,"x_max":711,"o":"m 711 328 q 688 185 711 249 q 623 78 664 122 q 527 10 582 33 q 410 -14 472 -14 q 299 5 346 -14 q 211 61 251 24 l 208 61 l 196 0 l 93 0 l 93 988 l 235 988 l 235 583 q 326 646 275 625 q 435 667 378 667 q 637 577 563 667 q 711 328 711 488 m 563 325 q 518 492 563 431 q 394 553 474 553 q 306 531 346 553 q 235 472 267 508 l 235 160 q 294 113 260 131 q 371 94 328 94 q 443 108 408 94 q 504 150 478 122 q 547 222 531 178 q 563 325 563 265 z "},"c":{"ha":622,"x_min":51,"x_max":582,"o":"m 413 94 q 491 105 457 94 q 553 129 525 115 l 582 26 q 501 -3 549 8 q 397 -14 454 -14 q 262 8 325 -14 q 152 72 199 29 q 78 178 106 114 q 51 326 51 242 q 76 467 51 404 q 147 575 101 531 q 257 643 193 619 q 397 667 321 667 q 484 660 440 667 q 581 628 528 653 l 549 524 q 413 560 483 560 q 257 500 317 560 q 197 331 197 440 q 216 219 197 264 q 265 146 235 174 q 334 106 296 118 q 413 94 372 94 z "},"d":{"ha":757,"x_min":51,"x_max":665,"o":"m 522 988 l 665 988 l 665 0 l 553 0 l 536 72 l 531 72 q 450 8 494 31 q 335 -14 406 -14 q 228 8 279 -14 q 138 72 178 29 q 75 179 99 115 q 51 326 51 243 q 72 467 51 404 q 130 574 92 529 q 224 642 168 618 q 350 667 279 667 q 444 651 399 667 q 522 608 490 636 l 522 988 m 522 493 q 382 560 464 560 q 313 547 346 560 q 253 507 279 535 q 211 436 226 479 q 196 331 196 393 q 210 224 196 268 q 249 150 225 179 q 303 108 272 121 q 368 94 335 94 q 456 117 418 94 q 522 179 494 139 l 522 493 z "},"e":{"ha":707,"x_min":51,"x_max":658,"o":"m 658 303 l 199 303 l 199 297 q 257 146 199 197 q 411 94 315 94 q 506 103 464 94 q 592 132 549 113 l 619 28 q 524 -2 579 10 q 401 -14 468 -14 q 267 6 331 -14 q 155 67 203 25 q 79 172 107 108 q 51 325 51 236 q 74 465 51 401 q 140 573 97 528 q 242 642 182 618 q 376 667 303 667 q 492 646 440 667 q 581 587 544 625 q 638 494 618 549 q 658 372 658 439 l 658 303 m 511 403 q 503 465 511 436 q 478 516 494 494 q 434 551 461 538 q 369 564 407 564 q 256 519 300 564 q 203 400 213 475 l 511 403 z "},"f":{"ha":478,"x_min":25,"x_max":511,"o":"m 344 993 q 432 981 388 993 q 511 951 476 969 l 482 854 q 431 872 456 865 q 379 879 407 879 q 291 845 318 879 q 264 728 264 811 l 264 656 l 453 656 l 453 550 l 264 550 l 264 0 l 122 0 l 122 550 l 25 550 l 25 656 l 122 656 l 122 767 q 181 934 122 875 q 344 993 239 993 z "},"g":{"ha":764,"x_min":42,"x_max":722,"o":"m 82 436 q 102 533 82 490 q 158 606 122 576 q 244 651 194 636 q 353 667 294 667 q 440 656 396 667 l 722 656 l 722 557 l 674 557 l 571 571 q 608 510 594 544 q 622 438 622 475 q 603 341 622 383 q 548 269 583 299 q 463 224 513 239 q 353 208 413 208 q 316 210 333 208 q 282 214 299 211 q 244 188 256 203 q 233 154 233 172 q 253 115 233 126 q 308 104 272 104 l 474 104 q 642 55 582 104 q 703 -86 703 6 q 678 -184 703 -140 q 609 -259 654 -228 q 500 -307 564 -290 q 357 -324 436 -324 q 126 -272 211 -324 q 42 -121 42 -221 q 74 -37 42 -72 q 158 17 106 -3 q 118 56 133 33 q 103 117 103 79 q 129 192 103 161 q 199 242 156 224 q 115 313 149 265 q 82 436 82 361 m 240 -7 q 176 -99 176 -37 q 222 -183 176 -154 q 363 -212 267 -212 q 454 -202 417 -212 q 516 -175 492 -192 q 551 -137 540 -158 q 563 -94 563 -117 q 527 -24 563 -42 q 433 -7 492 -7 l 240 -7 m 479 435 q 444 534 479 501 q 353 567 410 567 q 260 535 294 567 q 226 439 226 503 q 261 340 226 372 q 353 308 296 308 q 445 340 411 308 q 479 435 479 372 z "},"h":{"ha":764,"x_min":93,"x_max":672,"o":"m 236 0 l 93 0 l 93 988 l 236 988 l 236 581 q 334 642 281 617 q 453 667 388 667 q 550 650 508 667 q 619 604 592 633 q 659 535 646 575 q 672 447 672 494 l 672 0 l 529 0 l 529 415 q 499 521 529 489 q 410 553 468 553 q 322 531 367 553 q 236 472 276 510 l 236 0 z "},"i":{"ha":356,"x_min":96,"x_max":260,"o":"m 106 0 l 106 656 l 249 656 l 249 0 l 106 0 m 178 818 q 118 841 140 818 q 96 899 96 864 q 118 956 96 933 q 178 979 140 979 q 237 956 214 979 q 260 899 260 933 q 237 840 260 863 q 178 818 214 818 z "},"j":{"ha":357,"x_min":-51,"x_max":261,"o":"m 107 656 l 250 656 l 250 97 q 240 -49 250 18 q 203 -169 229 -115 q 131 -267 176 -224 q 13 -340 85 -310 l -51 -237 q 22 -192 -8 -215 q 70 -135 51 -169 q 98 -48 89 -100 q 107 83 107 4 l 107 656 m 179 818 q 119 841 142 818 q 97 899 97 864 q 120 956 97 933 q 179 979 143 979 q 238 956 215 979 q 261 899 261 933 q 238 840 261 863 q 179 818 215 818 z "},"k":{"ha":676,"x_min":93,"x_max":671,"o":"m 235 233 l 235 0 l 93 0 l 93 988 l 235 988 l 235 382 l 483 656 l 658 656 l 394 379 l 671 0 l 503 0 l 296 294 l 235 233 z "},"l":{"ha":333,"x_min":96,"x_max":236,"o":"m 96 0 l 96 988 l 236 988 l 236 0 l 96 0 z "},"m":{"ha":1158,"x_min":90,"x_max":1067,"o":"m 233 0 l 90 0 l 90 656 l 201 656 l 221 568 q 319 640 267 614 q 443 667 372 667 q 559 639 514 667 q 628 561 604 611 q 733 639 675 611 q 860 667 790 667 q 1015 610 963 667 q 1067 451 1067 554 l 1067 0 l 924 0 l 924 429 q 898 521 924 489 q 814 553 872 553 q 650 474 725 553 l 650 0 l 507 0 l 507 429 q 481 521 507 489 q 397 553 456 553 q 233 469 308 553 l 233 0 z "},"n":{"ha":756,"x_min":90,"x_max":664,"o":"m 233 0 l 90 0 l 90 656 l 203 656 l 222 568 q 324 641 271 615 q 446 667 378 667 q 607 610 550 667 q 664 447 664 553 l 664 0 l 521 0 l 521 429 q 492 519 521 486 q 404 553 463 553 q 316 531 360 553 q 233 469 272 510 l 233 0 z "},"o":{"ha":757,"x_min":51,"x_max":704,"o":"m 704 335 q 678 188 704 253 q 608 78 653 122 q 504 10 564 33 q 375 -14 444 -14 q 247 8 306 -14 q 144 73 188 31 q 76 178 100 115 q 51 321 51 240 q 77 468 51 404 q 147 576 103 532 q 251 644 192 621 q 381 667 311 667 q 509 645 450 667 q 612 582 568 624 q 680 478 656 540 q 704 335 704 415 m 556 328 q 540 434 556 390 q 500 506 525 478 q 443 546 475 533 q 376 558 411 558 q 311 547 343 558 q 254 510 279 536 q 215 439 229 483 q 200 328 200 394 q 215 222 200 267 q 256 149 231 178 q 313 108 281 121 q 379 94 346 94 q 444 106 413 94 q 501 144 476 117 q 541 216 526 171 q 556 328 556 261 z "},"p":{"ha":751,"x_min":86,"x_max":700,"o":"m 375 -14 q 294 -3 333 -14 q 228 28 256 8 l 228 -319 l 86 -319 l 86 664 l 201 664 l 219 582 q 307 642 258 618 q 419 667 356 667 q 625 582 550 667 q 700 342 700 497 q 673 184 700 251 q 601 73 646 117 q 497 8 556 29 q 375 -14 438 -14 m 385 554 q 291 528 332 554 q 228 475 250 503 l 228 138 q 357 94 285 94 q 428 107 393 94 q 490 149 463 119 q 535 224 518 178 q 551 338 551 271 q 510 495 551 436 q 385 554 469 554 z "},"q":{"ha":757,"x_min":51,"x_max":665,"o":"m 522 43 q 445 -1 489 13 q 350 -14 401 -14 q 224 10 279 -14 q 131 80 169 35 q 72 188 92 125 q 51 328 51 250 q 72 463 51 401 q 131 570 92 525 q 226 641 169 615 q 354 667 282 667 q 451 648 399 667 q 536 593 504 629 l 550 656 l 665 656 l 665 -319 l 522 -319 l 522 43 m 522 485 q 463 538 499 515 q 381 560 426 560 q 310 547 343 560 q 251 507 276 535 q 211 436 226 479 q 196 332 196 393 q 247 154 196 214 q 374 94 297 94 q 460 113 422 94 q 522 160 497 132 l 522 485 z "},"r":{"ha":525,"x_min":89,"x_max":524,"o":"m 89 0 l 89 656 l 197 656 l 218 529 q 294 627 242 588 q 422 667 347 667 q 480 661 456 667 q 524 646 504 656 l 497 526 q 459 540 481 535 q 410 546 438 546 q 282 494 333 546 q 231 336 231 442 l 231 0 l 89 0 z "},"s":{"ha":578,"x_min":49,"x_max":531,"o":"m 468 522 q 385 552 424 543 q 310 561 347 561 q 222 540 251 561 q 192 482 192 518 q 214 434 192 454 q 306 394 236 414 l 347 382 q 484 310 438 354 q 531 190 531 265 q 461 42 531 99 q 271 -14 392 -14 q 149 -2 206 -14 q 49 31 93 10 l 82 139 q 168 107 122 119 q 263 94 214 94 q 356 115 322 94 q 389 179 389 136 q 359 237 389 219 q 267 274 329 254 l 224 286 q 94 360 136 315 q 51 476 51 404 q 69 554 51 519 q 119 614 88 589 q 197 653 151 639 q 296 667 242 667 q 401 657 347 667 q 500 626 454 647 l 468 522 z "},"t":{"ha":514,"x_min":24,"x_max":486,"o":"m 451 550 l 265 550 l 265 196 q 288 131 265 147 q 350 114 311 114 q 409 120 378 114 q 464 135 440 126 l 486 29 q 415 9 458 18 q 322 0 371 0 q 170 44 217 0 q 124 174 124 88 l 124 550 l 24 550 l 24 656 l 124 656 l 124 863 l 265 863 l 265 656 l 451 656 l 451 550 z "},"u":{"ha":758,"x_min":90,"x_max":668,"o":"m 525 656 l 668 656 l 668 0 l 558 0 l 540 79 l 535 79 q 447 15 500 43 q 319 -14 394 -14 q 153 44 215 -14 q 90 219 90 103 l 90 656 l 233 656 l 233 235 q 269 128 233 158 q 354 97 304 97 q 450 120 408 97 q 525 181 492 143 l 525 656 z "},"v":{"ha":663,"x_min":17,"x_max":647,"o":"m 496 656 l 647 656 l 407 0 l 257 0 l 17 656 l 171 656 l 301 247 l 331 111 l 336 111 l 365 246 l 496 656 z "},"w":{"ha":1011,"x_min":14,"x_max":999,"o":"m 14 656 l 165 656 l 268 265 l 293 110 l 299 110 l 329 265 l 431 656 l 583 656 l 689 265 l 718 110 l 724 110 l 753 265 l 853 656 l 999 656 l 806 0 l 640 0 l 538 386 l 507 547 l 475 386 l 369 0 l 210 0 l 14 656 z "},"x":{"ha":653,"x_min":14,"x_max":640,"o":"m 410 333 l 640 0 l 476 0 l 379 143 l 322 240 l 269 144 l 175 0 l 14 0 l 243 333 l 26 656 l 186 656 l 278 515 l 332 421 l 383 515 l 468 656 l 624 656 l 410 333 z "},"y":{"ha":668,"x_min":11,"x_max":658,"o":"m 11 656 l 165 656 l 297 301 l 344 144 l 347 144 l 393 303 l 513 656 l 658 656 l 410 -44 q 303 -237 368 -162 q 135 -347 239 -311 l 74 -235 q 194 -159 143 -208 q 271 -31 246 -110 l 282 1 l 11 656 z "},"z":{"ha":575,"x_min":33,"x_max":543,"o":"m 536 571 l 201 106 l 543 106 l 543 0 l 33 0 l 33 89 l 367 550 l 54 550 l 54 656 l 536 656 l 536 571 z "},"€":{"ha":758,"x_min":7,"x_max":731,"o":"m 508 106 q 612 117 568 106 q 696 149 656 129 l 728 33 q 630 -1 683 13 q 492 -14 576 -14 q 356 6 419 -14 q 242 67 293 26 q 157 166 192 107 q 107 304 122 225 l 7 304 l 7 382 l 96 382 q 94 416 94 406 q 94 439 94 426 l 94 463 l 7 463 l 7 540 l 107 540 q 233 797 132 704 q 499 889 335 889 q 576 885 542 889 q 637 874 610 881 q 687 857 664 867 q 731 836 710 847 l 696 724 q 608 758 649 746 q 515 769 567 769 q 427 755 469 769 q 350 712 385 740 q 292 640 315 683 q 261 540 268 597 l 625 540 l 625 463 l 250 463 l 250 446 q 250 418 250 431 q 251 382 250 406 l 625 382 l 625 304 l 265 304 q 299 213 275 250 q 355 151 322 175 q 427 116 388 126 q 508 106 467 106 z "},"‚":{"ha":283,"x_min":38,"x_max":244,"o":"m 119 -10 q 59 24 81 -4 q 38 88 38 51 q 63 153 38 124 q 135 182 89 182 q 172 175 153 182 q 208 152 192 168 q 234 108 224 136 q 244 39 244 81 q 232 -40 244 -3 q 197 -110 219 -78 q 145 -169 175 -143 q 82 -214 115 -196 l 38 -153 q 106 -97 75 -132 q 146 -14 136 -62 l 119 -10 z "},"ƒ":{"ha":674,"x_min":-19,"x_max":683,"o":"m 315 65 q 272 -83 303 -24 q 202 -180 242 -143 q 116 -235 163 -217 q 24 -262 69 -254 l -19 -151 q 47 -128 15 -143 q 102 -88 78 -112 q 144 -28 126 -64 q 168 60 161 8 l 240 551 l 147 551 l 147 656 l 254 656 l 269 763 q 297 873 278 822 q 350 961 317 924 q 431 1020 383 999 q 544 1042 479 1042 q 619 1033 582 1042 q 683 1008 656 1024 l 649 908 q 554 928 606 928 q 456 884 489 928 q 410 749 422 840 l 397 656 l 578 656 l 578 550 l 383 550 l 315 65 z "},"„":{"ha":576,"x_min":38,"x_max":539,"o":"m 119 -10 q 59 24 81 -4 q 38 88 38 51 q 63 153 38 124 q 135 182 89 182 q 172 175 153 182 q 208 152 192 168 q 234 108 224 136 q 244 39 244 81 q 232 -40 244 -3 q 197 -110 219 -78 q 145 -169 175 -143 q 82 -214 115 -196 l 38 -153 q 106 -97 75 -132 q 146 -14 136 -62 l 119 -10 m 413 -10 q 353 24 375 -4 q 332 88 332 51 q 357 153 332 124 q 428 182 382 182 q 465 175 446 182 q 501 152 485 168 q 528 108 518 136 q 539 39 539 81 q 526 -40 539 -3 q 490 -110 513 -78 q 438 -169 468 -143 q 375 -214 408 -196 l 331 -153 q 399 -97 369 -132 q 439 -14 429 -62 l 413 -10 z "},"†":{"ha":515,"x_min":21,"x_max":494,"o":"m 494 656 l 494 539 l 329 539 l 329 -56 l 186 -56 l 186 539 l 21 539 l 21 656 l 186 656 l 186 875 l 329 875 l 329 656 l 494 656 z "},"‡":{"ha":515,"x_min":21,"x_max":494,"o":"m 494 276 l 494 160 l 329 160 l 329 -56 l 186 -56 l 186 160 l 21 160 l 21 276 l 186 276 l 186 539 l 21 539 l 21 656 l 186 656 l 186 875 l 329 875 l 329 656 l 494 656 l 494 539 l 329 539 l 329 276 l 494 276 z "},"ˆ":{"ha":500,"x_min":35,"x_max":469,"o":"m 469 768 l 353 768 l 256 915 l 153 768 l 35 768 l 210 989 l 299 989 l 469 768 z "},"‰":{"ha":1703,"x_min":40,"x_max":1663,"o":"m 221 0 l 828 1042 l 925 1042 l 318 0 l 221 0 m 1089 249 q 1074 148 1089 196 q 1031 64 1060 100 q 958 7 1001 28 q 857 -14 914 -14 q 758 7 801 -14 q 686 64 715 28 q 642 148 657 100 q 628 249 628 196 q 644 349 628 301 q 690 431 660 396 q 763 488 719 467 q 861 508 806 508 q 958 488 915 508 q 1029 431 1000 467 q 1074 349 1058 396 q 1089 249 1089 301 m 975 249 q 969 314 975 282 q 951 371 964 346 q 915 410 938 396 q 861 425 893 425 q 807 410 829 425 q 770 372 785 396 q 749 316 756 349 q 742 249 742 283 q 748 180 742 213 q 768 123 754 147 q 803 84 782 99 q 857 69 825 69 q 947 119 919 69 q 975 249 975 169 m 501 782 q 486 681 501 729 q 442 597 471 633 q 369 540 413 561 q 269 519 326 519 q 171 540 214 519 q 99 597 128 561 q 55 681 69 633 q 40 782 40 729 q 56 882 40 835 q 102 965 72 929 q 175 1021 132 1000 q 274 1042 218 1042 q 370 1021 328 1042 q 442 965 413 1000 q 486 882 471 929 q 501 782 501 835 m 388 782 q 382 847 388 815 q 363 902 376 878 q 328 941 350 926 q 274 956 306 956 q 219 942 242 956 q 183 903 197 928 q 161 848 168 879 q 154 782 154 817 q 160 713 154 746 q 181 656 167 681 q 216 617 194 632 q 269 603 238 603 q 359 653 331 603 q 388 782 388 703 m 1663 249 q 1647 148 1663 196 q 1603 64 1632 100 q 1530 7 1574 28 q 1429 -14 1486 -14 q 1331 7 1374 -14 q 1260 64 1289 28 q 1216 148 1231 100 q 1201 249 1201 196 q 1217 349 1201 301 q 1263 431 1233 396 q 1336 488 1293 467 q 1433 508 1379 508 q 1531 488 1489 508 q 1603 431 1574 467 q 1647 349 1632 396 q 1663 249 1663 301 m 1549 249 q 1543 314 1549 282 q 1524 371 1538 346 q 1488 410 1510 396 q 1433 425 1467 425 q 1381 410 1403 425 q 1344 372 1358 396 q 1322 316 1329 349 q 1315 249 1315 283 q 1322 180 1315 213 q 1342 123 1328 147 q 1377 84 1356 99 q 1429 69 1399 69 q 1520 119 1492 69 q 1549 249 1549 169 z "},"Š":{"ha":715,"x_min":60,"x_max":658,"o":"m 364 889 q 614 836 507 889 l 579 718 q 472 759 521 746 q 372 772 422 772 q 254 740 297 772 q 211 651 211 708 q 244 572 211 601 q 353 519 278 543 l 439 492 q 606 391 553 456 q 658 242 658 326 q 636 138 658 185 q 573 57 614 90 q 474 5 532 24 q 344 -14 415 -14 q 203 -1 274 -14 q 67 44 133 13 l 101 161 q 218 117 161 132 q 338 103 275 103 q 460 135 413 103 q 507 229 507 167 q 474 308 507 274 q 347 374 442 342 l 265 400 q 115 485 169 432 q 60 635 60 539 q 138 819 60 750 q 364 889 215 889 m 143 1163 l 264 1163 l 367 1050 l 469 1163 l 589 1163 l 419 981 l 310 981 l 143 1163 z "},"‹":{"ha":429,"x_min":57,"x_max":375,"o":"m 256 106 l 57 328 l 256 551 l 375 551 l 193 328 l 375 106 l 256 106 z "},"Œ":{"ha":1185,"x_min":61,"x_max":1128,"o":"m 472 -14 q 308 14 383 -14 q 178 98 233 42 q 92 239 124 154 q 61 439 61 324 q 92 631 61 547 q 179 772 124 715 q 310 859 235 829 q 474 889 386 889 q 541 885 506 889 q 604 875 576 882 l 1124 875 l 1124 756 l 740 756 l 740 514 l 1088 514 l 1088 396 l 740 396 l 740 119 l 1128 119 l 1128 0 l 599 0 q 535 -10 568 -7 q 472 -14 501 -14 m 478 772 q 291 692 361 772 q 221 442 221 611 q 291 188 221 272 q 478 103 361 103 q 538 110 507 103 q 592 129 568 117 l 592 750 q 478 772 539 772 z "},"Ž":{"ha":721,"x_min":36,"x_max":685,"o":"m 676 875 l 676 788 l 215 117 l 685 117 l 685 0 l 36 0 l 36 100 l 489 758 l 54 758 l 54 875 l 676 875 m 146 1163 l 264 1163 l 368 1053 l 472 1163 l 592 1163 l 422 981 l 313 981 l 146 1163 z "},"“":{"ha":585,"x_min":38,"x_max":536,"o":"m 161 840 q 221 806 200 833 q 242 742 242 778 q 218 677 242 706 q 149 649 194 649 q 111 656 131 649 q 75 679 92 663 q 48 724 58 696 q 38 794 38 751 q 51 872 38 835 q 86 942 64 910 q 138 1000 108 974 q 201 1044 168 1026 l 246 983 q 177 928 207 963 q 138 844 147 893 l 161 840 m 451 840 q 511 806 490 833 q 532 742 532 778 q 508 677 532 706 q 439 649 485 649 q 401 656 421 649 q 365 679 382 663 q 338 724 349 696 q 328 794 328 751 q 375 942 328 876 q 492 1044 422 1008 l 536 983 q 467 928 497 963 q 428 844 438 893 l 451 840 z "},"”":{"ha":585,"x_min":49,"x_max":546,"o":"m 133 853 q 74 886 94 858 q 53 950 53 914 q 78 1016 53 988 q 149 1044 103 1044 q 185 1038 167 1044 q 220 1015 204 1031 q 247 971 236 999 q 257 901 257 943 q 244 822 257 860 q 208 752 231 785 q 156 693 186 719 q 93 649 126 667 l 49 710 q 117 765 88 731 q 157 849 147 800 l 133 853 m 424 853 q 364 886 385 858 q 343 950 343 914 q 367 1016 343 988 q 438 1044 392 1044 q 475 1038 456 1044 q 510 1015 494 1031 q 535 971 525 999 q 546 901 546 943 q 533 822 546 860 q 499 752 521 785 q 447 693 476 719 q 383 649 417 667 l 339 710 q 407 765 376 731 q 447 849 438 800 l 424 853 z "},"•":{"ha":506,"x_min":76,"x_max":431,"o":"m 76 372 q 90 442 76 410 q 128 498 104 474 q 184 536 151 522 q 253 550 217 550 q 322 536 289 550 q 378 498 354 522 q 417 441 403 474 q 431 372 431 408 q 417 303 431 336 q 378 247 403 271 q 322 210 354 224 q 253 196 289 196 q 184 210 217 196 q 128 247 151 224 q 90 303 104 271 q 76 372 76 336 z "},"˜":{"ha":556,"x_min":49,"x_max":463,"o":"m 49 810 q 76 928 49 883 q 165 974 103 974 q 218 963 194 974 q 263 941 242 953 q 303 919 283 929 q 343 908 322 908 q 377 927 367 908 q 388 979 388 946 l 463 979 q 436 859 463 901 q 350 817 410 817 q 293 826 318 817 q 247 849 268 836 q 207 871 225 861 q 172 881 189 881 q 125 810 125 881 l 49 810 z "},"™":{"ha":1010,"x_min":56,"x_max":975,"o":"m 501 875 l 597 875 l 654 693 q 686 589 669 643 q 717 479 703 535 l 719 479 q 746 581 731 528 q 779 692 761 635 l 836 875 l 932 875 l 975 381 l 894 381 l 879 567 q 874 666 875 615 q 872 775 872 717 l 869 775 q 833 636 850 692 q 801 535 817 581 l 750 381 l 683 381 l 633 531 q 597 644 615 585 q 564 775 579 703 l 561 775 q 557 660 560 710 q 551 571 554 611 l 539 381 l 460 381 l 501 875 m 431 875 l 431 808 l 283 808 l 283 381 l 200 381 l 200 808 l 56 808 l 56 875 l 431 875 z "},"š":{"ha":578,"x_min":49,"x_max":531,"o":"m 468 522 q 385 552 424 543 q 310 561 347 561 q 222 540 251 561 q 192 482 192 518 q 214 434 192 454 q 306 394 236 414 l 347 382 q 484 310 438 354 q 531 190 531 265 q 461 42 531 99 q 271 -14 392 -14 q 149 -2 206 -14 q 49 31 93 10 l 82 139 q 168 107 122 119 q 263 94 214 94 q 356 115 322 94 q 389 179 389 136 q 359 237 389 219 q 267 274 329 254 l 224 286 q 94 360 136 315 q 51 476 51 404 q 69 554 51 519 q 119 614 88 589 q 197 653 151 639 q 296 667 242 667 q 401 657 347 667 q 500 626 454 647 l 468 522 m 81 958 l 197 958 l 290 844 l 385 958 l 506 958 l 342 768 l 242 768 l 81 958 z "},"›":{"ha":424,"x_min":56,"x_max":374,"o":"m 56 106 l 238 328 l 56 551 l 175 551 l 374 328 l 175 106 l 56 106 z "},"œ":{"ha":1176,"x_min":54,"x_max":1133,"o":"m 1133 303 l 683 303 l 683 297 q 739 146 683 197 q 892 94 794 94 q 984 103 944 94 q 1067 132 1024 113 l 1094 28 q 1001 -2 1054 10 q 882 -14 949 -14 q 724 17 794 -14 q 614 111 654 49 q 371 -14 535 -14 q 243 8 301 -14 q 143 73 185 31 q 78 178 101 115 q 54 321 54 240 q 78 468 54 404 q 146 576 103 532 q 248 644 189 621 q 376 667 307 667 q 618 546 535 667 q 857 667 696 667 q 972 646 921 667 q 1059 587 1024 625 q 1114 494 1094 549 q 1133 372 1133 439 l 1133 303 m 546 328 q 531 434 546 390 q 493 506 517 478 q 438 546 469 533 q 372 558 407 558 q 308 547 339 558 q 253 510 276 536 q 217 439 231 483 q 203 328 203 394 q 217 222 203 267 q 255 149 231 178 q 310 108 279 121 q 375 94 342 94 q 440 106 408 94 q 494 144 471 117 q 532 216 518 171 q 546 328 546 261 m 986 403 q 979 465 986 436 q 956 516 972 494 q 913 551 939 538 q 850 564 888 564 q 739 519 779 564 q 688 400 699 475 l 986 403 z "},"ž":{"ha":575,"x_min":33,"x_max":543,"o":"m 536 571 l 201 106 l 543 106 l 543 0 l 33 0 l 33 89 l 367 550 l 54 550 l 54 656 l 536 656 l 536 571 m 93 958 l 210 958 l 303 844 l 397 958 l 518 958 l 353 768 l 254 768 l 93 958 z "},"Ÿ":{"ha":756,"x_min":14,"x_max":754,"o":"m 178 875 l 386 500 l 594 875 l 754 875 l 454 365 l 454 0 l 306 0 l 306 365 l 14 875 l 178 875 m 189 1053 q 210 1104 189 1082 q 264 1126 232 1126 q 317 1104 296 1126 q 339 1053 339 1082 q 317 998 339 1021 q 264 975 296 975 q 210 998 232 975 q 189 1053 189 1021 m 432 1053 q 454 1104 432 1082 q 508 1126 476 1126 q 562 1104 540 1126 q 583 1053 583 1082 q 562 998 583 1021 q 508 975 540 975 q 454 998 476 975 q 432 1053 432 1021 z "},"¡":{"ha":349,"x_min":83,"x_max":265,"o":"m 117 353 l 232 353 l 251 -336 l 100 -336 l 117 353 m 83 569 q 111 638 83 613 q 175 664 139 664 q 239 638 213 664 q 265 569 265 613 q 239 503 265 529 q 175 476 213 476 q 111 503 139 476 q 83 569 83 529 z "},"¢":{"ha":697,"x_min":81,"x_max":611,"o":"m 442 200 q 519 209 486 200 q 581 233 553 218 l 611 131 q 483 94 557 103 l 483 -29 l 365 -29 l 365 94 q 252 127 304 103 q 162 192 200 151 q 102 292 124 233 q 81 425 81 350 q 158 653 81 567 q 365 757 236 740 l 365 889 l 483 889 l 483 757 q 608 722 543 753 l 578 618 q 511 644 549 635 q 433 654 474 654 q 282 597 338 654 q 226 431 226 540 q 245 319 226 364 q 294 249 264 275 q 363 211 325 222 q 442 200 401 200 z "},"£":{"ha":703,"x_min":75,"x_max":647,"o":"m 106 0 l 75 93 q 194 207 158 138 q 210 375 229 276 l 83 375 l 83 476 l 194 476 q 184 544 189 507 q 179 619 179 581 q 201 731 179 681 q 260 816 222 781 q 352 870 299 851 q 468 889 406 889 q 566 878 521 889 q 635 851 611 867 l 603 747 q 544 767 576 758 q 471 776 511 776 q 353 730 393 776 q 314 614 314 683 q 319 540 314 571 q 331 476 324 508 l 551 476 l 551 375 l 343 375 q 336 229 353 292 q 261 122 319 167 l 263 117 l 647 117 l 647 0 l 106 0 z "},"¤":{"ha":717,"x_min":47,"x_max":669,"o":"m 113 92 l 47 157 l 163 272 q 121 425 121 338 q 131 509 121 471 q 161 576 142 547 l 47 692 l 114 757 l 226 642 q 360 679 282 679 q 489 640 433 679 l 604 757 l 669 692 l 553 576 q 584 507 572 544 q 596 425 596 469 q 585 338 596 378 q 554 269 574 299 l 669 156 l 604 90 l 489 206 q 428 179 461 189 q 356 169 394 169 q 226 207 283 169 l 113 92 m 489 425 q 456 551 489 506 q 360 596 424 596 q 263 553 297 596 q 228 425 228 511 q 262 298 228 343 q 357 253 296 253 q 450 292 411 253 q 489 425 489 332 z "},"¥":{"ha":740,"x_min":10,"x_max":732,"o":"m 686 313 l 686 219 l 440 219 l 440 0 l 296 0 l 296 219 l 47 219 l 47 313 l 296 313 l 296 367 l 256 435 l 47 435 l 47 528 l 206 528 l 10 875 l 171 875 l 374 483 l 576 875 l 732 875 l 531 528 l 686 528 l 686 435 l 479 435 l 440 367 l 440 313 l 686 313 z "},"¦":{"ha":336,"x_min":111,"x_max":225,"o":"m 111 528 l 111 1042 l 225 1042 l 225 528 l 111 528 m 111 -250 l 111 261 l 225 261 l 225 -250 l 111 -250 z "},"§":{"ha":719,"x_min":75,"x_max":644,"o":"m 114 50 q 208 15 160 26 q 313 3 256 3 q 416 31 383 3 q 449 99 449 58 q 442 132 449 118 q 420 157 435 146 q 382 178 406 168 q 325 201 358 189 l 249 229 q 120 307 165 260 q 75 424 75 354 q 101 521 75 479 q 163 590 126 563 q 131 690 131 631 q 148 770 131 733 q 198 834 165 807 q 278 876 231 861 q 388 892 326 892 q 596 849 506 892 l 564 749 q 481 780 519 771 q 403 789 442 789 q 301 765 335 789 q 267 699 267 740 q 273 665 267 679 q 294 640 279 651 q 333 618 308 629 q 394 594 358 607 l 469 567 q 599 489 553 536 q 644 371 644 442 q 618 274 644 315 q 556 206 592 232 q 586 107 586 163 q 568 25 586 63 q 517 -40 550 -12 q 436 -84 483 -68 q 329 -100 389 -100 q 191 -88 251 -100 q 82 -53 131 -76 l 114 50 m 517 351 q 488 419 517 396 q 406 463 460 443 l 324 492 q 282 508 303 499 q 243 528 261 517 q 214 492 225 513 q 203 446 203 472 q 232 378 203 401 q 313 336 261 354 l 393 307 q 436 290 415 299 q 476 271 457 282 q 505 306 493 286 q 517 351 517 326 z "},"¨":{"ha":489,"x_min":46,"x_max":443,"o":"m 46 864 q 68 916 46 893 q 122 939 90 939 q 176 916 154 939 q 199 864 199 893 q 176 809 199 832 q 122 786 154 786 q 68 809 90 786 q 46 864 46 832 m 292 864 q 314 916 292 893 q 368 939 336 939 q 422 916 400 939 q 443 864 443 893 q 422 809 443 832 q 368 786 400 786 q 314 809 336 786 q 292 864 292 832 z "},"©":{"ha":981,"x_min":50,"x_max":931,"o":"m 526 261 q 582 268 557 261 q 631 286 607 275 l 651 217 q 518 189 592 189 q 422 204 467 189 q 344 249 378 219 q 292 325 311 279 q 272 432 272 371 q 340 611 272 546 q 518 676 408 676 q 580 672 550 676 q 647 650 610 667 l 628 579 q 576 599 601 593 q 526 604 551 604 q 412 560 456 604 q 368 435 368 515 q 382 353 368 386 q 418 299 396 319 q 469 270 440 279 q 526 261 497 261 m 493 886 q 661 858 582 886 q 800 773 740 829 q 895 633 860 717 q 931 436 931 549 q 894 244 931 328 q 797 103 858 160 q 656 17 736 46 q 488 -12 576 -12 q 319 16 399 -12 q 181 101 240 44 q 85 241 121 157 q 50 436 50 325 q 86 630 50 546 q 183 771 122 714 q 324 857 244 828 q 493 886 404 886 m 493 833 q 347 808 415 833 q 225 732 278 782 q 142 608 172 682 q 111 436 111 533 q 141 262 111 336 q 222 138 171 188 q 342 65 274 89 q 488 40 411 40 q 633 66 564 40 q 755 142 703 92 q 838 265 807 192 q 868 436 868 339 q 838 610 868 536 q 757 734 808 685 q 638 808 706 783 q 493 833 569 833 z "},"ª":{"ha":472,"x_min":44,"x_max":411,"o":"m 78 774 q 158 807 119 796 q 246 818 197 818 q 365 783 319 818 q 411 661 411 749 l 411 381 l 335 381 l 325 426 l 324 426 q 189 372 274 372 q 83 406 122 372 q 44 499 44 440 q 100 603 44 569 q 243 638 156 638 l 317 638 l 317 671 q 294 728 317 713 q 233 744 272 744 q 180 736 210 744 q 113 707 150 728 l 78 774 m 317 576 l 258 574 q 167 551 193 571 q 142 503 142 532 q 164 453 142 467 q 214 440 186 440 q 269 453 242 440 q 317 494 297 467 l 317 576 z "},"«":{"ha":688,"x_min":57,"x_max":639,"o":"m 519 106 l 321 328 l 519 551 l 639 551 l 457 328 l 639 106 l 519 106 m 256 106 l 57 328 l 256 551 l 375 551 l 193 328 l 375 106 l 256 106 z "},"®":{"ha":738,"x_min":54,"x_max":683,"o":"m 683 649 q 660 510 683 569 q 596 410 638 450 q 497 349 554 369 q 369 329 439 329 q 242 349 300 329 q 143 408 185 369 q 78 505 101 447 q 54 638 54 563 q 77 774 54 715 q 142 873 100 833 q 240 933 183 913 q 367 953 297 953 q 494 933 436 953 q 594 875 553 914 q 660 780 636 836 q 683 649 683 724 m 632 643 q 610 763 632 713 q 553 847 589 814 q 469 897 517 881 q 367 913 421 913 q 265 897 313 913 q 183 850 218 882 q 126 767 147 818 q 106 643 106 715 q 125 522 106 574 q 179 435 144 469 q 263 385 214 401 q 369 368 311 368 q 471 384 424 368 q 554 433 518 400 q 611 519 590 467 q 632 643 632 571 m 253 818 l 392 818 q 478 788 449 818 q 508 713 508 758 q 487 646 508 671 q 439 610 465 621 l 529 467 l 457 467 l 378 600 l 313 600 l 313 467 l 253 467 l 253 818 m 313 647 l 368 647 q 424 662 401 647 q 446 710 446 676 q 428 755 446 742 q 376 768 410 768 l 313 768 l 313 647 z "},"°":{"ha":547,"x_min":47,"x_max":503,"o":"m 503 649 q 442 473 503 538 q 274 408 382 408 q 109 473 171 408 q 47 649 47 538 q 63 747 47 703 q 110 823 79 792 q 183 872 140 854 q 278 889 225 889 q 369 872 328 889 q 440 823 411 854 q 486 747 469 792 q 503 649 503 703 m 403 649 q 374 765 403 719 q 278 810 344 810 q 180 767 213 810 q 147 649 147 725 q 178 531 147 575 q 274 488 210 488 q 367 526 331 488 q 403 649 403 565 z "},"±":{"ha":661,"x_min":50,"x_max":611,"o":"m 564 94 l 564 0 l 86 0 l 86 94 l 564 94 m 611 521 l 611 425 l 379 425 l 379 196 l 282 196 l 282 425 l 50 425 l 50 521 l 282 521 l 282 750 l 379 750 l 379 521 l 611 521 z "},"´":{"ha":351,"x_min":43,"x_max":293,"o":"m 143 768 l 43 768 l 151 993 l 293 993 l 143 768 z "},"¶":{"ha":788,"x_min":49,"x_max":683,"o":"m 585 -249 l 585 785 l 458 785 l 458 -249 l 358 -249 l 358 353 q 126 424 203 353 q 49 618 49 496 q 72 737 49 686 q 136 822 94 788 q 235 872 178 856 q 363 889 293 889 l 683 889 l 683 -249 l 585 -249 z "},"¸":{"ha":397,"x_min":79,"x_max":342,"o":"m 176 0 l 258 0 l 224 -65 q 312 -96 282 -69 q 342 -162 342 -122 q 329 -213 342 -192 q 295 -249 317 -235 q 245 -271 274 -264 q 185 -278 217 -278 q 124 -272 153 -278 q 79 -260 96 -267 l 97 -196 q 172 -208 132 -208 q 226 -197 207 -208 q 246 -162 246 -186 q 219 -122 246 -135 q 126 -108 193 -108 l 176 0 z "},"º":{"ha":879,"x_min":0,"x_max":0,"o":""},"»":{"ha":688,"x_min":56,"x_max":638,"o":"m 56 106 l 238 328 l 56 551 l 175 551 l 374 328 l 175 106 l 56 106 m 319 106 l 501 328 l 319 551 l 439 551 l 638 328 l 439 106 l 319 106 z "},"¿":{"ha":607,"x_min":79,"x_max":551,"o":"m 347 -346 q 233 -328 283 -346 q 149 -280 183 -311 q 97 -206 115 -249 q 79 -112 79 -162 q 120 20 79 -39 q 215 131 161 79 q 303 220 274 185 q 333 301 333 256 q 331 332 333 318 q 322 365 329 346 l 442 385 q 453 342 449 365 q 458 296 458 319 q 451 240 458 265 q 428 190 443 214 q 392 140 414 165 q 343 86 371 115 q 296 38 318 60 q 258 -8 274 15 q 234 -54 243 -31 q 225 -107 225 -78 q 233 -152 225 -131 q 256 -190 240 -174 q 298 -217 272 -207 q 360 -226 324 -226 q 426 -217 393 -226 q 494 -183 460 -208 l 551 -286 q 456 -331 511 -315 q 347 -346 401 -346 m 461 567 q 434 500 461 526 q 369 474 407 474 q 306 500 333 474 q 279 567 279 526 q 306 634 279 608 q 369 660 333 660 q 434 634 407 660 q 461 567 461 608 z "},"À":{"ha":835,"x_min":4,"x_max":831,"o":"m 208 1151 l 371 1151 l 482 979 l 364 979 l 208 1151 m 282 343 l 547 343 l 496 485 q 455 594 472 543 q 418 710 438 644 l 415 710 q 376 597 394 649 q 335 483 358 544 l 282 343 m 349 875 l 490 875 l 831 0 l 675 0 l 588 229 l 244 229 l 158 0 l 4 0 l 349 875 z "},"Á":{"ha":835,"x_min":4,"x_max":831,"o":"m 472 979 l 354 979 l 465 1151 l 628 1151 l 472 979 m 282 343 l 547 343 l 496 485 q 455 594 472 543 q 418 710 438 644 l 415 710 q 376 597 394 649 q 335 483 358 544 l 282 343 m 349 875 l 490 875 l 831 0 l 675 0 l 588 229 l 244 229 l 158 0 l 4 0 l 349 875 z "},"Â":{"ha":835,"x_min":4,"x_max":831,"o":"m 363 1161 l 472 1161 l 642 979 l 521 979 l 417 1089 l 313 979 l 196 979 l 363 1161 m 282 343 l 547 343 l 496 485 q 455 594 472 543 q 418 710 438 644 l 415 710 q 376 597 394 649 q 335 483 358 544 l 282 343 m 349 875 l 490 875 l 831 0 l 675 0 l 588 229 l 244 229 l 158 0 l 4 0 l 349 875 z "},"Ã":{"ha":835,"x_min":4,"x_max":831,"o":"m 203 979 q 233 1090 203 1044 q 325 1136 263 1136 q 375 1127 353 1136 q 417 1107 397 1118 q 456 1087 438 1096 q 496 1078 475 1078 q 533 1097 522 1078 q 547 1140 544 1117 l 624 1140 q 616 1081 624 1108 q 594 1031 608 1053 q 558 996 579 1008 q 507 983 536 983 q 453 992 478 983 q 406 1012 428 1001 q 366 1031 385 1022 q 331 1040 347 1040 q 292 1022 303 1040 q 279 979 282 1004 l 203 979 m 282 343 l 547 343 l 496 485 q 455 594 472 543 q 418 710 438 644 l 415 710 q 376 597 394 649 q 335 483 358 544 l 282 343 m 349 875 l 490 875 l 831 0 l 675 0 l 588 229 l 244 229 l 158 0 l 4 0 l 349 875 z "},"Ä":{"ha":835,"x_min":4,"x_max":831,"o":"m 219 1053 q 241 1104 219 1082 q 294 1126 263 1126 q 348 1104 326 1126 q 369 1053 369 1082 q 348 998 369 1021 q 294 975 326 975 q 241 998 263 975 q 219 1053 219 1021 m 463 1053 q 485 1104 463 1082 q 539 1126 507 1126 q 592 1104 571 1126 q 614 1053 614 1082 q 592 998 614 1021 q 539 975 571 975 q 485 998 507 975 q 463 1053 463 1021 m 282 343 l 547 343 l 496 485 q 455 594 472 543 q 418 710 438 644 l 415 710 q 376 597 394 649 q 335 483 358 544 l 282 343 m 349 875 l 490 875 l 831 0 l 675 0 l 588 229 l 244 229 l 158 0 l 4 0 l 349 875 z "},"Å":{"ha":835,"x_min":4,"x_max":831,"o":"m 279 1057 q 319 1147 279 1118 q 417 1175 358 1175 q 517 1147 478 1175 q 556 1057 556 1119 q 514 966 556 994 q 417 938 472 938 q 320 967 361 938 q 279 1057 279 997 m 354 1057 q 370 1007 354 1025 q 417 989 386 989 q 464 1007 447 989 q 481 1057 481 1025 q 463 1106 481 1088 q 417 1124 446 1124 q 371 1106 388 1124 q 354 1057 354 1088 m 282 343 l 547 343 l 496 485 q 455 594 472 543 q 418 710 438 644 l 415 710 q 376 597 394 649 q 335 483 358 544 l 282 343 m 349 875 l 490 875 l 831 0 l 675 0 l 588 229 l 244 229 l 158 0 l 4 0 l 349 875 z "},"Æ":{"ha":1115,"x_min":7,"x_max":1058,"o":"m 454 875 l 1054 875 l 1054 756 l 692 756 l 692 514 l 1018 514 l 1018 396 l 692 396 l 692 119 l 1058 119 l 1058 0 l 547 0 l 547 231 l 292 231 l 179 0 l 7 0 l 454 875 m 547 765 l 340 343 l 547 343 l 547 765 z "},"Ç":{"ha":782,"x_min":60,"x_max":738,"o":"m 504 106 q 617 117 572 106 q 703 149 663 129 l 735 33 q 636 1 692 14 q 501 -14 581 -11 l 479 -65 q 579 -101 550 -68 q 608 -175 608 -135 q 560 -266 608 -235 q 442 -297 513 -297 q 381 -292 410 -297 q 335 -281 353 -287 l 354 -215 q 428 -228 388 -228 q 513 -174 513 -228 q 508 -149 513 -161 q 489 -128 503 -137 q 449 -114 475 -119 q 383 -108 424 -108 l 426 -10 q 280 34 347 0 q 164 124 213 68 q 88 260 115 181 q 60 438 60 339 q 92 627 60 543 q 181 769 124 711 q 319 858 239 828 q 494 889 399 889 q 638 874 582 889 q 738 836 694 860 l 703 724 q 613 757 656 744 q 513 769 571 769 q 399 751 453 769 q 306 693 346 733 q 243 590 267 653 q 219 438 219 526 q 242 285 219 349 q 303 183 265 222 q 394 124 342 143 q 504 106 446 106 z "},"È":{"ha":710,"x_min":106,"x_max":651,"o":"m 106 875 l 647 875 l 647 756 l 254 756 l 254 514 l 611 514 l 611 396 l 254 396 l 254 119 l 651 119 l 651 0 l 106 0 l 106 875 m 232 1151 l 394 1151 l 506 979 l 389 979 l 232 1151 z "},"É":{"ha":703,"x_min":106,"x_max":651,"o":"m 106 875 l 647 875 l 647 756 l 254 756 l 254 514 l 611 514 l 611 396 l 254 396 l 254 119 l 651 119 l 651 0 l 106 0 l 106 875 m 383 979 l 265 979 l 376 1151 l 539 1151 l 383 979 z "},"Ê":{"ha":703,"x_min":106,"x_max":651,"o":"m 106 875 l 647 875 l 647 756 l 254 756 l 254 514 l 611 514 l 611 396 l 254 396 l 254 119 l 651 119 l 651 0 l 106 0 l 106 875 m 313 1161 l 422 1161 l 592 979 l 471 979 l 367 1089 l 263 979 l 146 979 l 313 1161 z "},"Ë":{"ha":703,"x_min":106,"x_max":651,"o":"m 106 875 l 647 875 l 647 756 l 254 756 l 254 514 l 611 514 l 611 396 l 254 396 l 254 119 l 651 119 l 651 0 l 106 0 l 106 875 m 181 1053 q 203 1104 181 1082 q 257 1126 225 1126 q 310 1104 288 1126 q 332 1053 332 1082 q 310 998 332 1021 q 257 975 288 975 q 203 998 225 975 q 181 1053 181 1021 m 425 1053 q 447 1104 425 1082 q 500 1126 469 1126 q 554 1104 532 1126 q 576 1053 576 1082 q 554 998 576 1021 q 500 975 532 975 q 447 998 469 975 q 425 1053 425 1021 z "},"Ì":{"ha":361,"x_min":-36,"x_max":254,"o":"m 254 875 l 254 0 l 106 0 l 106 875 l 254 875 m -36 1151 l 126 1151 l 238 979 l 119 979 l -36 1151 z "},"Í":{"ha":361,"x_min":106,"x_max":396,"o":"m 254 875 l 254 0 l 106 0 l 106 875 l 254 875 m 240 979 l 122 979 l 233 1151 l 396 1151 l 240 979 z "},"Î":{"ha":361,"x_min":-40,"x_max":406,"o":"m 254 875 l 254 0 l 106 0 l 106 875 l 254 875 m 126 1161 l 236 1161 l 406 979 l 285 979 l 181 1089 l 76 979 l -40 979 l 126 1161 z "},"Ï":{"ha":361,"x_min":-19,"x_max":375,"o":"m 254 875 l 254 0 l 106 0 l 106 875 l 254 875 m -19 1053 q 3 1104 -19 1082 q 56 1126 25 1126 q 110 1104 88 1126 q 132 1053 132 1082 q 110 998 132 1021 q 56 975 88 975 q 3 998 25 975 q -19 1053 -19 1021 m 225 1053 q 247 1104 225 1082 q 300 1126 268 1126 q 353 1104 332 1126 q 375 1053 375 1082 q 353 998 375 1021 q 300 975 332 975 q 247 998 268 975 q 225 1053 225 1021 z "},"Ð":{"ha":942,"x_min":38,"x_max":882,"o":"m 443 875 q 619 849 539 875 q 758 770 700 822 q 849 640 817 718 q 882 457 882 561 q 843 247 882 333 q 738 105 804 160 q 584 25 672 50 q 397 0 496 0 l 151 0 l 151 403 l 38 403 l 38 503 l 151 503 l 151 875 l 443 875 m 472 503 l 472 403 l 300 403 l 300 119 l 385 119 q 510 134 449 119 q 618 187 571 149 q 694 290 665 225 q 722 457 722 356 q 640 678 722 601 q 418 756 557 756 l 300 756 l 300 503 l 472 503 z "},"Ñ":{"ha":929,"x_min":106,"x_max":824,"o":"m 106 875 l 328 875 l 594 331 l 678 133 l 682 133 l 678 358 l 678 875 l 824 875 l 824 0 l 601 0 l 344 521 l 251 749 l 247 749 l 251 492 l 251 0 l 106 0 l 106 875 m 279 979 q 309 1090 279 1044 q 401 1136 339 1136 q 451 1127 429 1136 q 494 1107 474 1118 q 533 1087 514 1096 q 572 1078 551 1078 q 609 1097 597 1078 q 624 1140 621 1117 l 700 1140 q 692 1081 700 1108 q 670 1031 685 1053 q 634 996 656 1008 q 583 983 613 983 q 529 992 554 983 q 482 1012 504 1001 q 442 1031 460 1022 q 407 1040 424 1040 q 369 1022 379 1040 q 356 979 358 1004 l 279 979 z "},"Ò":{"ha":961,"x_min":61,"x_max":900,"o":"m 483 889 q 650 860 574 889 q 782 774 726 831 q 869 632 838 717 q 900 438 900 547 q 868 245 900 329 q 779 103 836 161 q 645 16 722 46 q 478 -14 568 -14 q 311 15 388 -14 q 179 101 235 44 q 92 242 124 158 q 61 438 61 326 q 93 630 61 546 q 182 772 125 714 q 316 859 239 829 q 483 889 393 889 m 221 438 q 242 290 221 353 q 298 185 263 226 q 381 123 333 143 q 483 103 429 103 q 585 123 538 103 q 666 185 632 143 q 720 290 700 226 q 740 438 740 353 q 719 588 740 525 q 663 692 699 651 q 580 753 628 733 q 478 772 532 772 q 376 752 424 772 q 295 690 329 732 q 241 585 261 649 q 221 438 221 522 m 322 1151 l 485 1151 l 596 979 l 478 979 l 322 1151 z "},"Ó":{"ha":961,"x_min":61,"x_max":900,"o":"m 483 889 q 650 860 574 889 q 782 774 726 831 q 869 632 838 717 q 900 438 900 547 q 868 245 900 329 q 779 103 836 161 q 645 16 722 46 q 478 -14 568 -14 q 311 15 388 -14 q 179 101 235 44 q 92 242 124 158 q 61 438 61 326 q 93 630 61 546 q 182 772 125 714 q 316 859 239 829 q 483 889 393 889 m 221 438 q 242 290 221 353 q 298 185 263 226 q 381 123 333 143 q 483 103 429 103 q 585 123 538 103 q 666 185 632 143 q 720 290 700 226 q 740 438 740 353 q 719 588 740 525 q 663 692 699 651 q 580 753 628 733 q 478 772 532 772 q 376 752 424 772 q 295 690 329 732 q 241 585 261 649 q 221 438 221 522 m 472 979 l 354 979 l 465 1151 l 628 1151 l 472 979 z "},"Ô":{"ha":961,"x_min":61,"x_max":900,"o":"m 483 889 q 650 860 574 889 q 782 774 726 831 q 869 632 838 717 q 900 438 900 547 q 868 245 900 329 q 779 103 836 161 q 645 16 722 46 q 478 -14 568 -14 q 311 15 388 -14 q 179 101 235 44 q 92 242 124 158 q 61 438 61 326 q 93 630 61 546 q 182 772 125 714 q 316 859 239 829 q 483 889 393 889 m 221 438 q 242 290 221 353 q 298 185 263 226 q 381 123 333 143 q 483 103 429 103 q 585 123 538 103 q 666 185 632 143 q 720 290 700 226 q 740 438 740 353 q 719 588 740 525 q 663 692 699 651 q 580 753 628 733 q 478 772 532 772 q 376 752 424 772 q 295 690 329 732 q 241 585 261 649 q 221 438 221 522 m 428 1161 l 538 1161 l 707 979 l 586 979 l 482 1089 l 378 979 l 261 979 l 428 1161 z "},"Õ":{"ha":961,"x_min":61,"x_max":900,"o":"m 483 889 q 650 860 574 889 q 782 774 726 831 q 869 632 838 717 q 900 438 900 547 q 868 245 900 329 q 779 103 836 161 q 645 16 722 46 q 478 -14 568 -14 q 311 15 388 -14 q 179 101 235 44 q 92 242 124 158 q 61 438 61 326 q 93 630 61 546 q 182 772 125 714 q 316 859 239 829 q 483 889 393 889 m 221 438 q 242 290 221 353 q 298 185 263 226 q 381 123 333 143 q 483 103 429 103 q 585 123 538 103 q 666 185 632 143 q 720 290 700 226 q 740 438 740 353 q 719 588 740 525 q 663 692 699 651 q 580 753 628 733 q 478 772 532 772 q 376 752 424 772 q 295 690 329 732 q 241 585 261 649 q 221 438 221 522 m 264 981 q 294 1091 264 1046 q 388 1136 324 1136 q 438 1127 415 1136 q 479 1108 460 1118 q 518 1088 499 1097 q 558 1079 538 1079 q 595 1098 583 1079 q 608 1140 607 1117 l 685 1140 q 677 1081 685 1110 q 655 1031 669 1053 q 619 997 640 1010 q 568 985 597 985 q 514 993 539 985 q 467 1012 489 1001 q 427 1031 446 1022 q 393 1040 408 1040 q 354 1023 365 1040 q 340 981 343 1006 l 264 981 z "},"Ö":{"ha":961,"x_min":61,"x_max":900,"o":"m 483 889 q 650 860 574 889 q 782 774 726 831 q 869 632 838 717 q 900 438 900 547 q 868 245 900 329 q 779 103 836 161 q 645 16 722 46 q 478 -14 568 -14 q 311 15 388 -14 q 179 101 235 44 q 92 242 124 158 q 61 438 61 326 q 93 630 61 546 q 182 772 125 714 q 316 859 239 829 q 483 889 393 889 m 221 438 q 242 290 221 353 q 298 185 263 226 q 381 123 333 143 q 483 103 429 103 q 585 123 538 103 q 666 185 632 143 q 720 290 700 226 q 740 438 740 353 q 719 588 740 525 q 663 692 699 651 q 580 753 628 733 q 478 772 532 772 q 376 752 424 772 q 295 690 329 732 q 241 585 261 649 q 221 438 221 522 m 282 1053 q 304 1104 282 1082 q 358 1126 326 1126 q 412 1104 390 1126 q 433 1053 433 1082 q 412 998 433 1021 q 358 975 390 975 q 304 998 326 975 q 282 1053 282 1021 m 526 1053 q 549 1104 526 1082 q 603 1126 571 1126 q 656 1104 633 1126 q 678 1053 678 1082 q 656 998 678 1021 q 603 975 633 975 q 549 998 571 975 q 526 1053 526 1021 z "},"Ø":{"ha":961,"x_min":61,"x_max":900,"o":"m 703 1042 l 768 1017 l 696 839 q 844 688 788 786 q 900 438 900 589 q 868 245 900 329 q 779 103 836 161 q 645 16 722 46 q 478 -14 568 -14 q 408 -8 443 -14 q 340 6 372 -3 l 251 -215 l 185 -186 l 274 31 q 119 183 178 83 q 61 438 61 282 q 93 630 61 546 q 182 772 125 714 q 316 859 239 829 q 483 889 393 889 q 558 883 519 889 q 629 865 596 876 l 703 1042 m 221 438 q 251 260 221 329 q 331 151 281 190 l 576 754 q 528 767 553 763 q 478 772 503 772 q 376 752 424 772 q 295 690 329 732 q 241 585 261 649 q 221 438 221 522 m 483 103 q 585 123 538 103 q 666 185 632 143 q 720 290 700 226 q 740 438 740 353 q 713 610 740 542 q 638 717 685 678 l 394 117 q 438 106 415 110 q 483 103 460 103 z "},"Ù":{"ha":899,"x_min":97,"x_max":800,"o":"m 97 875 l 246 875 l 246 351 q 294 163 246 221 q 450 104 343 104 q 603 167 556 104 q 651 335 651 231 l 651 875 l 800 875 l 800 342 q 709 73 800 160 q 450 -14 618 -14 q 191 73 285 -14 q 97 349 97 160 l 97 875 m 275 1151 l 436 1151 l 547 979 l 431 979 l 275 1151 z "},"Ú":{"ha":899,"x_min":97,"x_max":800,"o":"m 97 875 l 246 875 l 246 351 q 294 163 246 221 q 450 104 343 104 q 603 167 556 104 q 651 335 651 231 l 651 875 l 800 875 l 800 342 q 709 73 800 160 q 450 -14 618 -14 q 191 73 285 -14 q 97 349 97 160 l 97 875 m 454 979 l 338 979 l 449 1151 l 610 1151 l 454 979 z "},"Û":{"ha":899,"x_min":97,"x_max":800,"o":"m 97 875 l 246 875 l 246 351 q 294 163 246 221 q 450 104 343 104 q 603 167 556 104 q 651 335 651 231 l 651 875 l 800 875 l 800 342 q 709 73 800 160 q 450 -14 618 -14 q 191 73 285 -14 q 97 349 97 160 l 97 875 m 396 1161 l 506 1161 l 676 979 l 554 979 l 450 1089 l 346 979 l 231 979 l 396 1161 z "},"Ü":{"ha":899,"x_min":97,"x_max":800,"o":"m 97 875 l 246 875 l 246 351 q 294 163 246 221 q 450 104 343 104 q 603 167 556 104 q 651 335 651 231 l 651 875 l 800 875 l 800 342 q 709 73 800 160 q 450 -14 618 -14 q 191 73 285 -14 q 97 349 97 160 l 97 875 m 253 1053 q 275 1104 253 1082 q 328 1126 297 1126 q 382 1104 360 1126 q 404 1053 404 1082 q 382 998 404 1021 q 328 975 360 975 q 275 998 297 975 q 253 1053 253 1021 m 497 1053 q 519 1104 497 1082 q 572 1126 540 1126 q 626 1104 604 1126 q 647 1053 647 1082 q 626 998 647 1021 q 572 975 604 975 q 519 998 540 975 q 497 1053 497 1021 z "},"Ý":{"ha":740,"x_min":1,"x_max":742,"o":"m 165 875 l 374 500 l 582 875 l 742 875 l 442 365 l 442 0 l 293 0 l 293 365 l 1 875 l 165 875 m 421 979 l 303 979 l 414 1151 l 576 1151 l 421 979 z "},"Þ":{"ha":729,"x_min":97,"x_max":669,"o":"m 97 875 l 238 875 l 238 694 q 363 711 296 711 q 484 692 428 711 q 581 639 540 674 q 646 555 622 604 q 669 444 669 506 q 644 315 669 369 q 573 223 618 260 q 467 168 528 186 q 333 150 406 150 q 287 152 314 150 q 238 157 260 154 l 238 0 l 97 0 l 97 875 m 238 272 q 281 263 260 265 q 332 261 303 261 q 472 306 419 261 q 524 433 524 350 q 471 560 524 518 q 343 601 418 601 q 285 597 313 601 q 238 586 257 593 l 238 272 z "},"ß":{"ha":811,"x_min":100,"x_max":751,"o":"m 100 0 l 100 663 q 118 798 100 736 q 176 905 136 860 q 277 975 215 950 q 425 1000 339 1000 q 525 985 476 1000 q 612 940 574 969 q 673 868 650 911 q 696 769 696 825 q 688 703 696 733 q 668 649 679 672 q 566 606 597 633 q 535 533 535 578 q 560 463 535 492 q 619 410 585 435 q 714 320 676 369 q 751 199 751 271 q 685 46 751 106 q 493 -14 619 -14 q 405 -6 453 -14 q 329 17 357 3 l 361 119 q 483 94 419 94 q 577 124 546 94 q 608 199 608 154 q 583 267 608 239 q 508 331 557 294 q 424 415 456 371 q 393 528 393 458 q 432 635 393 590 q 546 704 471 681 q 553 730 551 715 q 554 765 554 744 q 516 858 554 828 q 419 889 478 889 q 345 876 378 889 q 289 835 313 864 q 253 758 265 806 q 240 643 240 711 l 240 0 l 100 0 z "},"à":{"ha":688,"x_min":47,"x_max":606,"o":"m 99 597 q 222 649 163 632 q 353 667 281 667 q 455 654 408 667 q 535 614 501 642 q 587 540 568 586 q 606 426 606 493 l 606 0 l 490 0 l 475 71 l 471 71 q 381 6 432 26 q 267 -14 329 -14 q 108 39 168 -14 q 47 179 47 92 q 69 273 47 233 q 132 339 92 313 q 228 378 172 365 q 350 392 283 392 l 461 392 l 461 442 q 428 528 461 504 q 336 553 394 553 q 255 541 300 553 q 151 497 210 529 l 99 597 m 463 297 l 375 296 q 236 261 276 293 q 196 186 196 229 q 205 140 196 158 q 229 111 214 122 q 265 95 244 100 q 306 90 285 90 q 391 112 349 90 q 463 174 433 133 l 463 297 m 192 961 l 349 961 l 446 768 l 336 768 l 192 961 z "},"á":{"ha":688,"x_min":47,"x_max":606,"o":"m 99 597 q 222 649 163 632 q 353 667 281 667 q 455 654 408 667 q 535 614 501 642 q 587 540 568 586 q 606 426 606 493 l 606 0 l 490 0 l 475 71 l 471 71 q 381 6 432 26 q 267 -14 329 -14 q 108 39 168 -14 q 47 179 47 92 q 69 273 47 233 q 132 339 92 313 q 228 378 172 365 q 350 392 283 392 l 461 392 l 461 442 q 428 528 461 504 q 336 553 394 553 q 255 541 300 553 q 151 497 210 529 l 99 597 m 463 297 l 375 296 q 236 261 276 293 q 196 186 196 229 q 205 140 196 158 q 229 111 214 122 q 265 95 244 100 q 306 90 285 90 q 391 112 349 90 q 463 174 433 133 l 463 297 m 385 768 l 275 768 l 372 961 l 529 961 l 385 768 z "},"â":{"ha":688,"x_min":47,"x_max":606,"o":"m 99 597 q 222 649 163 632 q 353 667 281 667 q 455 654 408 667 q 535 614 501 642 q 587 540 568 586 q 606 426 606 493 l 606 0 l 490 0 l 475 71 l 471 71 q 381 6 432 26 q 267 -14 329 -14 q 108 39 168 -14 q 47 179 47 92 q 69 273 47 233 q 132 339 92 313 q 228 378 172 365 q 350 392 283 392 l 461 392 l 461 442 q 428 528 461 504 q 336 553 394 553 q 255 541 300 553 q 151 497 210 529 l 99 597 m 463 297 l 375 296 q 236 261 276 293 q 196 186 196 229 q 205 140 196 158 q 229 111 214 122 q 265 95 244 100 q 306 90 285 90 q 391 112 349 90 q 463 174 433 133 l 463 297 m 564 768 l 447 768 l 354 882 l 260 768 l 139 768 l 304 958 l 403 958 l 564 768 z "},"ã":{"ha":688,"x_min":47,"x_max":606,"o":"m 99 597 q 222 649 163 632 q 353 667 281 667 q 455 654 408 667 q 535 614 501 642 q 587 540 568 586 q 606 426 606 493 l 606 0 l 490 0 l 475 71 l 471 71 q 381 6 432 26 q 267 -14 329 -14 q 108 39 168 -14 q 47 179 47 92 q 69 273 47 233 q 132 339 92 313 q 228 378 172 365 q 350 392 283 392 l 461 392 l 461 442 q 428 528 461 504 q 336 553 394 553 q 255 541 300 553 q 151 497 210 529 l 99 597 m 463 297 l 375 296 q 236 261 276 293 q 196 186 196 229 q 205 140 196 158 q 229 111 214 122 q 265 95 244 100 q 306 90 285 90 q 391 112 349 90 q 463 174 433 133 l 463 297 m 131 768 q 161 885 131 839 q 254 931 192 931 q 306 921 283 931 q 350 900 329 911 q 390 879 371 889 q 431 869 410 869 q 469 891 458 869 q 482 936 481 913 l 558 936 q 530 822 560 869 q 440 775 500 775 q 383 784 410 775 q 335 805 357 793 q 295 826 314 817 q 260 835 276 835 q 221 816 232 835 q 207 768 210 797 l 131 768 z "},"ä":{"ha":688,"x_min":47,"x_max":606,"o":"m 99 597 q 222 649 163 632 q 353 667 281 667 q 455 654 408 667 q 535 614 501 642 q 587 540 568 586 q 606 426 606 493 l 606 0 l 490 0 l 475 71 l 471 71 q 381 6 432 26 q 267 -14 329 -14 q 108 39 168 -14 q 47 179 47 92 q 69 273 47 233 q 132 339 92 313 q 228 378 172 365 q 350 392 283 392 l 461 392 l 461 442 q 428 528 461 504 q 336 553 394 553 q 255 541 300 553 q 151 497 210 529 l 99 597 m 463 297 l 375 296 q 236 261 276 293 q 196 186 196 229 q 205 140 196 158 q 229 111 214 122 q 265 95 244 100 q 306 90 285 90 q 391 112 349 90 q 463 174 433 133 l 463 297 m 160 864 q 182 916 160 893 q 236 939 204 939 q 290 916 268 939 q 313 864 313 893 q 290 809 313 832 q 236 786 268 786 q 182 809 204 786 q 160 864 160 832 m 406 864 q 428 916 406 893 q 482 939 450 939 q 535 916 514 939 q 557 864 557 893 q 535 809 557 832 q 482 786 514 786 q 428 809 450 786 q 406 864 406 832 z "},"å":{"ha":688,"x_min":47,"x_max":606,"o":"m 99 597 q 222 649 163 632 q 353 667 281 667 q 455 654 408 667 q 535 614 501 642 q 587 540 568 586 q 606 426 606 493 l 606 0 l 490 0 l 475 71 l 471 71 q 381 6 432 26 q 267 -14 329 -14 q 108 39 168 -14 q 47 179 47 92 q 69 273 47 233 q 132 339 92 313 q 228 378 172 365 q 350 392 283 392 l 461 392 l 461 442 q 428 528 461 504 q 336 553 394 553 q 255 541 300 553 q 151 497 210 529 l 99 597 m 463 297 l 375 296 q 236 261 276 293 q 196 186 196 229 q 205 140 196 158 q 229 111 214 122 q 265 95 244 100 q 306 90 285 90 q 391 112 349 90 q 463 174 433 133 l 463 297 m 225 865 q 236 918 225 896 q 266 955 247 940 q 308 976 285 969 q 358 983 332 983 q 453 955 413 983 q 493 865 493 926 q 481 813 493 835 q 451 776 469 790 q 408 753 432 761 q 358 746 383 746 q 309 753 333 746 q 266 776 285 761 q 236 814 247 792 q 225 865 225 836 m 294 865 q 311 815 294 833 q 358 797 328 797 q 406 815 389 797 q 424 865 424 833 q 406 915 424 897 q 358 933 388 933 q 312 915 329 933 q 294 865 294 897 z "},"æ":{"ha":1094,"x_min":47,"x_max":1046,"o":"m 1046 301 l 597 301 l 597 296 q 653 144 597 194 q 804 94 708 94 q 899 103 857 94 q 985 132 942 113 l 1014 28 q 919 -2 974 10 q 799 -14 865 -14 q 642 13 711 -14 q 528 103 572 40 l 524 103 q 423 17 482 49 q 272 -14 364 -14 q 181 0 222 -14 q 110 40 139 14 q 64 101 81 65 q 47 179 47 136 q 69 273 47 233 q 132 339 92 313 q 228 378 172 365 q 350 392 283 392 l 468 392 l 468 442 q 432 528 468 504 q 336 553 396 553 q 255 541 300 553 q 151 497 210 529 l 99 597 q 220 649 163 632 q 351 667 278 667 q 473 645 424 667 q 554 575 522 624 l 557 575 q 651 645 597 624 q 769 667 706 667 q 973 586 900 667 q 1046 367 1046 506 l 1046 301 m 196 186 q 205 140 196 158 q 229 111 214 122 q 265 95 244 100 q 306 90 285 90 q 405 115 358 90 q 483 188 451 139 q 471 238 475 211 q 464 297 467 265 l 375 296 q 236 261 276 293 q 196 186 196 229 m 899 394 q 892 458 899 428 q 868 513 885 489 q 826 550 851 536 q 763 564 800 564 q 650 518 693 564 q 600 393 607 472 l 899 394 z "},"ç":{"ha":625,"x_min":54,"x_max":585,"o":"m 415 94 q 494 105 460 94 q 556 129 528 115 l 585 26 q 504 -2 550 8 q 403 -14 458 -12 l 376 -65 q 465 -96 435 -69 q 494 -162 494 -122 q 482 -213 494 -192 q 448 -249 469 -235 q 398 -271 426 -264 q 338 -278 369 -278 q 277 -272 306 -278 q 232 -260 249 -267 l 250 -196 q 325 -208 285 -208 q 379 -197 360 -208 q 399 -162 399 -186 q 372 -122 399 -135 q 279 -108 346 -108 l 326 -7 q 218 28 268 3 q 131 94 168 53 q 74 194 94 136 q 54 326 54 253 q 79 467 54 404 q 150 575 104 531 q 260 643 196 619 q 400 667 324 667 q 486 660 443 667 q 582 628 529 653 l 550 524 q 415 560 486 560 q 260 500 319 560 q 200 331 200 440 q 219 219 200 264 q 268 146 238 174 q 337 106 299 118 q 415 94 375 94 z "},"è":{"ha":707,"x_min":51,"x_max":658,"o":"m 658 306 l 199 306 l 199 300 q 257 147 199 200 q 411 94 315 94 q 506 103 464 94 q 592 132 549 113 l 619 28 q 524 -2 579 10 q 401 -14 468 -14 q 267 6 331 -14 q 155 67 203 25 q 79 172 107 108 q 51 325 51 236 q 74 465 51 401 q 140 573 97 528 q 242 642 182 618 q 376 667 303 667 q 492 646 440 667 q 581 587 544 625 q 638 494 618 549 q 658 372 658 439 l 658 306 m 511 403 q 503 465 511 436 q 478 516 494 494 q 434 551 461 538 q 369 564 407 564 q 256 519 300 564 q 203 400 213 475 l 511 403 m 219 961 l 376 961 l 474 768 l 364 768 l 219 961 z "},"é":{"ha":707,"x_min":51,"x_max":658,"o":"m 658 306 l 199 306 l 199 300 q 257 147 199 200 q 411 94 315 94 q 506 103 464 94 q 592 132 549 113 l 619 28 q 524 -2 579 10 q 401 -14 468 -14 q 267 6 331 -14 q 155 67 203 25 q 79 172 107 108 q 51 325 51 236 q 74 465 51 401 q 140 573 97 528 q 242 642 182 618 q 376 667 303 667 q 492 646 440 667 q 581 587 544 625 q 638 494 618 549 q 658 372 658 439 l 658 306 m 511 403 q 503 465 511 436 q 478 516 494 494 q 434 551 461 538 q 369 564 407 564 q 256 519 300 564 q 203 400 213 475 l 511 403 m 392 768 l 282 768 l 379 961 l 536 961 l 392 768 z "},"ê":{"ha":707,"x_min":51,"x_max":658,"o":"m 658 306 l 199 306 l 199 300 q 257 147 199 200 q 411 94 315 94 q 506 103 464 94 q 592 132 549 113 l 619 28 q 524 -2 579 10 q 401 -14 468 -14 q 267 6 331 -14 q 155 67 203 25 q 79 172 107 108 q 51 325 51 236 q 74 465 51 401 q 140 573 97 528 q 242 642 182 618 q 376 667 303 667 q 492 646 440 667 q 581 587 544 625 q 638 494 618 549 q 658 372 658 439 l 658 306 m 511 403 q 503 465 511 436 q 478 516 494 494 q 434 551 461 538 q 369 564 407 564 q 256 519 300 564 q 203 400 213 475 l 511 403 m 581 768 l 464 768 l 371 882 l 276 768 l 156 768 l 321 958 l 419 958 l 581 768 z "},"ë":{"ha":707,"x_min":51,"x_max":658,"o":"m 658 306 l 199 306 l 199 300 q 257 147 199 200 q 411 94 315 94 q 506 103 464 94 q 592 132 549 113 l 619 28 q 524 -2 579 10 q 401 -14 468 -14 q 267 6 331 -14 q 155 67 203 25 q 79 172 107 108 q 51 325 51 236 q 74 465 51 401 q 140 573 97 528 q 242 642 182 618 q 376 667 303 667 q 492 646 440 667 q 581 587 544 625 q 638 494 618 549 q 658 372 658 439 l 658 306 m 511 403 q 503 465 511 436 q 478 516 494 494 q 434 551 461 538 q 369 564 407 564 q 256 519 300 564 q 203 400 213 475 l 511 403 m 174 864 q 196 916 174 893 q 250 939 218 939 q 304 916 282 939 q 326 864 326 893 q 304 809 326 832 q 250 786 282 786 q 196 809 218 786 q 174 864 174 832 m 419 864 q 442 916 419 893 q 496 939 464 939 q 549 916 528 939 q 571 864 571 893 q 549 809 571 832 q 496 786 528 786 q 442 809 464 786 q 419 864 419 832 z "},"ì":{"ha":357,"x_min":-7,"x_max":250,"o":"m 107 0 l 107 656 l 250 656 l 250 0 l 107 0 m -7 961 l 150 961 l 247 768 l 136 768 l -7 961 z "},"í":{"ha":357,"x_min":107,"x_max":365,"o":"m 107 0 l 107 656 l 250 656 l 250 0 l 107 0 m 221 768 l 111 768 l 208 961 l 365 961 l 221 768 z "},"î":{"ha":357,"x_min":-36,"x_max":388,"o":"m 107 0 l 107 656 l 250 656 l 250 0 l 107 0 m 388 768 l 271 768 l 179 882 l 85 768 l -36 768 l 128 958 l 228 958 l 388 768 z "},"ï":{"ha":357,"x_min":-25,"x_max":372,"o":"m 107 0 l 107 656 l 250 656 l 250 0 l 107 0 m -25 864 q -3 916 -25 893 q 51 939 19 939 q 105 916 83 939 q 126 864 126 893 q 105 809 126 832 q 51 786 83 786 q -3 809 19 786 q -25 864 -25 832 m 219 864 q 242 916 219 893 q 296 939 265 939 q 350 916 328 939 q 372 864 372 893 q 350 809 372 832 q 296 786 328 786 q 242 809 265 786 q 219 864 219 832 z "},"ð":{"ha":747,"x_min":54,"x_max":683,"o":"m 346 635 q 445 615 396 635 q 526 558 494 594 l 531 560 q 467 694 511 631 q 371 797 422 758 l 217 719 l 182 779 l 311 843 q 247 876 279 863 q 174 900 214 889 l 226 993 q 335 953 281 979 q 436 892 389 926 l 564 957 l 600 897 l 492 843 q 563 758 528 806 q 624 649 597 710 q 667 514 651 588 q 683 353 683 440 q 663 206 683 274 q 603 90 643 139 q 504 14 564 42 q 367 -14 444 -14 q 257 5 313 -14 q 156 63 201 24 q 83 164 111 103 q 54 311 54 225 q 77 448 54 388 q 140 550 100 508 q 232 613 179 592 q 346 635 285 635 m 369 528 q 308 517 339 528 q 253 482 278 507 q 214 416 229 457 q 199 315 199 375 q 214 211 199 253 q 254 143 229 169 q 310 106 279 117 q 374 94 342 94 q 442 111 411 94 q 497 158 474 128 q 532 228 519 188 q 544 317 544 268 q 530 406 544 367 q 492 473 515 446 q 436 514 468 500 q 369 528 404 528 z "},"ñ":{"ha":753,"x_min":89,"x_max":663,"o":"m 232 0 l 89 0 l 89 656 l 200 656 l 219 568 q 322 641 268 615 q 444 667 376 667 q 606 610 549 667 q 663 447 663 553 l 663 0 l 519 0 l 519 429 q 490 519 519 486 q 401 553 461 553 q 314 531 358 553 q 232 469 269 510 l 232 0 m 160 768 q 190 885 160 839 q 283 931 221 931 q 335 921 313 931 q 379 900 358 911 q 419 879 400 889 q 460 869 439 869 q 499 891 488 869 q 511 936 510 913 l 588 936 q 559 822 589 869 q 469 775 529 775 q 413 784 439 775 q 365 805 386 793 q 324 826 343 817 q 289 835 306 835 q 250 816 261 835 q 236 768 239 797 l 160 768 z "},"ò":{"ha":761,"x_min":54,"x_max":707,"o":"m 707 335 q 681 188 707 253 q 611 78 656 122 q 507 10 567 33 q 378 -14 447 -14 q 249 8 308 -14 q 147 73 190 31 q 78 178 103 115 q 54 321 54 240 q 80 468 54 404 q 150 576 106 532 q 254 644 194 621 q 383 667 314 667 q 512 645 453 667 q 615 582 571 624 q 683 478 658 540 q 707 335 707 415 m 558 328 q 543 434 558 390 q 503 506 528 478 q 445 546 478 533 q 379 558 413 558 q 314 547 346 558 q 257 510 282 536 q 217 439 232 483 q 203 328 203 394 q 218 222 203 267 q 258 149 233 178 q 315 108 283 121 q 382 94 347 94 q 447 106 415 94 q 504 144 479 117 q 544 216 529 171 q 558 328 558 261 m 214 961 l 371 961 l 468 768 l 358 768 l 214 961 z "},"ó":{"ha":761,"x_min":54,"x_max":707,"o":"m 707 335 q 681 188 707 253 q 611 78 656 122 q 507 10 567 33 q 378 -14 447 -14 q 249 8 308 -14 q 147 73 190 31 q 78 178 103 115 q 54 321 54 240 q 80 468 54 404 q 150 576 106 532 q 254 644 194 621 q 383 667 314 667 q 512 645 453 667 q 615 582 571 624 q 683 478 658 540 q 707 335 707 415 m 558 328 q 543 434 558 390 q 503 506 528 478 q 445 546 478 533 q 379 558 413 558 q 314 547 346 558 q 257 510 282 536 q 217 439 232 483 q 203 328 203 394 q 218 222 203 267 q 258 149 233 178 q 315 108 283 121 q 382 94 347 94 q 447 106 415 94 q 504 144 479 117 q 544 216 529 171 q 558 328 558 261 m 411 768 l 300 768 l 397 961 l 554 961 l 411 768 z "},"ô":{"ha":761,"x_min":54,"x_max":707,"o":"m 707 335 q 681 188 707 253 q 611 78 656 122 q 507 10 567 33 q 378 -14 447 -14 q 249 8 308 -14 q 147 73 190 31 q 78 178 103 115 q 54 321 54 240 q 80 468 54 404 q 150 576 106 532 q 254 644 194 621 q 383 667 314 667 q 512 645 453 667 q 615 582 571 624 q 683 478 658 540 q 707 335 707 415 m 558 328 q 543 434 558 390 q 503 506 528 478 q 445 546 478 533 q 379 558 413 558 q 314 547 346 558 q 257 510 282 536 q 217 439 232 483 q 203 328 203 394 q 218 222 203 267 q 258 149 233 178 q 315 108 283 121 q 382 94 347 94 q 447 106 415 94 q 504 144 479 117 q 544 216 529 171 q 558 328 558 261 m 590 768 l 474 768 l 381 882 l 286 768 l 165 768 l 329 958 l 429 958 l 590 768 z "},"õ":{"ha":761,"x_min":54,"x_max":707,"o":"m 707 335 q 681 188 707 253 q 611 78 656 122 q 507 10 567 33 q 378 -14 447 -14 q 249 8 308 -14 q 147 73 190 31 q 78 178 103 115 q 54 321 54 240 q 80 468 54 404 q 150 576 106 532 q 254 644 194 621 q 383 667 314 667 q 512 645 453 667 q 615 582 571 624 q 683 478 658 540 q 707 335 707 415 m 558 328 q 543 434 558 390 q 503 506 528 478 q 445 546 478 533 q 379 558 413 558 q 314 547 346 558 q 257 510 282 536 q 217 439 232 483 q 203 328 203 394 q 218 222 203 267 q 258 149 233 178 q 315 108 283 121 q 382 94 347 94 q 447 106 415 94 q 504 144 479 117 q 544 216 529 171 q 558 328 558 261 m 167 768 q 197 885 167 839 q 290 931 226 931 q 342 921 319 931 q 386 900 365 911 q 426 879 407 889 q 465 869 446 869 q 504 891 493 869 q 518 936 515 913 l 594 936 q 565 822 594 869 q 475 775 535 775 q 418 784 444 775 q 370 805 392 793 q 330 826 349 817 q 294 835 311 835 q 256 816 267 835 q 243 768 244 797 l 167 768 z "},"ö":{"ha":761,"x_min":54,"x_max":707,"o":"m 707 335 q 681 188 707 253 q 611 78 656 122 q 507 10 567 33 q 378 -14 447 -14 q 249 8 308 -14 q 147 73 190 31 q 78 178 103 115 q 54 321 54 240 q 80 468 54 404 q 150 576 106 532 q 254 644 194 621 q 383 667 314 667 q 512 645 453 667 q 615 582 571 624 q 683 478 658 540 q 707 335 707 415 m 558 328 q 543 434 558 390 q 503 506 528 478 q 445 546 478 533 q 379 558 413 558 q 314 547 346 558 q 257 510 282 536 q 217 439 232 483 q 203 328 203 394 q 218 222 203 267 q 258 149 233 178 q 315 108 283 121 q 382 94 347 94 q 447 106 415 94 q 504 144 479 117 q 544 216 529 171 q 558 328 558 261 m 176 864 q 199 916 176 893 q 253 939 221 939 q 307 916 285 939 q 329 864 329 893 q 307 809 329 832 q 253 786 285 786 q 199 809 221 786 q 176 864 176 832 m 422 864 q 444 916 422 893 q 499 939 467 939 q 552 916 531 939 q 574 864 574 893 q 552 809 574 832 q 499 786 531 786 q 444 809 467 786 q 422 864 422 832 z "},"ø":{"ha":761,"x_min":54,"x_max":707,"o":"m 507 788 l 572 769 l 529 639 q 657 528 608 603 q 707 336 706 454 q 682 189 707 254 q 613 79 657 124 q 508 10 568 35 q 379 -14 449 -14 q 300 -6 335 -14 l 261 -125 l 197 -106 l 238 14 q 104 125 154 50 q 54 319 54 200 q 79 467 54 403 q 149 576 104 532 q 253 644 193 621 q 382 667 313 667 q 465 658 424 667 l 507 788 m 378 558 q 313 547 344 558 q 256 510 281 536 q 217 438 232 483 q 203 326 203 393 q 225 202 203 250 q 282 128 247 154 l 422 554 q 378 558 401 558 m 558 328 q 537 450 558 403 q 482 522 515 497 l 343 99 q 383 94 361 94 q 448 106 417 94 q 504 145 479 118 q 544 217 529 172 q 558 328 558 261 z "},"ù":{"ha":758,"x_min":90,"x_max":668,"o":"m 525 656 l 668 656 l 668 0 l 558 0 l 540 79 l 535 79 q 447 15 500 43 q 319 -14 394 -14 q 153 44 215 -14 q 90 219 90 103 l 90 656 l 233 656 l 233 235 q 269 128 233 158 q 354 97 304 97 q 450 120 408 97 q 525 181 492 143 l 525 656 m 194 961 l 351 961 l 449 768 l 339 768 l 194 961 z "},"ú":{"ha":758,"x_min":90,"x_max":668,"o":"m 525 656 l 668 656 l 668 0 l 558 0 l 540 79 l 535 79 q 447 15 500 43 q 319 -14 394 -14 q 153 44 215 -14 q 90 219 90 103 l 90 656 l 233 656 l 233 235 q 269 128 233 158 q 354 97 304 97 q 450 120 408 97 q 525 181 492 143 l 525 656 m 415 768 l 306 768 l 403 961 l 560 961 l 415 768 z "},"û":{"ha":758,"x_min":90,"x_max":668,"o":"m 525 656 l 668 656 l 668 0 l 558 0 l 540 79 l 535 79 q 447 15 500 43 q 319 -14 394 -14 q 153 44 215 -14 q 90 219 90 103 l 90 656 l 233 656 l 233 235 q 269 128 233 158 q 354 97 304 97 q 450 120 408 97 q 525 181 492 143 l 525 656 m 590 768 l 474 768 l 381 882 l 286 768 l 165 768 l 331 958 l 429 958 l 590 768 z "},"ü":{"ha":758,"x_min":90,"x_max":668,"o":"m 525 656 l 668 656 l 668 0 l 558 0 l 540 79 l 535 79 q 447 15 500 43 q 319 -14 394 -14 q 153 44 215 -14 q 90 219 90 103 l 90 656 l 233 656 l 233 235 q 269 128 233 158 q 354 97 304 97 q 450 120 408 97 q 525 181 492 143 l 525 656 m 179 864 q 201 916 179 893 q 256 939 224 939 q 309 916 288 939 q 331 864 331 893 q 309 809 331 832 q 256 786 288 786 q 201 809 224 786 q 179 864 179 832 m 424 864 q 447 916 424 893 q 500 939 469 939 q 554 916 532 939 q 576 864 576 893 q 554 809 576 832 q 500 786 532 786 q 447 809 469 786 q 424 864 424 832 z "},"ý":{"ha":668,"x_min":11,"x_max":658,"o":"m 11 656 l 165 656 l 297 301 l 344 144 l 347 144 l 393 303 l 513 656 l 658 656 l 410 -44 q 303 -237 368 -162 q 135 -347 239 -311 l 74 -235 q 194 -159 143 -208 q 271 -31 246 -110 l 282 1 l 11 656 m 369 768 l 258 768 l 356 961 l 513 961 l 369 768 z "},"þ":{"ha":765,"x_min":93,"x_max":711,"o":"m 711 328 q 688 185 711 249 q 623 78 664 122 q 527 10 582 33 q 410 -14 472 -14 q 313 -2 354 -14 q 235 38 271 10 l 235 -226 l 93 -226 l 93 988 l 235 988 l 235 586 q 326 647 275 628 q 435 667 378 667 q 637 577 563 667 q 711 328 711 488 m 563 325 q 518 492 563 431 q 394 553 474 553 q 306 533 346 553 q 235 476 267 513 l 235 157 q 294 111 260 128 q 371 94 328 94 q 443 108 408 94 q 504 150 478 122 q 547 222 531 178 q 563 325 563 265 z "},"ÿ":{"ha":668,"x_min":11,"x_max":658,"o":"m 11 656 l 165 656 l 297 301 l 344 144 l 347 144 l 393 303 l 513 656 l 658 656 l 410 -44 q 303 -237 368 -162 q 135 -347 239 -311 l 74 -235 q 194 -159 143 -208 q 271 -31 246 -110 l 282 1 l 11 656 m 135 864 q 158 916 135 893 q 211 939 181 939 q 265 916 243 939 q 288 864 288 893 q 265 809 288 832 q 211 786 243 786 q 158 809 181 786 q 135 864 135 832 m 381 864 q 403 916 381 893 q 457 939 425 939 q 511 916 489 939 q 533 864 533 893 q 511 809 533 832 q 457 786 489 786 q 403 809 425 786 q 381 864 381 832 z "},"¬":{"ha":1510,"x_min":0,"x_max":0,"o":""},"˘":{"ha":410,"x_min":19,"x_max":393,"o":"m 114 947 q 137 879 118 904 q 207 854 156 854 q 274 878 251 854 q 300 947 296 903 l 393 947 q 345 820 393 869 q 207 771 297 771 q 122 786 157 771 q 63 826 86 801 q 30 882 40 850 q 19 947 19 914 l 114 947 z "},"ˇ":{"ha":496,"x_min":40,"x_max":465,"o":"m 40 958 l 157 958 l 250 844 l 344 958 l 465 958 l 301 768 l 201 768 l 40 958 z "},"˙":{"ha":240,"x_min":38,"x_max":201,"o":"m 38 875 q 63 931 38 907 q 119 956 88 956 q 178 931 154 956 q 201 875 201 907 q 178 815 201 839 q 119 792 154 792 q 63 815 88 792 q 38 875 38 839 z "},"˝":{"ha":439,"x_min":40,"x_max":533,"o":"m 147 768 l 40 768 l 143 961 l 296 961 l 147 768 m 383 768 l 278 768 l 381 961 l 533 961 l 383 768 z "},"¯":{"ha":404,"x_min":39,"x_max":365,"o":"m 365 917 l 365 829 l 39 829 l 39 917 l 365 917 z "},"˛":{"ha":344,"x_min":36,"x_max":299,"o":"m 257 0 q 172 -58 204 -29 q 140 -126 140 -86 q 160 -176 140 -158 q 213 -193 181 -193 q 278 -182 251 -193 l 299 -257 q 185 -286 250 -286 q 78 -251 121 -286 q 36 -151 36 -217 q 45 -101 36 -125 q 68 -59 54 -78 q 100 -25 82 -40 q 135 0 118 -10 l 257 0 z "},"˚":{"ha":342,"x_min":35,"x_max":303,"o":"m 35 865 q 46 918 35 896 q 76 955 57 940 q 118 976 94 969 q 168 983 142 983 q 263 955 224 983 q 303 865 303 926 q 291 813 303 835 q 260 776 279 790 q 217 753 242 761 q 168 746 193 746 q 119 753 143 746 q 76 776 94 761 q 46 814 57 792 q 35 865 35 836 m 104 865 q 122 815 104 833 q 168 797 139 797 q 216 815 199 797 q 233 865 233 833 q 215 915 233 897 q 168 933 197 933 q 122 915 140 933 q 104 865 104 897 z "},"Ă":{"ha":835,"x_min":4,"x_max":831,"o":"m 324 1151 q 346 1085 328 1110 q 417 1061 364 1061 q 510 1151 501 1061 l 603 1151 q 555 1026 603 1074 q 417 978 507 978 q 331 992 367 978 q 273 1031 296 1007 q 240 1087 250 1056 q 229 1151 229 1118 l 324 1151 m 282 343 l 547 343 l 496 485 q 455 594 472 543 q 418 710 438 644 l 415 710 q 376 597 394 649 q 335 483 358 544 l 282 343 m 349 875 l 490 875 l 831 0 l 675 0 l 588 229 l 244 229 l 158 0 l 4 0 l 349 875 z "},"Ā":{"ha":835,"x_min":4,"x_max":831,"o":"m 588 1072 l 588 979 l 242 979 l 242 1072 l 588 1072 m 282 343 l 547 343 l 496 485 q 455 594 472 543 q 418 710 438 644 l 415 710 q 376 597 394 649 q 335 483 358 544 l 282 343 m 349 875 l 490 875 l 831 0 l 675 0 l 588 229 l 244 229 l 158 0 l 4 0 l 349 875 z "},"Ą":{"ha":836,"x_min":4,"x_max":843,"o":"m 349 875 l 490 875 l 831 0 l 800 0 q 713 -59 740 -28 q 685 -124 685 -90 q 705 -174 685 -156 q 757 -193 725 -193 q 793 -190 776 -193 q 822 -182 810 -186 l 843 -257 q 729 -286 794 -286 q 623 -251 665 -286 q 581 -150 581 -215 q 609 -60 581 -97 q 675 0 638 -24 l 588 229 l 244 229 l 158 0 l 4 0 l 349 875 m 282 343 l 547 343 l 496 485 q 455 594 472 543 q 418 710 438 644 l 415 710 q 376 597 394 649 q 335 483 358 544 l 282 343 z "},"Ǽ":{"ha":1115,"x_min":7,"x_max":1058,"o":"m 454 875 l 1054 875 l 1054 756 l 692 756 l 692 514 l 1018 514 l 1018 396 l 692 396 l 692 119 l 1058 119 l 1058 0 l 547 0 l 547 231 l 292 231 l 179 0 l 7 0 l 454 875 m 547 765 l 340 343 l 547 343 l 547 765 m 615 979 l 497 979 l 608 1151 l 771 1151 l 615 979 z "},"Ć":{"ha":782,"x_min":60,"x_max":738,"o":"m 504 106 q 617 117 572 106 q 703 149 663 129 l 735 33 q 632 -1 690 13 q 489 -14 574 -14 q 320 16 399 -14 q 184 103 242 46 q 93 245 126 161 q 60 438 60 329 q 92 627 60 543 q 181 769 124 711 q 319 858 239 828 q 494 889 399 889 q 638 874 582 889 q 738 836 694 860 l 703 724 q 613 757 656 744 q 513 769 571 769 q 399 751 453 769 q 306 693 346 733 q 243 590 267 653 q 219 438 219 526 q 242 285 219 349 q 303 183 265 222 q 394 124 342 143 q 504 106 446 106 m 464 979 l 346 979 l 457 1151 l 619 1151 l 464 979 z "},"Č":{"ha":782,"x_min":60,"x_max":738,"o":"m 504 106 q 617 117 572 106 q 703 149 663 129 l 735 33 q 632 -1 690 13 q 489 -14 574 -14 q 320 16 399 -14 q 184 103 242 46 q 93 245 126 161 q 60 438 60 329 q 92 627 60 543 q 181 769 124 711 q 319 858 239 828 q 494 889 399 889 q 638 874 582 889 q 738 836 694 860 l 703 724 q 613 757 656 744 q 513 769 571 769 q 399 751 453 769 q 306 693 346 733 q 243 590 267 653 q 219 438 219 526 q 242 285 219 349 q 303 183 265 222 q 394 124 342 143 q 504 106 446 106 m 256 1163 l 376 1163 l 479 1050 l 582 1163 l 701 1163 l 532 981 l 422 981 l 256 1163 z "},"Ĉ":{"ha":782,"x_min":60,"x_max":738,"o":"m 504 106 q 617 117 572 106 q 703 149 663 129 l 735 33 q 632 -1 690 13 q 489 -14 574 -14 q 320 16 399 -14 q 184 103 242 46 q 93 245 126 161 q 60 438 60 329 q 92 627 60 543 q 181 769 124 711 q 319 858 239 828 q 494 889 399 889 q 638 874 582 889 q 738 836 694 860 l 703 724 q 613 757 656 744 q 513 769 571 769 q 399 751 453 769 q 306 693 346 733 q 243 590 267 653 q 219 438 219 526 q 242 285 219 349 q 303 183 265 222 q 394 124 342 143 q 504 106 446 106 m 413 1161 l 522 1161 l 692 979 l 571 979 l 467 1089 l 363 979 l 246 979 l 413 1161 z "},"Ċ":{"ha":782,"x_min":60,"x_max":738,"o":"m 504 106 q 617 117 572 106 q 703 149 663 129 l 735 33 q 632 -1 690 13 q 489 -14 574 -14 q 320 16 399 -14 q 184 103 242 46 q 93 245 126 161 q 60 438 60 329 q 92 627 60 543 q 181 769 124 711 q 319 858 239 828 q 494 889 399 889 q 638 874 582 889 q 738 836 694 860 l 703 724 q 613 757 656 744 q 513 769 571 769 q 399 751 453 769 q 306 693 346 733 q 243 590 267 653 q 219 438 219 526 q 242 285 219 349 q 303 183 265 222 q 394 124 342 143 q 504 106 446 106 m 407 1058 q 432 1115 407 1090 q 489 1139 457 1139 q 547 1115 524 1139 q 571 1058 571 1090 q 547 999 571 1024 q 489 975 524 975 q 432 999 457 975 q 407 1058 407 1024 z "},"Ď":{"ha":897,"x_min":106,"x_max":836,"o":"m 397 875 q 574 849 493 875 q 713 770 654 822 q 803 640 771 718 q 836 457 836 561 q 797 247 836 333 q 692 105 758 160 q 538 25 626 50 q 353 0 450 0 l 106 0 l 106 875 l 397 875 m 254 119 l 340 119 q 465 134 404 119 q 572 187 525 149 q 648 290 619 225 q 676 457 676 356 q 594 678 676 601 q 372 756 511 756 l 254 756 l 254 119 m 185 1163 l 303 1163 l 407 1053 l 511 1163 l 631 1163 l 461 981 l 351 981 l 185 1163 z "},"Đ":{"ha":942,"x_min":38,"x_max":882,"o":"m 443 875 q 619 849 539 875 q 758 770 700 822 q 849 640 817 718 q 882 457 882 561 q 843 247 882 333 q 738 105 804 160 q 584 25 672 50 q 397 0 496 0 l 151 0 l 151 403 l 38 403 l 38 503 l 151 503 l 151 875 l 443 875 m 472 503 l 472 403 l 300 403 l 300 119 l 385 119 q 510 134 449 119 q 618 187 571 149 q 694 290 665 225 q 722 457 722 356 q 640 678 722 601 q 418 756 557 756 l 300 756 l 300 503 l 472 503 z "},"Ĕ":{"ha":703,"x_min":106,"x_max":651,"o":"m 106 875 l 647 875 l 647 756 l 254 756 l 254 514 l 611 514 l 611 396 l 254 396 l 254 119 l 651 119 l 651 0 l 106 0 l 106 875 m 296 1164 q 319 1098 300 1122 q 389 1074 338 1074 q 456 1097 433 1074 q 482 1164 478 1119 l 575 1164 q 527 1038 575 1086 q 389 990 479 990 q 303 1005 339 990 q 245 1044 268 1019 q 212 1099 222 1068 q 201 1164 201 1131 l 296 1164 z "},"Ě":{"ha":703,"x_min":106,"x_max":651,"o":"m 106 875 l 647 875 l 647 756 l 254 756 l 254 514 l 611 514 l 611 396 l 254 396 l 254 119 l 651 119 l 651 0 l 106 0 l 106 875 m 444 981 l 335 981 l 168 1163 l 289 1163 l 392 1050 l 494 1163 l 614 1163 l 444 981 z "},"Ė":{"ha":703,"x_min":106,"x_max":651,"o":"m 106 875 l 647 875 l 647 756 l 254 756 l 254 514 l 611 514 l 611 396 l 254 396 l 254 119 l 651 119 l 651 0 l 106 0 l 106 875 m 313 1058 q 338 1115 313 1090 q 394 1139 363 1139 q 453 1115 429 1139 q 476 1058 476 1090 q 453 999 476 1024 q 394 975 429 975 q 338 999 363 975 q 313 1058 313 1024 z "},"Ē":{"ha":703,"x_min":106,"x_max":651,"o":"m 106 875 l 647 875 l 647 756 l 254 756 l 254 514 l 611 514 l 611 396 l 254 396 l 254 119 l 651 119 l 651 0 l 106 0 l 106 875 m 549 1072 l 549 979 l 203 979 l 203 1072 l 549 1072 z "},"Ę":{"ha":703,"x_min":106,"x_max":689,"o":"m 106 875 l 647 875 l 647 756 l 254 756 l 254 514 l 611 514 l 611 396 l 254 396 l 254 119 l 651 119 l 651 0 q 565 -56 599 -26 q 532 -125 532 -86 q 551 -175 532 -157 q 603 -193 571 -193 q 639 -190 622 -193 q 669 -182 656 -186 l 689 -257 q 576 -286 643 -286 q 470 -251 513 -286 q 428 -150 428 -215 q 458 -61 428 -99 q 526 -3 488 -24 l 526 0 l 106 0 l 106 875 z "},"Ğ":{"ha":864,"x_min":60,"x_max":788,"o":"m 500 889 q 756 838 653 889 l 722 728 q 622 763 672 751 q 517 774 571 774 q 403 756 457 774 q 309 697 350 738 q 244 593 268 657 q 219 436 219 529 q 293 188 219 274 q 501 103 367 103 q 583 108 549 103 q 647 124 617 113 l 647 354 l 489 354 l 489 468 l 788 468 l 788 39 q 663 1 732 17 q 500 -14 593 -14 q 328 15 408 -14 q 188 101 247 44 q 94 242 128 158 q 60 436 60 326 q 93 631 60 546 q 185 773 126 715 q 325 860 244 831 q 500 889 406 889 m 411 1164 q 434 1098 415 1122 q 504 1074 453 1074 q 571 1097 549 1074 q 597 1164 593 1119 l 690 1164 q 642 1038 690 1086 q 504 990 594 990 q 419 1005 454 990 q 360 1044 383 1019 q 327 1099 338 1068 q 317 1164 317 1131 l 411 1164 z "},"Ĝ":{"ha":864,"x_min":60,"x_max":788,"o":"m 500 889 q 756 838 653 889 l 722 728 q 622 763 672 751 q 517 774 571 774 q 403 756 457 774 q 309 697 350 738 q 244 593 268 657 q 219 436 219 529 q 293 188 219 274 q 501 103 367 103 q 583 108 549 103 q 647 124 617 113 l 647 354 l 489 354 l 489 468 l 788 468 l 788 39 q 663 1 732 17 q 500 -14 593 -14 q 328 15 408 -14 q 188 101 247 44 q 94 242 128 158 q 60 436 60 326 q 93 631 60 546 q 185 773 126 715 q 325 860 244 831 q 500 889 406 889 m 421 1161 l 531 1161 l 700 979 l 579 979 l 475 1089 l 371 979 l 254 979 l 421 1161 z "},"Ģ":{"ha":864,"x_min":60,"x_max":788,"o":"m 500 889 q 756 838 653 889 l 722 728 q 622 763 672 751 q 517 774 571 774 q 403 756 457 774 q 309 697 350 738 q 244 593 268 657 q 219 436 219 529 q 293 188 219 274 q 501 103 367 103 q 583 108 549 103 q 647 124 617 113 l 647 354 l 489 354 l 489 468 l 788 468 l 788 39 q 663 1 732 17 q 500 -14 593 -14 q 328 15 408 -14 q 188 101 247 44 q 94 242 128 158 q 60 436 60 326 q 93 631 60 546 q 185 773 126 715 q 325 860 244 831 q 500 889 406 889 m 479 -260 q 430 -234 454 -256 q 406 -175 406 -212 q 428 -115 406 -140 q 492 -90 451 -90 q 526 -97 508 -90 q 559 -119 544 -104 q 583 -158 574 -135 q 593 -217 593 -182 q 581 -285 593 -251 q 549 -350 569 -319 q 499 -406 528 -381 q 439 -449 471 -432 l 401 -397 q 469 -337 439 -374 q 504 -265 500 -301 l 479 -260 z "},"Ġ":{"ha":864,"x_min":60,"x_max":788,"o":"m 500 889 q 756 838 653 889 l 722 728 q 622 763 672 751 q 517 774 571 774 q 403 756 457 774 q 309 697 350 738 q 244 593 268 657 q 219 436 219 529 q 293 188 219 274 q 501 103 367 103 q 583 108 549 103 q 647 124 617 113 l 647 354 l 489 354 l 489 468 l 788 468 l 788 39 q 663 1 732 17 q 500 -14 593 -14 q 328 15 408 -14 q 188 101 247 44 q 94 242 128 158 q 60 436 60 326 q 93 631 60 546 q 185 773 126 715 q 325 860 244 831 q 500 889 406 889 m 418 1058 q 443 1115 418 1090 q 500 1139 468 1139 q 558 1115 535 1139 q 582 1058 582 1090 q 558 999 582 1024 q 500 975 535 975 q 443 999 468 975 q 418 1058 418 1024 z "},"Ħ":{"ha":906,"x_min":28,"x_max":879,"o":"m 111 0 l 111 671 l 28 671 l 28 767 l 111 767 l 111 875 l 260 875 l 260 767 l 647 767 l 647 875 l 796 875 l 796 767 l 879 767 l 879 671 l 796 671 l 796 0 l 647 0 l 647 392 l 260 392 l 260 0 l 111 0 m 647 514 l 647 671 l 260 671 l 260 514 l 647 514 z "},"Ĥ":{"ha":896,"x_min":106,"x_max":790,"o":"m 106 0 l 106 875 l 254 875 l 254 514 l 642 514 l 642 875 l 790 875 l 790 0 l 642 0 l 642 392 l 254 392 l 254 0 l 106 0 m 397 1161 l 507 1161 l 676 979 l 556 979 l 451 1089 l 347 979 l 231 979 l 397 1161 z "},"Ĭ":{"ha":361,"x_min":-6,"x_max":368,"o":"m 254 875 l 254 0 l 106 0 l 106 875 l 254 875 m 89 1151 q 112 1085 93 1110 q 183 1061 131 1061 q 249 1084 228 1061 q 275 1151 271 1107 l 368 1151 q 320 1026 368 1074 q 182 978 272 978 q 97 992 132 978 q 38 1031 61 1007 q 5 1087 15 1056 q -6 1151 -6 1118 l 89 1151 z "},"İ":{"ha":361,"x_min":96,"x_max":260,"o":"m 254 875 l 254 0 l 106 0 l 106 875 l 254 875 m 96 1058 q 121 1115 96 1090 q 178 1139 146 1139 q 236 1115 213 1139 q 260 1058 260 1090 q 236 999 260 1024 q 178 975 213 975 q 121 999 146 975 q 96 1058 96 1024 z "},"Ī":{"ha":361,"x_min":10,"x_max":356,"o":"m 254 875 l 254 0 l 106 0 l 106 875 l 254 875 m 356 1072 l 356 979 l 10 979 l 10 1072 l 356 1072 z "},"Į":{"ha":361,"x_min":11,"x_max":274,"o":"m 254 875 l 254 0 l 225 0 q 146 -58 176 -28 q 115 -125 115 -89 q 135 -175 115 -157 q 188 -193 156 -193 q 224 -190 207 -193 q 253 -182 240 -186 l 274 -257 q 160 -286 225 -286 q 53 -249 96 -286 q 11 -147 11 -212 q 41 -57 11 -94 q 106 0 71 -19 l 106 875 l 254 875 z "},"Ĩ":{"ha":361,"x_min":-37,"x_max":383,"o":"m 254 875 l 254 0 l 106 0 l 106 875 l 254 875 m -37 981 q -8 1091 -37 1046 q 85 1136 22 1136 q 135 1127 113 1136 q 177 1108 157 1118 q 216 1088 197 1097 q 256 1079 235 1079 q 292 1098 281 1079 q 307 1140 304 1117 l 383 1140 q 376 1081 383 1110 q 353 1031 368 1053 q 317 997 339 1010 q 265 985 294 985 q 212 993 236 985 q 165 1012 188 1001 q 125 1031 143 1022 q 90 1040 107 1040 q 51 1023 63 1040 q 39 981 40 1006 l -37 981 z "},"Ĳ":{"ha":704,"x_min":106,"x_max":606,"o":"m 254 875 l 254 0 l 106 0 l 106 875 l 254 875 m 606 875 l 606 160 q 595 -6 606 58 q 546 -119 585 -71 q 435 -199 503 -178 q 297 -222 368 -221 l 297 -104 q 417 -57 376 -103 q 449 8 442 -32 q 457 92 457 47 l 457 875 l 606 875 z "},"Ĵ":{"ha":383,"x_min":-22,"x_max":438,"o":"m 286 875 l 286 160 q 275 -6 286 58 q 226 -119 264 -71 q 115 -199 182 -178 q -22 -222 49 -221 l -22 -104 q 47 -91 18 -103 q 97 -57 76 -79 q 130 8 122 -32 q 138 92 138 47 l 138 875 l 286 875 m 158 1161 l 268 1161 l 438 979 l 317 979 l 213 1089 l 108 979 l -8 979 l 158 1161 z "},"Ķ":{"ha":817,"x_min":106,"x_max":813,"o":"m 106 0 l 106 875 l 254 875 l 254 489 l 600 875 l 785 875 l 435 489 l 813 0 l 626 0 l 328 392 l 254 313 l 254 0 l 106 0 m 415 -260 q 366 -234 390 -256 q 342 -175 342 -212 q 365 -115 342 -140 q 428 -90 388 -90 q 463 -97 444 -90 q 495 -119 481 -104 q 519 -158 510 -135 q 529 -217 529 -182 q 517 -285 529 -251 q 485 -350 506 -319 q 436 -406 464 -381 q 376 -449 408 -432 l 339 -397 q 406 -337 376 -374 q 440 -265 436 -301 l 415 -260 z "},"Ĺ":{"ha":639,"x_min":106,"x_max":621,"o":"m 106 875 l 254 875 l 254 122 l 621 122 l 621 0 l 106 0 l 106 875 m 238 979 l 119 979 l 231 1151 l 393 1151 l 238 979 z "},"Ľ":{"ha":639,"x_min":106,"x_max":621,"o":"m 106 875 l 254 875 l 254 122 l 621 122 l 621 0 l 106 0 l 106 875 m 439 860 q 390 885 414 864 q 365 944 365 907 q 388 1004 365 979 q 451 1029 411 1029 q 486 1022 468 1029 q 519 1000 504 1015 q 543 961 533 985 q 553 903 553 938 q 541 834 553 868 q 508 769 529 800 q 459 713 488 739 q 399 671 431 688 l 361 722 q 430 782 400 746 q 464 854 460 818 l 439 860 z "},"Ļ":{"ha":639,"x_min":106,"x_max":621,"o":"m 106 875 l 254 875 l 254 122 l 621 122 l 621 0 l 106 0 l 106 875 m 343 -260 q 294 -234 318 -256 q 269 -175 269 -212 q 292 -115 269 -140 q 356 -90 315 -90 q 390 -97 372 -90 q 423 -119 408 -104 q 447 -158 438 -135 q 457 -217 457 -182 q 445 -285 457 -251 q 413 -350 433 -319 q 363 -406 392 -381 q 303 -449 335 -432 l 265 -397 q 333 -337 303 -374 q 368 -265 364 -301 l 343 -260 z "},"Ŀ":{"ha":639,"x_min":106,"x_max":621,"o":"m 106 875 l 254 875 l 254 122 l 621 122 l 621 0 l 106 0 l 106 875 m 357 467 q 381 531 357 504 q 443 557 406 557 q 501 531 476 557 q 525 467 525 504 q 501 404 525 431 q 443 378 476 378 q 381 404 406 378 q 357 467 357 431 z "},"Ł":{"ha":639,"x_min":-49,"x_max":621,"o":"m 106 875 l 254 875 l 254 538 l 426 682 l 481 615 l 254 426 l 254 122 l 621 122 l 621 0 l 106 0 l 106 322 l 6 239 l -49 306 l 106 435 l 106 875 z "},"Ń":{"ha":933,"x_min":106,"x_max":828,"o":"m 501 979 l 385 979 l 496 1151 l 658 1151 l 501 979 m 106 875 l 238 875 l 604 351 q 651 279 629 315 q 689 214 674 243 l 692 214 q 685 419 685 317 q 685 625 685 521 l 685 875 l 828 875 l 828 0 l 696 0 l 339 507 q 288 588 313 544 q 244 667 263 632 l 242 667 q 249 452 249 558 q 249 239 249 346 l 249 0 l 106 0 l 106 875 z "},"Ň":{"ha":933,"x_min":106,"x_max":828,"o":"m 533 981 l 424 981 l 257 1163 l 378 1163 l 481 1050 l 583 1163 l 703 1163 l 533 981 m 106 875 l 238 875 l 604 351 q 651 279 629 315 q 689 214 674 243 l 692 214 q 685 419 685 317 q 685 625 685 521 l 685 875 l 828 875 l 828 0 l 696 0 l 339 507 q 288 588 313 544 q 244 667 263 632 l 242 667 q 249 452 249 558 q 249 239 249 346 l 249 0 l 106 0 l 106 875 z "},"Ņ":{"ha":933,"x_min":106,"x_max":828,"o":"m 440 -260 q 391 -234 415 -256 q 367 -175 367 -212 q 390 -115 367 -140 q 453 -90 413 -90 q 488 -97 469 -90 q 520 -119 506 -104 q 544 -158 535 -135 q 554 -217 554 -182 q 542 -285 554 -251 q 510 -350 531 -319 q 460 -406 489 -381 q 400 -449 432 -432 l 363 -397 q 431 -337 400 -374 q 465 -265 461 -301 l 440 -260 m 106 875 l 238 875 l 604 351 q 651 279 629 315 q 689 214 674 243 l 692 214 q 685 419 685 317 q 685 625 685 521 l 685 875 l 828 875 l 828 0 l 696 0 l 339 507 q 288 588 313 544 q 244 667 263 632 l 242 667 q 249 452 249 558 q 249 239 249 346 l 249 0 l 106 0 l 106 875 z "},"Ŏ":{"ha":961,"x_min":61,"x_max":900,"o":"m 483 889 q 650 860 574 889 q 782 774 726 831 q 869 632 838 717 q 900 438 900 547 q 868 245 900 329 q 779 103 836 161 q 645 16 722 46 q 478 -14 568 -14 q 311 15 388 -14 q 179 101 235 44 q 92 242 124 158 q 61 438 61 326 q 93 630 61 546 q 182 772 125 714 q 316 859 239 829 q 483 889 393 889 m 221 438 q 242 290 221 353 q 298 185 263 226 q 381 123 333 143 q 483 103 429 103 q 585 123 538 103 q 666 185 632 143 q 720 290 700 226 q 740 438 740 353 q 719 588 740 525 q 663 692 699 651 q 580 753 628 733 q 478 772 532 772 q 376 752 424 772 q 295 690 329 732 q 241 585 261 649 q 221 438 221 522 m 386 1151 q 408 1085 390 1110 q 479 1061 426 1061 q 572 1151 564 1061 l 665 1151 q 617 1026 665 1074 q 479 978 569 978 q 394 992 429 978 q 335 1031 358 1007 q 302 1087 313 1056 q 292 1151 292 1118 l 386 1151 z "},"Ő":{"ha":961,"x_min":61,"x_max":900,"o":"m 483 889 q 650 860 574 889 q 782 774 726 831 q 869 632 838 717 q 900 438 900 547 q 868 245 900 329 q 779 103 836 161 q 645 16 722 46 q 478 -14 568 -14 q 311 15 388 -14 q 179 101 235 44 q 92 242 124 158 q 61 438 61 326 q 93 630 61 546 q 182 772 125 714 q 316 859 239 829 q 483 889 393 889 m 221 438 q 242 290 221 353 q 298 185 263 226 q 381 123 333 143 q 483 103 429 103 q 585 123 538 103 q 666 185 632 143 q 720 290 700 226 q 740 438 740 353 q 719 588 740 525 q 663 692 699 651 q 580 753 628 733 q 478 772 532 772 q 376 752 424 772 q 295 690 329 732 q 241 585 261 649 q 221 438 221 522 m 371 979 l 257 979 l 368 1153 l 519 1153 l 371 979 m 640 979 l 526 979 l 638 1153 l 789 1153 l 640 979 z "},"Ō":{"ha":961,"x_min":61,"x_max":900,"o":"m 483 889 q 650 860 574 889 q 782 774 726 831 q 869 632 838 717 q 900 438 900 547 q 868 245 900 329 q 779 103 836 161 q 645 16 722 46 q 478 -14 568 -14 q 311 15 388 -14 q 179 101 235 44 q 92 242 124 158 q 61 438 61 326 q 93 630 61 546 q 182 772 125 714 q 316 859 239 829 q 483 889 393 889 m 221 438 q 242 290 221 353 q 298 185 263 226 q 381 123 333 143 q 483 103 429 103 q 585 123 538 103 q 666 185 632 143 q 720 290 700 226 q 740 438 740 353 q 719 588 740 525 q 663 692 699 651 q 580 753 628 733 q 478 772 532 772 q 376 752 424 772 q 295 690 329 732 q 241 585 261 649 q 221 438 221 522 m 660 1072 l 660 979 l 315 979 l 315 1072 l 660 1072 z "},"Ǿ":{"ha":961,"x_min":61,"x_max":900,"o":"m 461 979 l 344 979 l 456 1151 l 617 1151 l 461 979 m 703 1042 l 768 1017 l 696 839 q 844 688 788 786 q 900 438 900 589 q 868 245 900 329 q 779 103 836 161 q 645 16 722 46 q 478 -14 568 -14 q 408 -8 443 -14 q 340 6 372 -3 l 251 -215 l 185 -186 l 274 31 q 119 183 178 83 q 61 438 61 282 q 93 630 61 546 q 182 772 125 714 q 316 859 239 829 q 483 889 393 889 q 558 883 519 889 q 629 865 596 876 l 703 1042 m 221 438 q 251 260 221 329 q 331 151 281 190 l 576 754 q 528 767 553 763 q 478 772 503 772 q 376 752 424 772 q 295 690 329 732 q 241 585 261 649 q 221 438 221 522 m 483 103 q 585 123 538 103 q 666 185 632 143 q 720 290 700 226 q 740 438 740 353 q 713 610 740 542 q 638 717 685 678 l 394 117 q 438 106 415 110 q 483 103 460 103 z "},"Ŕ":{"ha":761,"x_min":106,"x_max":740,"o":"m 106 875 l 407 875 q 530 855 476 875 q 619 799 583 835 q 674 715 656 764 q 692 610 692 667 q 676 518 692 558 q 635 448 660 478 q 578 397 610 418 q 515 363 547 375 l 740 0 l 572 0 l 379 336 l 250 336 l 250 0 l 106 0 l 106 875 m 250 454 l 344 454 q 421 463 386 454 q 482 489 456 471 q 523 535 508 507 q 538 604 538 564 q 493 720 538 682 q 365 758 449 758 l 250 758 l 250 454 m 379 979 l 263 979 l 374 1151 l 535 1151 l 379 979 z "},"Ř":{"ha":761,"x_min":106,"x_max":740,"o":"m 106 875 l 407 875 q 530 855 476 875 q 619 799 583 835 q 674 715 656 764 q 692 610 692 667 q 676 518 692 558 q 635 448 660 478 q 578 397 610 418 q 515 363 547 375 l 740 0 l 572 0 l 379 336 l 250 336 l 250 0 l 106 0 l 106 875 m 250 454 l 344 454 q 421 463 386 454 q 482 489 456 471 q 523 535 508 507 q 538 604 538 564 q 493 720 538 682 q 365 758 449 758 l 250 758 l 250 454 m 413 981 l 303 981 l 136 1163 l 257 1163 l 360 1050 l 463 1163 l 582 1163 l 413 981 z "},"Ŗ":{"ha":761,"x_min":106,"x_max":740,"o":"m 106 875 l 407 875 q 530 855 476 875 q 619 799 583 835 q 674 715 656 764 q 692 610 692 667 q 676 518 692 558 q 635 448 660 478 q 578 397 610 418 q 515 363 547 375 l 740 0 l 572 0 l 379 336 l 250 336 l 250 0 l 106 0 l 106 875 m 250 454 l 344 454 q 421 463 386 454 q 482 489 456 471 q 523 535 508 507 q 538 604 538 564 q 493 720 538 682 q 365 758 449 758 l 250 758 l 250 454 m 385 -260 q 335 -234 360 -256 q 311 -175 311 -212 q 334 -115 311 -140 q 397 -90 357 -90 q 432 -97 414 -90 q 465 -119 450 -104 q 489 -158 479 -135 q 499 -217 499 -182 q 487 -285 499 -251 q 454 -350 475 -319 q 405 -406 433 -381 q 344 -449 376 -432 l 307 -397 q 375 -337 344 -374 q 410 -265 406 -301 l 385 -260 z "},"Ś":{"ha":715,"x_min":60,"x_max":658,"o":"m 364 889 q 614 836 507 889 l 579 718 q 472 759 521 746 q 372 772 422 772 q 254 740 297 772 q 211 651 211 708 q 244 572 211 601 q 353 519 278 543 l 439 492 q 606 391 553 456 q 658 242 658 326 q 636 138 658 185 q 573 57 614 90 q 474 5 532 24 q 344 -14 415 -14 q 203 -1 274 -14 q 67 44 133 13 l 101 161 q 218 117 161 132 q 338 103 275 103 q 460 135 413 103 q 507 229 507 167 q 474 308 507 274 q 347 374 442 343 l 265 400 q 115 485 169 432 q 60 635 60 539 q 138 819 60 750 q 364 889 215 889 m 354 979 l 238 979 l 349 1151 l 511 1151 l 354 979 z "},"Ş":{"ha":715,"x_min":60,"x_max":658,"o":"m 364 889 q 614 836 507 889 l 579 718 q 472 759 521 746 q 372 772 422 772 q 254 740 297 772 q 211 651 211 708 q 244 572 211 601 q 353 519 278 543 l 439 492 q 606 391 553 456 q 658 242 658 326 q 640 145 658 189 q 585 69 621 101 q 501 15 550 36 q 389 -11 451 -6 l 365 -65 q 465 -101 435 -68 q 494 -175 494 -135 q 447 -266 494 -235 q 326 -297 399 -297 q 266 -292 294 -297 q 221 -281 238 -287 l 239 -215 q 314 -228 274 -228 q 399 -174 399 -228 q 394 -149 399 -161 q 374 -128 389 -137 q 335 -114 360 -119 q 268 -108 310 -108 l 311 -12 q 187 3 249 -10 q 67 44 125 17 l 101 161 q 218 117 161 132 q 338 103 275 103 q 460 135 413 103 q 507 229 507 167 q 474 308 507 274 q 347 374 442 343 l 265 400 q 115 485 169 432 q 60 635 60 539 q 138 819 60 750 q 364 889 215 889 z "},"Ŝ":{"ha":715,"x_min":60,"x_max":658,"o":"m 364 889 q 614 836 507 889 l 579 718 q 472 759 521 746 q 372 772 422 772 q 254 740 297 772 q 211 651 211 708 q 244 572 211 601 q 353 519 278 543 l 439 492 q 606 391 553 456 q 658 242 658 326 q 636 138 658 185 q 573 57 614 90 q 474 5 532 24 q 344 -14 415 -14 q 203 -1 274 -14 q 67 44 133 13 l 101 161 q 218 117 161 132 q 338 103 275 103 q 460 135 413 103 q 507 229 507 167 q 474 308 507 274 q 347 374 442 343 l 265 400 q 115 485 169 432 q 60 635 60 539 q 138 819 60 750 q 364 889 215 889 m 301 1161 l 411 1161 l 581 979 l 460 979 l 356 1089 l 251 979 l 135 979 l 301 1161 z "},"Ș":{"ha":715,"x_min":60,"x_max":658,"o":"m 364 889 q 614 836 507 889 l 579 718 q 472 759 521 746 q 372 772 422 772 q 254 740 297 772 q 211 651 211 708 q 244 572 211 601 q 353 519 278 543 l 439 492 q 606 391 553 456 q 658 242 658 326 q 636 138 658 185 q 573 57 614 90 q 474 5 532 24 q 344 -14 415 -14 q 203 -1 274 -14 q 67 44 133 13 l 101 161 q 218 117 161 132 q 338 103 275 103 q 460 135 413 103 q 507 229 507 167 q 474 308 507 274 q 347 374 442 343 l 265 400 q 115 485 169 432 q 60 635 60 539 q 138 819 60 750 q 364 889 215 889 m 322 -260 q 273 -234 297 -256 q 249 -175 249 -212 q 272 -115 249 -140 q 335 -90 294 -90 q 369 -97 351 -90 q 402 -119 388 -104 q 426 -158 417 -135 q 436 -217 436 -182 q 424 -285 436 -251 q 392 -350 413 -319 q 342 -406 371 -381 q 282 -449 314 -432 l 244 -397 q 313 -337 283 -374 q 347 -265 343 -301 l 322 -260 z "},"Ŧ":{"ha":699,"x_min":14,"x_max":686,"o":"m 686 875 l 686 753 l 422 753 l 422 500 l 558 500 l 558 400 l 422 400 l 422 0 l 274 0 l 274 400 l 136 400 l 136 500 l 274 500 l 274 753 l 14 753 l 14 875 l 686 875 z "},"Ť":{"ha":699,"x_min":14,"x_max":686,"o":"m 686 875 l 686 753 l 422 753 l 422 0 l 274 0 l 274 753 l 14 753 l 14 875 l 686 875 m 406 981 l 296 981 l 129 1163 l 246 1163 l 350 1053 l 454 1163 l 575 1163 l 406 981 z "},"Ţ":{"ha":699,"x_min":14,"x_max":686,"o":"m 686 875 l 686 753 l 422 753 l 422 0 l 274 0 l 274 753 l 14 753 l 14 875 l 686 875 m 328 -260 q 278 -234 303 -256 q 254 -175 254 -212 q 277 -115 254 -140 q 340 -90 300 -90 q 375 -97 357 -90 q 408 -119 393 -104 q 432 -158 422 -135 q 442 -217 442 -182 q 430 -285 442 -251 q 397 -350 418 -319 q 349 -406 376 -381 q 289 -449 321 -432 l 251 -397 q 319 -337 289 -374 q 353 -265 349 -301 l 328 -260 z "},"Ŭ":{"ha":899,"x_min":97,"x_max":800,"o":"m 97 875 l 246 875 l 246 351 q 294 163 246 221 q 450 104 343 104 q 603 167 556 104 q 651 335 651 231 l 651 875 l 800 875 l 800 342 q 709 73 800 160 q 450 -14 618 -14 q 191 73 285 -14 q 97 349 97 160 l 97 875 m 357 1151 q 380 1085 361 1110 q 450 1061 399 1061 q 517 1084 494 1061 q 543 1151 539 1107 l 636 1151 q 588 1026 636 1074 q 450 978 540 978 q 365 992 400 978 q 306 1031 329 1007 q 273 1087 283 1056 q 263 1151 263 1118 l 357 1151 z "},"Ű":{"ha":899,"x_min":97,"x_max":800,"o":"m 97 875 l 246 875 l 246 351 q 294 163 246 221 q 450 104 343 104 q 603 167 556 104 q 651 335 651 231 l 651 875 l 800 875 l 800 342 q 709 73 800 160 q 450 -14 618 -14 q 191 73 285 -14 q 97 349 97 160 l 97 875 m 356 979 l 242 979 l 353 1153 l 504 1153 l 356 979 m 625 979 l 511 979 l 622 1153 l 774 1153 l 625 979 z "},"Ū":{"ha":899,"x_min":97,"x_max":800,"o":"m 97 875 l 246 875 l 246 351 q 294 163 246 221 q 450 104 343 104 q 603 167 556 104 q 651 335 651 231 l 651 875 l 800 875 l 800 342 q 709 73 800 160 q 450 -14 618 -14 q 191 73 285 -14 q 97 349 97 160 l 97 875 m 622 1072 l 622 979 l 276 979 l 276 1072 l 622 1072 z "},"Ų":{"ha":899,"x_min":97,"x_max":800,"o":"m 97 875 l 246 875 l 246 351 q 294 163 246 221 q 450 104 343 104 q 603 167 556 104 q 651 335 651 231 l 651 875 l 800 875 l 800 342 q 722 88 800 175 q 500 -11 644 0 q 427 -63 454 -37 q 400 -125 400 -89 q 420 -175 400 -157 q 472 -193 440 -193 q 508 -190 492 -193 q 538 -182 524 -186 l 558 -257 q 444 -286 510 -286 q 338 -251 381 -286 q 296 -150 296 -215 q 322 -66 296 -103 q 379 -8 347 -29 q 171 94 244 7 q 97 349 97 181 l 97 875 z "},"Ů":{"ha":899,"x_min":97,"x_max":800,"o":"m 97 875 l 246 875 l 246 351 q 294 163 246 221 q 450 104 343 104 q 603 167 556 104 q 651 335 651 231 l 651 875 l 800 875 l 800 342 q 709 73 800 160 q 450 -14 618 -14 q 191 73 285 -14 q 97 349 97 160 l 97 875 m 311 1057 q 351 1146 311 1117 q 450 1175 392 1175 q 549 1146 510 1175 q 588 1057 588 1117 q 546 967 588 996 q 450 938 504 938 q 352 968 393 938 q 311 1057 311 999 m 382 1057 q 401 1007 382 1025 q 450 989 419 989 q 499 1007 481 989 q 517 1057 517 1025 q 498 1106 517 1088 q 450 1124 479 1124 q 401 1106 421 1124 q 382 1057 382 1088 z "},"Ũ":{"ha":899,"x_min":97,"x_max":800,"o":"m 97 875 l 246 875 l 246 351 q 294 163 246 221 q 450 104 343 104 q 603 167 556 104 q 651 335 651 231 l 651 875 l 800 875 l 800 342 q 709 73 800 160 q 450 -14 618 -14 q 191 73 285 -14 q 97 349 97 160 l 97 875 m 235 979 q 265 1090 235 1044 q 357 1136 294 1136 q 407 1127 385 1136 q 449 1107 429 1118 q 488 1087 469 1096 q 528 1078 507 1078 q 565 1097 554 1078 q 579 1140 576 1117 l 656 1140 q 648 1081 656 1108 q 626 1031 640 1053 q 590 996 611 1008 q 539 983 568 983 q 485 992 510 983 q 438 1012 460 1001 q 398 1031 417 1022 q 363 1040 379 1040 q 324 1022 335 1040 q 311 979 314 1004 l 235 979 z "},"Ẃ":{"ha":1194,"x_min":10,"x_max":1185,"o":"m 647 979 l 531 979 l 642 1151 l 804 1151 l 647 979 m 161 875 l 293 394 q 304 348 297 376 q 317 288 311 319 q 329 226 324 257 q 339 169 335 194 l 342 169 q 351 226 346 194 q 364 288 357 257 q 378 347 371 319 q 390 394 385 375 l 528 875 l 669 875 l 808 397 q 821 351 814 381 q 835 290 828 322 q 848 226 842 258 q 858 169 854 193 l 861 169 q 872 225 865 194 q 884 287 878 256 q 897 347 890 318 q 910 397 904 376 l 1035 875 l 1185 875 l 939 0 l 783 0 l 654 468 q 626 579 639 526 q 597 694 613 632 l 594 694 q 567 581 579 632 q 539 471 554 529 l 414 0 l 261 0 l 10 875 l 161 875 z "},"Ŵ":{"ha":1194,"x_min":10,"x_max":1185,"o":"m 543 1161 l 653 1161 l 824 979 l 701 979 l 597 1089 l 493 979 l 378 979 l 543 1161 m 161 875 l 293 394 q 304 348 297 376 q 317 288 311 319 q 329 226 324 257 q 339 169 335 194 l 342 169 q 351 226 346 194 q 364 288 357 257 q 378 347 371 319 q 390 394 385 375 l 528 875 l 669 875 l 808 397 q 821 351 814 381 q 835 290 828 322 q 848 226 842 258 q 858 169 854 193 l 861 169 q 872 225 865 194 q 884 287 878 256 q 897 347 890 318 q 910 397 904 376 l 1035 875 l 1185 875 l 939 0 l 783 0 l 654 468 q 626 579 639 526 q 597 694 613 632 l 594 694 q 567 581 579 632 q 539 471 554 529 l 414 0 l 261 0 l 10 875 l 161 875 z "},"Ẅ":{"ha":1194,"x_min":10,"x_max":1185,"o":"m 397 1053 q 419 1104 397 1082 q 472 1126 442 1126 q 526 1104 504 1126 q 549 1053 549 1082 q 526 998 549 1021 q 472 975 504 975 q 419 998 442 975 q 397 1053 397 1021 m 642 1053 q 663 1104 642 1082 q 717 1126 685 1126 q 770 1104 749 1126 q 792 1053 792 1082 q 770 998 792 1021 q 717 975 749 975 q 663 998 685 975 q 642 1053 642 1021 m 161 875 l 293 394 q 304 348 297 376 q 317 288 311 319 q 329 226 324 257 q 339 169 335 194 l 342 169 q 351 226 346 194 q 364 288 357 257 q 378 347 371 319 q 390 394 385 375 l 528 875 l 669 875 l 808 397 q 821 351 814 381 q 835 290 828 322 q 848 226 842 258 q 858 169 854 193 l 861 169 q 872 225 865 194 q 884 287 878 256 q 897 347 890 318 q 910 397 904 376 l 1035 875 l 1185 875 l 939 0 l 783 0 l 654 468 q 626 579 639 526 q 597 694 613 632 l 594 694 q 567 581 579 632 q 539 471 554 529 l 414 0 l 261 0 l 10 875 l 161 875 z "},"Ẁ":{"ha":1194,"x_min":10,"x_max":1185,"o":"m 396 1151 l 558 1151 l 669 979 l 551 979 l 396 1151 m 161 875 l 293 394 q 304 348 297 376 q 317 288 311 319 q 329 226 324 257 q 339 169 335 194 l 342 169 q 351 226 346 194 q 364 288 357 257 q 378 347 371 319 q 390 394 385 375 l 528 875 l 669 875 l 808 397 q 821 351 814 381 q 835 290 828 322 q 848 226 842 258 q 858 169 854 193 l 861 169 q 872 225 865 194 q 884 287 878 256 q 897 347 890 318 q 910 397 904 376 l 1035 875 l 1185 875 l 939 0 l 783 0 l 654 468 q 626 579 639 526 q 597 694 613 632 l 594 694 q 567 581 579 632 q 539 471 554 529 l 414 0 l 261 0 l 10 875 l 161 875 z "},"Ŷ":{"ha":756,"x_min":14,"x_max":754,"o":"m 178 875 l 386 500 l 594 875 l 754 875 l 454 365 l 454 0 l 306 0 l 306 365 l 14 875 l 178 875 m 331 1161 l 440 1161 l 611 979 l 489 979 l 385 1089 l 281 979 l 165 979 l 331 1161 z "},"Ỳ":{"ha":756,"x_min":14,"x_max":754,"o":"m 178 875 l 386 500 l 594 875 l 754 875 l 454 365 l 454 0 l 306 0 l 306 365 l 14 875 l 178 875 m 211 1151 l 374 1151 l 485 979 l 367 979 l 211 1151 z "},"Ź":{"ha":721,"x_min":36,"x_max":685,"o":"m 676 875 l 676 788 l 215 117 l 685 117 l 685 0 l 36 0 l 36 100 l 489 758 l 54 758 l 54 875 l 676 875 m 393 979 l 276 979 l 388 1151 l 549 1151 l 393 979 z "},"Ż":{"ha":721,"x_min":36,"x_max":685,"o":"m 676 875 l 676 788 l 215 117 l 685 117 l 685 0 l 36 0 l 36 100 l 489 758 l 54 758 l 54 875 l 676 875 m 290 1058 q 315 1115 290 1090 q 372 1139 340 1139 q 431 1115 407 1139 q 454 1058 454 1090 q 431 999 454 1024 q 372 975 407 975 q 315 999 340 975 q 290 1058 290 1024 z "},"":{"ha":669,"x_min":7,"x_max":663,"o":"m 244 265 l 424 265 l 386 368 q 359 442 372 404 q 336 513 346 481 l 333 513 q 310 442 324 481 q 282 368 296 404 l 244 265 m 263 656 l 404 656 l 663 0 l 517 0 l 458 161 l 208 161 l 147 0 l 7 0 l 263 656 z "},"":{"ha":660,"x_min":103,"x_max":610,"o":"m 358 656 q 526 610 471 656 q 581 492 581 565 q 549 403 581 439 q 467 351 518 368 q 573 294 536 335 q 610 188 610 253 q 594 115 610 149 q 547 55 578 81 q 467 15 515 29 q 357 0 419 0 l 103 0 l 103 656 l 358 656 m 244 393 l 329 393 q 404 410 374 393 q 435 472 435 428 q 410 528 435 508 q 326 547 385 547 l 244 547 l 244 393 m 244 108 l 326 108 q 426 130 392 108 q 461 200 461 151 q 437 260 461 232 q 350 288 413 288 l 244 288 l 244 108 z "},"":{"ha":632,"x_min":60,"x_max":596,"o":"m 426 94 q 505 105 471 94 q 567 129 539 115 l 596 26 q 514 -3 561 8 q 411 -14 467 -14 q 272 8 336 -14 q 161 72 208 29 q 87 178 114 114 q 60 326 60 242 q 85 467 60 404 q 157 575 111 531 q 267 643 203 619 q 411 667 332 667 q 497 660 454 667 q 593 628 540 653 l 563 524 q 426 560 497 560 q 266 500 326 560 q 206 331 206 440 q 224 219 206 264 q 274 146 243 174 q 345 106 306 118 q 426 94 385 94 z "},"":{"ha":749,"x_min":103,"x_max":690,"o":"m 343 656 q 474 639 411 656 q 585 585 538 622 q 662 488 633 547 q 690 343 690 428 q 663 188 690 253 q 587 82 635 124 q 473 20 539 40 q 332 0 407 0 l 103 0 l 103 656 l 343 656 m 246 110 l 307 110 q 386 118 344 110 q 463 151 428 126 q 522 220 499 175 q 544 339 544 265 q 485 494 544 443 q 307 546 425 546 l 246 546 l 246 110 z "},"":{"ha":618,"x_min":103,"x_max":557,"o":"m 103 656 l 554 656 l 554 547 l 243 547 l 243 390 l 524 390 l 524 283 l 243 283 l 243 108 l 557 108 l 557 0 l 103 0 l 103 656 z "},"":{"ha":590,"x_min":103,"x_max":542,"o":"m 542 656 l 542 547 l 246 547 l 246 371 l 517 371 l 517 263 l 246 263 l 246 0 l 103 0 l 103 656 l 542 656 z "},"":{"ha":704,"x_min":60,"x_max":633,"o":"m 421 94 q 468 97 444 94 q 511 107 492 100 l 511 251 l 388 251 l 388 356 l 633 356 l 633 25 q 531 -4 589 6 q 411 -14 472 -14 q 272 8 336 -14 q 161 72 208 29 q 87 177 114 114 q 60 325 60 240 q 85 467 60 404 q 157 575 111 531 q 267 643 203 619 q 411 667 332 667 q 509 660 457 667 q 614 631 561 654 l 583 526 q 508 552 550 544 q 426 560 467 560 q 265 499 324 560 q 206 329 206 438 q 224 217 206 263 q 272 145 242 172 q 341 106 303 118 q 421 94 379 94 z "},"":{"ha":769,"x_min":103,"x_max":667,"o":"m 103 0 l 103 656 l 242 656 l 242 400 l 526 400 l 526 656 l 667 656 l 667 0 l 526 0 l 526 288 l 242 288 l 242 0 l 103 0 z "},"":{"ha":349,"x_min":103,"x_max":246,"o":"m 246 656 l 246 0 l 103 0 l 103 656 l 246 656 z "},"":{"ha":349,"x_min":-6,"x_max":253,"o":"m 253 656 l 253 101 q 246 -29 253 28 q 210 -133 239 -86 q 119 -212 174 -192 q -6 -233 64 -233 l -6 -119 q 44 -110 18 -119 q 86 -74 71 -101 q 106 -9 101 -49 q 110 61 110 31 l 110 656 l 253 656 z "},"":{"ha":676,"x_min":103,"x_max":672,"o":"m 103 0 l 103 656 l 243 656 l 243 381 l 479 656 l 649 656 l 388 368 l 672 0 l 500 0 l 296 283 l 243 224 l 243 0 l 103 0 z "},"":{"ha":558,"x_min":103,"x_max":539,"o":"m 103 656 l 246 656 l 246 110 l 539 110 l 539 0 l 103 0 l 103 656 z "},"":{"ha":954,"x_min":89,"x_max":865,"o":"m 143 656 l 318 656 l 396 411 q 438 278 417 347 q 475 142 460 208 l 479 142 q 517 274 494 203 q 558 411 539 346 l 633 656 l 808 656 l 865 0 l 728 0 l 711 251 q 703 374 707 310 q 699 517 700 438 l 694 517 q 671 422 682 464 q 649 344 660 379 q 628 277 639 308 q 608 215 618 246 l 538 0 l 414 0 l 343 217 q 297 360 321 285 q 256 517 274 436 l 253 517 q 247 376 253 444 q 239 251 242 308 q 231 126 236 189 q 222 0 225 63 l 89 0 l 143 656 z "},"":{"ha":788,"x_min":103,"x_max":685,"o":"m 103 656 l 238 656 l 390 442 q 478 313 433 379 q 551 189 522 246 l 554 189 q 549 276 551 233 q 547 357 547 319 l 547 656 l 685 656 l 685 0 l 551 0 l 396 218 q 310 343 351 281 q 238 472 268 406 l 235 472 q 239 377 238 424 q 240 283 240 331 l 240 0 l 103 0 l 103 656 z "},"":{"ha":775,"x_min":61,"x_max":714,"o":"m 714 335 q 688 188 714 253 q 618 78 663 122 q 514 10 574 33 q 385 -14 454 -14 q 256 8 315 -14 q 153 73 197 31 q 85 178 110 115 q 61 321 61 240 q 87 468 61 404 q 157 576 113 532 q 261 644 201 621 q 390 667 321 667 q 519 645 460 667 q 622 582 578 624 q 690 478 665 540 q 714 335 714 415 m 565 328 q 550 434 565 390 q 510 506 535 478 q 453 546 485 533 q 386 558 421 558 q 321 547 353 558 q 264 510 289 536 q 224 439 239 483 q 210 328 210 394 q 225 222 210 267 q 265 149 240 178 q 323 108 290 121 q 389 94 356 94 q 454 106 422 94 q 511 144 486 117 q 551 216 536 171 q 565 328 565 261 z "},"":{"ha":640,"x_min":104,"x_max":603,"o":"m 104 656 l 360 656 q 453 642 408 656 q 531 602 497 628 q 583 538 564 576 q 603 451 603 500 q 576 340 603 382 q 506 273 549 297 q 412 240 464 249 q 308 232 360 232 l 247 232 l 247 0 l 104 0 l 104 656 m 246 340 l 313 340 q 363 344 338 340 q 410 360 389 349 q 444 393 431 372 q 457 447 457 414 q 444 499 457 479 q 412 529 432 518 q 367 544 392 540 q 317 547 342 547 l 246 547 l 246 340 z "},"":{"ha":744,"x_min":61,"x_max":774,"o":"m 714 332 q 693 201 714 258 q 638 101 672 143 q 556 31 603 58 q 458 -6 510 4 l 458 -10 q 501 -23 481 -14 q 542 -42 521 -32 q 586 -59 563 -51 q 640 -67 610 -67 q 697 -60 676 -67 q 736 -42 717 -53 l 774 -144 q 721 -167 754 -157 q 647 -176 688 -176 q 560 -163 599 -176 q 489 -135 522 -150 q 422 -106 456 -119 q 349 -93 389 -93 q 265 -107 300 -93 q 199 -143 231 -121 l 147 -46 q 206 -13 172 -26 q 267 6 239 0 l 267 10 q 188 50 225 22 q 122 118 150 78 q 77 211 93 158 q 61 325 61 264 q 86 471 61 407 q 156 578 111 535 q 260 644 200 622 q 389 667 319 667 q 517 645 458 667 q 620 581 576 624 q 689 476 664 539 q 714 332 714 414 m 565 325 q 550 432 565 388 q 510 504 535 476 q 452 545 485 532 q 385 558 419 558 q 319 548 351 558 q 263 511 288 538 q 224 442 239 485 q 210 332 210 399 q 224 226 210 271 q 264 151 239 181 q 321 108 289 122 q 388 93 353 93 q 453 104 421 93 q 510 142 485 115 q 550 214 535 169 q 565 325 565 258 z "},"":{"ha":638,"x_min":103,"x_max":617,"o":"m 103 656 l 358 656 q 449 643 406 656 q 524 606 492 631 q 575 542 556 581 q 594 453 594 504 q 559 331 594 378 q 463 258 524 283 l 617 0 l 460 0 l 343 229 l 247 229 l 247 0 l 103 0 l 103 656 m 246 336 l 317 336 q 414 362 376 336 q 451 444 451 388 q 416 524 451 501 q 314 547 381 547 l 246 547 l 246 336 z "},"":{"ha":596,"x_min":57,"x_max":538,"o":"m 476 522 q 394 552 432 543 q 317 561 356 561 q 228 540 258 561 q 199 482 199 518 q 203 455 199 467 q 221 433 208 443 q 256 413 233 422 q 313 394 278 404 l 354 382 q 492 310 446 354 q 538 190 538 265 q 468 42 538 99 q 278 -14 399 -14 q 156 -2 213 -14 q 57 31 100 10 l 89 139 q 176 107 129 119 q 271 94 222 94 q 363 115 329 94 q 396 179 396 136 q 367 237 396 219 q 275 274 338 254 l 232 286 q 101 358 144 315 q 58 476 58 401 q 76 554 58 519 q 126 614 94 589 q 203 653 158 639 q 303 667 249 667 q 408 657 356 667 q 507 626 461 647 l 476 522 z "},"":{"ha":557,"x_min":14,"x_max":544,"o":"m 544 656 l 544 547 l 349 547 l 349 0 l 206 0 l 206 547 l 14 547 l 14 656 l 544 656 z "},"":{"ha":768,"x_min":93,"x_max":675,"o":"m 93 656 l 236 656 l 236 313 q 247 204 236 246 q 279 138 258 163 q 329 105 300 114 q 393 96 358 96 q 497 143 463 96 q 532 299 532 190 l 532 656 l 675 656 l 675 308 q 390 -14 675 -14 q 168 65 243 -14 q 93 307 93 143 l 93 656 z "},"":{"ha":656,"x_min":6,"x_max":651,"o":"m 157 656 l 249 403 q 292 278 269 344 q 328 150 314 211 l 332 150 q 368 277 346 208 q 411 404 390 346 l 501 656 l 651 656 l 400 0 l 254 0 l 6 656 l 157 656 z "},"":{"ha":947,"x_min":11,"x_max":938,"o":"m 157 656 l 253 299 q 269 233 260 272 q 285 158 278 193 l 288 158 q 300 228 293 192 q 317 299 307 264 l 418 656 l 532 656 l 636 297 q 653 233 643 274 q 668 158 663 193 l 672 158 q 684 235 676 194 q 699 303 692 275 l 793 656 l 938 656 l 751 0 l 601 0 l 506 346 q 487 418 496 378 q 474 490 478 458 l 471 490 q 465 456 468 475 q 458 417 463 436 q 450 379 454 397 q 442 347 446 361 l 351 0 l 200 0 l 11 656 l 157 656 z "},"":{"ha":643,"x_min":10,"x_max":635,"o":"m 404 333 l 635 0 l 472 0 l 374 143 l 317 240 l 264 144 l 169 0 l 10 0 l 238 333 l 21 656 l 182 656 l 272 515 l 326 421 l 378 515 l 463 656 l 619 656 l 404 333 z "},"":{"ha":583,"x_min":1,"x_max":582,"o":"m 157 656 l 292 369 l 433 656 l 582 656 l 357 251 l 357 0 l 218 0 l 218 251 l 1 656 l 157 656 z "},"":{"ha":576,"x_min":33,"x_max":543,"o":"m 536 569 l 201 107 l 543 107 l 543 0 l 33 0 l 33 90 l 367 549 l 54 549 l 54 656 l 536 656 l 536 569 z "},"ă":{"ha":688,"x_min":47,"x_max":606,"o":"m 99 597 q 222 649 163 632 q 353 667 281 667 q 455 654 408 667 q 535 614 501 642 q 587 540 568 586 q 606 426 606 493 l 606 0 l 490 0 l 475 71 l 471 71 q 381 6 432 26 q 267 -14 329 -14 q 108 39 168 -14 q 47 179 47 92 q 69 273 47 233 q 132 339 92 313 q 228 378 172 365 q 350 392 283 392 l 461 392 l 461 442 q 428 528 461 504 q 336 553 394 553 q 255 541 300 553 q 151 497 210 529 l 99 597 m 463 297 l 375 296 q 236 261 276 293 q 196 186 196 229 q 205 140 196 158 q 229 111 214 122 q 265 95 244 100 q 306 90 285 90 q 391 112 349 90 q 463 174 433 133 l 463 297 m 268 947 q 290 879 272 904 q 361 854 308 854 q 428 878 406 854 q 454 947 450 903 l 547 947 q 499 820 547 869 q 361 771 451 771 q 276 786 311 771 q 217 826 240 801 q 184 882 194 850 q 174 947 174 914 l 268 947 z "},"ā":{"ha":688,"x_min":47,"x_max":606,"o":"m 99 597 q 222 649 163 632 q 353 667 281 667 q 455 654 408 667 q 535 614 501 642 q 587 540 568 586 q 606 426 606 493 l 606 0 l 490 0 l 475 71 l 471 71 q 381 6 432 26 q 267 -14 329 -14 q 108 39 168 -14 q 47 179 47 92 q 69 273 47 233 q 132 339 92 313 q 228 378 172 365 q 350 392 283 392 l 461 392 l 461 442 q 428 528 461 504 q 336 553 394 553 q 255 541 300 553 q 151 497 210 529 l 99 597 m 463 297 l 375 296 q 236 261 276 293 q 196 186 196 229 q 205 140 196 158 q 229 111 214 122 q 265 95 244 100 q 306 90 285 90 q 391 112 349 90 q 463 174 433 133 l 463 297 m 535 908 l 535 815 l 188 815 l 188 908 l 535 908 z "},"ą":{"ha":689,"x_min":47,"x_max":665,"o":"m 594 0 q 532 -60 556 -28 q 508 -126 508 -92 q 528 -176 508 -158 q 579 -193 547 -193 q 644 -182 618 -193 l 665 -257 q 551 -286 619 -286 q 445 -251 488 -286 q 403 -151 403 -217 q 432 -60 403 -99 q 490 0 461 -22 l 475 71 l 471 71 q 381 6 432 26 q 267 -14 329 -14 q 108 39 168 -14 q 47 179 47 92 q 69 273 47 233 q 132 339 92 313 q 228 378 172 365 q 350 392 283 392 l 461 392 l 461 442 q 428 528 461 504 q 336 553 394 553 q 255 541 300 553 q 151 497 210 529 l 99 597 q 222 649 163 632 q 353 667 281 667 q 455 654 408 667 q 535 614 501 642 q 587 540 568 586 q 606 426 606 493 l 606 0 l 594 0 m 463 297 l 375 296 q 236 261 276 293 q 196 186 196 229 q 205 140 196 158 q 229 111 214 122 q 265 95 244 100 q 306 90 285 90 q 391 112 349 90 q 463 174 433 133 l 463 297 z "},"ǽ":{"ha":1094,"x_min":47,"x_max":1046,"o":"m 594 768 l 485 768 l 582 961 l 739 961 l 594 768 m 1046 301 l 597 301 l 597 296 q 653 144 597 194 q 804 94 708 94 q 899 103 857 94 q 985 132 942 113 l 1014 28 q 919 -2 974 10 q 799 -14 865 -14 q 642 13 711 -14 q 528 103 572 40 l 524 103 q 423 17 482 49 q 272 -14 364 -14 q 181 0 222 -14 q 110 40 139 14 q 64 101 81 65 q 47 179 47 136 q 69 273 47 233 q 132 339 92 313 q 228 378 172 365 q 350 392 283 392 l 468 392 l 468 442 q 432 528 468 504 q 336 553 396 553 q 255 541 300 553 q 151 497 210 529 l 99 597 q 220 649 163 632 q 351 667 278 667 q 473 645 424 667 q 554 575 522 624 l 557 575 q 651 645 597 624 q 769 667 706 667 q 973 586 900 667 q 1046 367 1046 506 l 1046 301 m 196 186 q 205 140 196 158 q 229 111 214 122 q 265 95 244 100 q 306 90 285 90 q 405 115 358 90 q 483 188 451 139 q 471 238 475 211 q 464 297 467 265 l 375 296 q 236 261 276 293 q 196 186 196 229 m 899 394 q 892 458 899 428 q 868 513 885 489 q 826 550 851 536 q 763 564 800 564 q 650 518 693 564 q 600 393 607 472 l 899 394 z "},"ć":{"ha":625,"x_min":54,"x_max":585,"o":"m 415 94 q 494 105 460 94 q 556 129 528 115 l 585 26 q 503 -3 550 8 q 400 -14 456 -14 q 265 8 328 -14 q 155 72 201 29 q 81 178 108 114 q 54 326 54 242 q 79 467 54 404 q 150 575 104 531 q 260 643 196 619 q 400 667 324 667 q 486 660 443 667 q 582 628 529 653 l 550 524 q 415 560 486 560 q 260 500 319 560 q 200 331 200 440 q 219 219 200 264 q 268 146 238 174 q 337 106 299 118 q 415 94 375 94 m 393 768 l 282 768 l 379 961 l 536 961 l 393 768 z "},"č":{"ha":625,"x_min":54,"x_max":585,"o":"m 415 94 q 494 105 460 94 q 556 129 528 115 l 585 26 q 503 -3 550 8 q 400 -14 456 -14 q 265 8 328 -14 q 155 72 201 29 q 81 178 108 114 q 54 326 54 242 q 79 467 54 404 q 150 575 104 531 q 260 643 196 619 q 400 667 324 667 q 486 660 443 667 q 582 628 529 653 l 550 524 q 415 560 486 560 q 260 500 319 560 q 200 331 200 440 q 219 219 200 264 q 268 146 238 174 q 337 106 299 118 q 415 94 375 94 m 158 958 l 275 958 l 368 844 l 463 958 l 583 958 l 419 768 l 319 768 l 158 958 z "},"ĉ":{"ha":625,"x_min":54,"x_max":585,"o":"m 415 94 q 494 105 460 94 q 556 129 528 115 l 585 26 q 503 -3 550 8 q 400 -14 456 -14 q 265 8 328 -14 q 155 72 201 29 q 81 178 108 114 q 54 326 54 242 q 79 467 54 404 q 150 575 104 531 q 260 643 196 619 q 400 667 324 667 q 486 660 443 667 q 582 628 529 653 l 550 524 q 415 560 486 560 q 260 500 319 560 q 200 331 200 440 q 219 219 200 264 q 268 146 238 174 q 337 106 299 118 q 415 94 375 94 m 572 768 l 456 768 l 363 882 l 268 768 l 147 768 l 313 958 l 411 958 l 572 768 z "},"ċ":{"ha":625,"x_min":54,"x_max":585,"o":"m 415 94 q 494 105 460 94 q 556 129 528 115 l 585 26 q 503 -3 550 8 q 400 -14 456 -14 q 265 8 328 -14 q 155 72 201 29 q 81 178 108 114 q 54 326 54 242 q 79 467 54 404 q 150 575 104 531 q 260 643 196 619 q 400 667 324 667 q 486 660 443 667 q 582 628 529 653 l 550 524 q 415 560 486 560 q 260 500 319 560 q 200 331 200 440 q 219 219 200 264 q 268 146 238 174 q 337 106 299 118 q 415 94 375 94 m 293 865 q 318 922 293 897 q 375 946 343 946 q 433 922 410 946 q 456 865 456 897 q 433 806 456 831 q 375 782 410 782 q 318 806 343 782 q 293 865 293 831 z "},"ď":{"ha":881,"x_min":54,"x_max":951,"o":"m 524 988 l 667 988 l 667 0 l 554 0 l 538 72 l 533 72 q 451 8 496 31 q 338 -14 407 -14 q 231 8 282 -14 q 140 72 179 29 q 78 179 101 115 q 54 326 54 243 q 74 467 54 404 q 133 574 94 529 q 226 642 171 618 q 351 667 281 667 q 447 651 401 667 q 524 608 492 636 l 524 988 m 524 493 q 385 560 465 560 q 315 547 349 560 q 256 507 282 535 q 214 436 229 479 q 199 331 199 393 q 213 224 199 268 q 251 150 228 179 q 306 108 275 121 q 371 94 338 94 q 458 117 419 94 q 524 179 497 139 l 524 493 m 838 857 q 788 884 813 863 q 764 942 764 906 q 787 1002 764 976 q 850 1028 810 1028 q 885 1021 867 1028 q 917 999 903 1014 q 942 959 932 983 q 951 900 951 935 q 940 833 951 867 q 907 768 928 799 q 858 712 886 738 q 797 669 829 686 l 760 721 q 828 779 797 743 q 863 851 858 815 l 838 857 z "},"·":{"ha":275,"x_min":50,"x_max":233,"o":"m 50 460 q 77 526 50 497 q 142 554 104 554 q 207 526 181 554 q 233 460 233 497 q 207 390 233 418 q 142 363 181 363 q 77 390 104 363 q 50 460 50 418 z "},"≤":{"ha":610,"x_min":56,"x_max":554,"o":"m 56 494 l 56 582 l 554 818 l 554 704 l 179 536 l 554 371 l 554 258 l 56 494 m 57 204 l 57 113 l 554 113 l 554 204 l 57 204 z "},"≥":{"ha":610,"x_min":56,"x_max":554,"o":"m 554 582 l 554 494 l 56 258 l 56 372 l 431 540 l 56 706 l 56 818 l 554 582 m 56 204 l 56 113 l 553 113 l 553 204 l 56 204 z "},"đ":{"ha":772,"x_min":54,"x_max":779,"o":"m 524 988 l 667 988 l 667 879 l 779 879 l 779 786 l 667 786 l 667 0 l 554 0 l 538 72 l 533 72 q 451 8 496 31 q 338 -14 407 -14 q 231 8 282 -14 q 140 72 179 29 q 78 179 101 115 q 54 326 54 243 q 74 467 54 404 q 133 574 94 529 q 226 642 171 618 q 351 667 281 667 q 447 651 401 667 q 524 608 492 636 l 524 786 l 367 786 l 367 879 l 524 879 l 524 988 m 524 493 q 385 560 465 560 q 315 547 349 560 q 256 507 282 535 q 214 436 229 479 q 199 331 199 393 q 213 224 199 268 q 251 150 228 179 q 306 108 275 121 q 371 94 338 94 q 458 117 419 94 q 524 179 497 139 l 524 493 z "},"ĕ":{"ha":707,"x_min":51,"x_max":658,"o":"m 658 306 l 199 306 l 199 300 q 257 147 199 200 q 411 94 315 94 q 506 103 464 94 q 592 132 549 113 l 619 28 q 524 -2 579 10 q 401 -14 468 -14 q 267 6 331 -14 q 155 67 203 25 q 79 172 107 108 q 51 325 51 236 q 74 465 51 401 q 140 573 97 528 q 242 642 182 618 q 376 667 303 667 q 492 646 440 667 q 581 587 544 625 q 638 494 618 549 q 658 372 658 439 l 658 306 m 511 403 q 503 465 511 436 q 478 516 494 494 q 434 551 461 538 q 369 564 407 564 q 256 519 300 564 q 203 400 213 475 l 511 403 m 283 947 q 306 879 288 904 q 376 854 324 854 q 443 878 421 854 q 469 947 465 903 l 563 947 q 515 820 563 869 q 376 771 467 771 q 291 786 326 771 q 233 826 256 801 q 199 882 210 850 q 189 947 189 914 l 283 947 z "},"ě":{"ha":707,"x_min":51,"x_max":658,"o":"m 658 306 l 199 306 l 199 300 q 257 147 199 200 q 411 94 315 94 q 506 103 464 94 q 592 132 549 113 l 619 28 q 524 -2 579 10 q 401 -14 468 -14 q 267 6 331 -14 q 155 67 203 25 q 79 172 107 108 q 51 325 51 236 q 74 465 51 401 q 140 573 97 528 q 242 642 182 618 q 376 667 303 667 q 492 646 440 667 q 581 587 544 625 q 638 494 618 549 q 658 372 658 439 l 658 306 m 511 403 q 503 465 511 436 q 478 516 494 494 q 434 551 461 538 q 369 564 407 564 q 256 519 300 564 q 203 400 213 475 l 511 403 m 421 768 l 321 768 l 157 958 l 278 958 l 371 844 l 465 958 l 582 958 l 421 768 z "},"ė":{"ha":707,"x_min":51,"x_max":658,"o":"m 658 306 l 199 306 l 199 300 q 257 147 199 200 q 411 94 315 94 q 506 103 464 94 q 592 132 549 113 l 619 28 q 524 -2 579 10 q 401 -14 468 -14 q 267 6 331 -14 q 155 67 203 25 q 79 172 107 108 q 51 325 51 236 q 74 465 51 401 q 140 573 97 528 q 242 642 182 618 q 376 667 303 667 q 492 646 440 667 q 581 587 544 625 q 638 494 618 549 q 658 372 658 439 l 658 306 m 511 403 q 503 465 511 436 q 478 516 494 494 q 434 551 461 538 q 369 564 407 564 q 256 519 300 564 q 203 400 213 475 l 511 403 m 289 865 q 314 922 289 897 q 371 946 339 946 q 429 922 406 946 q 453 865 453 897 q 429 806 453 831 q 371 782 406 782 q 314 806 339 782 q 289 865 289 831 z "},"ē":{"ha":707,"x_min":51,"x_max":658,"o":"m 658 306 l 199 306 l 199 300 q 257 147 199 200 q 411 94 315 94 q 506 103 464 94 q 592 132 549 113 l 619 28 q 524 -2 579 10 q 401 -14 468 -14 q 267 6 331 -14 q 155 67 203 25 q 79 172 107 108 q 51 325 51 236 q 74 465 51 401 q 140 573 97 528 q 242 642 182 618 q 376 667 303 667 q 492 646 440 667 q 581 587 544 625 q 638 494 618 549 q 658 372 658 439 l 658 306 m 511 403 q 503 465 511 436 q 478 516 494 494 q 434 551 461 538 q 369 564 407 564 q 256 519 300 564 q 203 400 213 475 l 511 403 m 542 908 l 542 815 l 194 815 l 194 908 l 542 908 z "},"ę":{"ha":707,"x_min":51,"x_max":658,"o":"m 658 306 l 199 306 l 199 300 q 257 147 199 200 q 411 94 315 94 q 506 103 464 94 q 592 132 549 113 l 619 28 l 590 17 q 507 -37 538 -10 q 476 -106 476 -64 q 497 -155 476 -137 q 549 -172 517 -172 q 614 -161 585 -172 l 635 -236 q 521 -265 586 -265 q 415 -232 457 -265 q 372 -133 372 -199 q 390 -68 372 -99 q 440 -17 408 -37 l 440 -12 q 421 -14 431 -14 q 401 -14 411 -14 q 267 6 331 -14 q 155 67 203 25 q 79 172 107 108 q 51 325 51 236 q 74 465 51 401 q 140 573 97 528 q 242 642 182 618 q 376 667 303 667 q 492 646 440 667 q 581 587 544 625 q 638 494 618 549 q 658 372 658 439 l 658 306 m 511 403 q 503 465 511 436 q 478 516 494 494 q 434 551 461 538 q 369 564 407 564 q 256 519 300 564 q 203 400 213 475 l 511 403 z "},"ﬀ":{"ha":876,"x_min":25,"x_max":919,"o":"m 764 993 q 846 983 807 993 q 919 956 885 974 l 886 858 q 841 874 860 869 q 799 879 822 879 q 710 845 738 879 q 683 728 683 811 l 683 656 l 872 656 l 872 550 l 683 550 l 683 0 l 542 0 l 542 550 l 264 550 l 264 0 l 122 0 l 122 550 l 25 550 l 25 656 l 122 656 l 122 767 q 181 934 122 875 q 344 993 239 993 q 426 983 388 993 q 500 956 465 974 l 467 858 q 422 874 440 869 q 379 879 403 879 q 291 845 318 879 q 264 728 264 811 l 264 656 l 542 656 l 542 767 q 600 934 542 875 q 764 993 658 993 z "},"ﬃ":{"ha":1174,"x_min":25,"x_max":1081,"o":"m 349 993 q 430 983 390 993 q 504 956 469 974 l 469 858 q 424 874 443 869 q 382 879 406 879 q 292 844 319 879 q 264 724 264 808 l 264 656 l 536 656 l 536 725 q 556 835 536 786 q 610 920 575 885 q 697 974 646 956 q 811 993 749 993 q 904 981 854 993 q 990 951 954 969 l 961 854 q 903 872 935 865 q 844 879 872 879 q 720 842 763 879 q 678 710 678 804 l 678 656 l 1081 656 l 1081 0 l 938 0 l 938 550 l 678 550 l 678 0 l 536 0 l 536 550 l 264 550 l 264 0 l 122 0 l 122 550 l 25 550 l 25 656 l 122 656 l 122 764 q 181 934 122 875 q 349 993 240 993 z "},"ﬄ":{"ha":1160,"x_min":25,"x_max":1078,"o":"m 938 0 l 938 550 l 675 550 l 675 0 l 533 0 l 533 550 l 264 550 l 264 0 l 122 0 l 122 550 l 25 550 l 25 656 l 122 656 l 122 764 q 181 934 122 875 q 349 993 240 993 q 430 983 390 993 q 504 956 469 974 l 469 858 q 424 874 443 869 q 382 879 406 879 q 292 844 319 879 q 264 724 264 808 l 264 656 l 533 656 l 533 722 q 553 833 533 783 q 611 919 574 883 q 701 974 649 954 q 818 993 753 993 q 972 971 907 993 q 1078 925 1036 949 l 1078 0 l 938 0 m 844 879 q 718 841 761 879 q 675 707 675 803 l 675 656 l 938 656 l 938 863 q 890 874 914 869 q 844 879 867 879 z "},"ﬁ":{"ha":754,"x_min":25,"x_max":667,"o":"m 524 0 l 524 550 l 264 550 l 264 0 l 122 0 l 122 550 l 25 550 l 25 656 l 122 656 l 122 725 q 142 835 122 786 q 197 920 161 885 q 283 974 232 956 q 397 993 335 993 q 490 981 440 993 q 576 951 540 969 l 547 854 q 490 872 521 865 q 431 879 458 879 q 306 842 349 879 q 264 710 264 804 l 264 656 l 667 656 l 667 0 l 524 0 z "},"ﬂ":{"ha":763,"x_min":25,"x_max":667,"o":"m 526 0 l 526 550 l 264 550 l 264 0 l 122 0 l 122 550 l 25 550 l 25 656 l 122 656 l 122 722 q 142 833 122 783 q 200 919 163 883 q 290 974 238 954 q 408 993 343 993 q 562 971 497 993 q 667 925 626 949 l 667 0 l 526 0 m 264 656 l 526 656 l 526 863 q 480 874 504 869 q 435 879 456 879 q 308 841 351 879 q 264 707 264 803 l 264 656 z "},"ğ":{"ha":765,"x_min":43,"x_max":724,"o":"m 83 436 q 103 533 83 490 q 160 606 124 576 q 246 651 196 636 q 354 667 296 667 q 442 656 397 667 l 724 656 l 724 557 l 675 557 l 572 571 q 610 510 596 544 q 624 438 624 475 q 604 341 624 383 q 549 269 585 299 q 464 224 514 239 q 354 208 414 208 q 317 210 335 208 q 283 214 300 211 q 246 188 257 203 q 235 154 235 172 q 254 115 235 126 q 310 104 274 104 l 475 104 q 644 55 583 104 q 704 -86 704 6 q 680 -184 704 -140 q 610 -259 656 -228 q 501 -307 565 -290 q 358 -324 438 -324 q 128 -272 213 -324 q 43 -121 43 -221 q 75 -37 43 -72 q 160 17 107 -3 q 119 56 135 33 q 104 117 104 79 q 131 192 104 161 q 200 242 157 224 q 117 313 150 265 q 83 436 83 361 m 242 -7 q 178 -99 178 -37 q 223 -183 178 -154 q 364 -212 268 -212 q 456 -202 418 -212 q 517 -175 493 -192 q 553 -137 542 -158 q 564 -94 564 -117 q 528 -24 564 -42 q 435 -7 493 -7 l 242 -7 m 481 435 q 446 534 481 501 q 354 567 411 567 q 262 535 296 567 q 228 439 228 503 q 263 340 228 372 q 354 308 297 308 q 447 340 413 308 q 481 435 481 372 m 288 947 q 310 879 292 904 q 381 854 328 854 q 447 878 425 854 q 474 947 469 903 l 567 947 q 519 820 567 869 q 381 771 471 771 q 295 786 331 771 q 237 826 260 801 q 203 882 214 850 q 193 947 193 914 l 288 947 z "},"ĝ":{"ha":765,"x_min":43,"x_max":724,"o":"m 83 436 q 103 533 83 490 q 160 606 124 576 q 246 651 196 636 q 354 667 296 667 q 442 656 397 667 l 724 656 l 724 557 l 675 557 l 572 571 q 610 510 596 544 q 624 438 624 475 q 604 341 624 383 q 549 269 585 299 q 464 224 514 239 q 354 208 414 208 q 317 210 335 208 q 283 214 300 211 q 246 188 257 203 q 235 154 235 172 q 254 115 235 126 q 310 104 274 104 l 475 104 q 644 55 583 104 q 704 -86 704 6 q 680 -184 704 -140 q 610 -259 656 -228 q 501 -307 565 -290 q 358 -324 438 -324 q 128 -272 213 -324 q 43 -121 43 -221 q 75 -37 43 -72 q 160 17 107 -3 q 119 56 135 33 q 104 117 104 79 q 131 192 104 161 q 200 242 157 224 q 117 313 150 265 q 83 436 83 361 m 242 -7 q 178 -99 178 -37 q 223 -183 178 -154 q 364 -212 268 -212 q 456 -202 418 -212 q 517 -175 493 -192 q 553 -137 542 -158 q 564 -94 564 -117 q 528 -24 564 -42 q 435 -7 493 -7 l 242 -7 m 481 435 q 446 534 481 501 q 354 567 411 567 q 262 535 296 567 q 228 439 228 503 q 263 340 228 372 q 354 308 297 308 q 447 340 413 308 q 481 435 481 372 m 579 768 l 463 768 l 369 882 l 275 768 l 154 768 l 318 958 l 418 958 l 579 768 z "},"ģ":{"ha":765,"x_min":43,"x_max":724,"o":"m 83 436 q 103 533 83 490 q 160 606 124 576 q 246 651 196 636 q 354 667 296 667 q 442 656 397 667 l 724 656 l 724 557 l 675 557 l 572 571 q 610 510 596 544 q 624 438 624 475 q 604 341 624 383 q 549 269 585 299 q 464 224 514 239 q 354 208 414 208 q 317 210 335 208 q 283 214 300 211 q 246 188 257 203 q 235 154 235 172 q 254 115 235 126 q 310 104 274 104 l 475 104 q 644 55 583 104 q 704 -86 704 6 q 680 -184 704 -140 q 610 -259 656 -228 q 501 -307 565 -290 q 358 -324 438 -324 q 128 -272 213 -324 q 43 -121 43 -221 q 75 -37 43 -72 q 160 17 107 -3 q 119 56 135 33 q 104 117 104 79 q 131 192 104 161 q 200 242 157 224 q 117 313 150 265 q 83 436 83 361 m 242 -7 q 178 -99 178 -37 q 223 -183 178 -154 q 364 -212 268 -212 q 456 -202 418 -212 q 517 -175 493 -192 q 553 -137 542 -158 q 564 -94 564 -117 q 528 -24 564 -42 q 435 -7 493 -7 l 242 -7 m 481 435 q 446 534 481 501 q 354 567 411 567 q 262 535 296 567 q 228 439 228 503 q 263 340 228 372 q 354 308 297 308 q 447 340 413 308 q 481 435 481 372 m 367 939 q 417 913 393 933 q 440 854 440 892 q 417 794 440 819 q 354 769 394 769 q 319 776 338 769 q 287 799 301 783 q 263 838 272 814 q 253 896 253 861 q 265 963 253 929 q 297 1028 276 997 q 347 1084 318 1058 q 407 1128 375 1110 l 444 1075 q 377 1017 407 1053 q 343 944 347 981 l 367 939 z "},"ġ":{"ha":765,"x_min":43,"x_max":724,"o":"m 83 436 q 103 533 83 490 q 160 606 124 576 q 246 651 196 636 q 354 667 296 667 q 442 656 397 667 l 724 656 l 724 557 l 675 557 l 572 571 q 610 510 596 544 q 624 438 624 475 q 604 341 624 383 q 549 269 585 299 q 464 224 514 239 q 354 208 414 208 q 317 210 335 208 q 283 214 300 211 q 246 188 257 203 q 235 154 235 172 q 254 115 235 126 q 310 104 274 104 l 475 104 q 644 55 583 104 q 704 -86 704 6 q 680 -184 704 -140 q 610 -259 656 -228 q 501 -307 565 -290 q 358 -324 438 -324 q 128 -272 213 -324 q 43 -121 43 -221 q 75 -37 43 -72 q 160 17 107 -3 q 119 56 135 33 q 104 117 104 79 q 131 192 104 161 q 200 242 157 224 q 117 313 150 265 q 83 436 83 361 m 242 -7 q 178 -99 178 -37 q 223 -183 178 -154 q 364 -212 268 -212 q 456 -202 418 -212 q 517 -175 493 -192 q 553 -137 542 -158 q 564 -94 564 -117 q 528 -24 564 -42 q 435 -7 493 -7 l 242 -7 m 481 435 q 446 534 481 501 q 354 567 411 567 q 262 535 296 567 q 228 439 228 503 q 263 340 228 372 q 354 308 297 308 q 447 340 413 308 q 481 435 481 372 m 278 865 q 302 922 278 897 q 360 946 326 946 q 417 922 394 946 q 440 865 440 897 q 417 806 440 831 q 360 782 394 782 q 302 806 326 782 q 278 865 278 831 z "},"ħ":{"ha":765,"x_min":-18,"x_max":672,"o":"m 385 879 l 385 786 l 236 786 l 236 581 q 335 642 281 617 q 454 667 389 667 q 551 650 510 667 q 619 604 592 633 q 659 535 646 575 q 672 447 672 494 l 672 0 l 529 0 l 529 415 q 499 521 529 489 q 411 553 469 553 q 322 531 367 553 q 236 472 278 510 l 236 0 l 93 0 l 93 786 l -18 786 l -18 879 l 93 879 l 93 988 l 236 988 l 236 879 l 385 879 z "},"ĥ":{"ha":764,"x_min":-51,"x_max":672,"o":"m 236 0 l 93 0 l 93 957 l 236 957 l 236 581 q 334 642 281 617 q 453 667 388 667 q 550 650 508 667 q 619 604 592 633 q 659 535 646 575 q 672 447 672 494 l 672 0 l 529 0 l 529 415 q 499 521 529 489 q 410 553 468 553 q 322 531 367 553 q 236 472 276 510 l 236 0 m 374 1032 l 258 1032 l 164 1146 l 71 1032 l -51 1032 l 114 1222 l 213 1222 l 374 1032 z "},"ĭ":{"ha":360,"x_min":-8,"x_max":365,"o":"m 107 0 l 107 656 l 250 656 l 250 0 l 107 0 m 86 947 q 109 879 90 904 q 179 854 128 854 q 246 878 224 854 q 272 947 268 903 l 365 947 q 317 820 365 869 q 179 771 269 771 q 94 786 129 771 q 35 826 58 801 q 2 882 13 850 q -8 947 -8 914 l 86 947 z "},"ī":{"ha":357,"x_min":4,"x_max":351,"o":"m 107 0 l 107 656 l 250 656 l 250 0 l 107 0 m 351 908 l 351 815 l 4 815 l 4 908 l 351 908 z "},"į":{"ha":357,"x_min":8,"x_max":271,"o":"m 224 0 q 142 -58 171 -29 q 113 -126 113 -86 q 133 -176 113 -158 q 185 -193 153 -193 q 250 -182 221 -193 l 271 -257 q 157 -286 222 -286 q 51 -251 93 -286 q 8 -151 8 -217 q 17 -101 8 -125 q 40 -59 26 -78 q 72 -25 54 -40 q 107 0 90 -10 l 107 656 l 250 656 l 250 0 l 224 0 m 96 899 q 119 956 96 933 q 179 979 142 979 q 238 956 215 979 q 261 899 261 933 q 238 840 261 863 q 179 818 215 818 q 119 841 142 818 q 96 899 96 864 z "},"ĩ":{"ha":357,"x_min":-35,"x_max":393,"o":"m 107 0 l 107 656 l 250 656 l 250 0 l 107 0 m -35 768 q -4 885 -35 839 q 89 931 26 931 q 141 921 118 931 q 185 900 164 911 q 225 879 206 889 q 265 869 244 869 q 303 891 293 869 q 317 936 314 913 l 393 936 q 363 822 393 869 q 274 775 333 775 q 217 784 243 775 q 169 805 192 793 q 128 826 147 817 q 93 835 110 835 q 55 816 65 835 q 42 768 44 797 l -35 768 z "},"ĳ":{"ha":656,"x_min":96,"x_max":561,"o":"m 106 656 l 249 656 l 249 0 l 106 0 l 106 656 m 407 656 l 550 656 l 550 97 q 540 -49 550 18 q 503 -169 529 -115 q 431 -267 476 -224 q 313 -340 385 -310 l 247 -237 q 320 -192 290 -215 q 369 -135 350 -169 q 398 -48 389 -100 q 407 83 407 4 l 407 656 m 96 899 q 118 956 96 933 q 178 979 140 979 q 237 956 214 979 q 260 899 260 933 q 237 840 260 863 q 178 818 214 818 q 118 841 140 818 q 96 899 96 864 m 396 899 q 419 956 396 933 q 479 979 442 979 q 538 956 515 979 q 561 899 561 933 q 538 840 561 863 q 479 818 515 818 q 419 841 442 818 q 396 899 396 864 z "},"ĵ":{"ha":349,"x_min":-60,"x_max":381,"o":"m 99 656 l 242 656 l 242 97 q 231 -49 242 18 q 194 -169 221 -115 q 122 -267 168 -224 q 4 -340 76 -310 l -60 -237 q 13 -192 -17 -215 q 62 -135 43 -169 q 90 -48 81 -100 q 99 83 99 4 l 99 656 m 381 768 l 265 768 l 171 882 l 78 768 l -44 768 l 121 958 l 219 958 l 381 768 z "},"ķ":{"ha":676,"x_min":93,"x_max":671,"o":"m 235 233 l 235 0 l 93 0 l 93 988 l 235 988 l 235 382 l 483 656 l 658 656 l 394 379 l 671 0 l 503 0 l 296 294 l 235 233 m 342 -260 q 292 -234 317 -256 q 268 -175 268 -212 q 291 -115 268 -140 q 354 -90 314 -90 q 389 -97 371 -90 q 422 -119 407 -104 q 446 -158 436 -135 q 456 -217 456 -182 q 444 -285 456 -251 q 411 -350 432 -319 q 362 -406 390 -381 q 301 -449 333 -432 l 264 -397 q 332 -337 301 -374 q 367 -265 363 -301 l 342 -260 z "},"ĺ":{"ha":338,"x_min":93,"x_max":350,"o":"m 93 0 l 93 957 l 233 957 l 233 0 l 93 0 m 207 1050 l 96 1050 l 193 1243 l 350 1243 l 207 1050 z "},"ľ":{"ha":454,"x_min":93,"x_max":521,"o":"m 93 0 l 93 988 l 233 988 l 233 0 l 93 0 m 407 857 q 357 884 381 863 q 333 942 333 906 q 356 1002 333 976 q 419 1028 379 1028 q 454 1021 436 1028 q 487 999 472 1014 q 511 959 501 983 q 521 900 521 935 q 509 833 521 867 q 476 768 497 799 q 427 712 456 738 q 367 669 399 686 l 329 721 q 397 779 367 743 q 431 851 426 815 l 407 857 z "},"ļ":{"ha":325,"x_min":67,"x_max":257,"o":"m 93 0 l 93 988 l 233 988 l 233 0 l 93 0 m 143 -260 q 94 -234 118 -256 q 69 -175 69 -212 q 92 -115 69 -140 q 156 -90 115 -90 q 190 -97 172 -90 q 223 -119 208 -104 q 247 -158 238 -135 q 257 -217 257 -182 q 245 -285 257 -251 q 213 -350 233 -319 q 164 -406 192 -381 q 104 -449 136 -432 l 67 -397 q 134 -337 104 -374 q 168 -265 164 -301 l 143 -260 z "},"ŀ":{"ha":414,"x_min":93,"x_max":488,"o":"m 93 0 l 93 988 l 233 988 l 233 0 l 93 0 m 319 467 q 344 531 319 504 q 406 557 368 557 q 463 531 439 557 q 488 467 488 504 q 463 404 488 431 q 406 378 439 378 q 344 404 368 378 q 319 467 319 431 z "},"ł":{"ha":474,"x_min":-21,"x_max":496,"o":"m 156 0 l 156 342 l 38 222 l -21 281 l 156 457 l 156 988 l 296 988 l 296 558 l 438 700 l 496 642 l 296 443 l 296 0 l 156 0 z "},"ń":{"ha":753,"x_min":89,"x_max":663,"o":"m 232 0 l 89 0 l 89 656 l 200 656 l 219 568 q 322 641 268 615 q 444 667 376 667 q 606 610 549 667 q 663 447 663 553 l 663 0 l 519 0 l 519 429 q 490 519 519 486 q 401 553 461 553 q 314 531 358 553 q 232 469 269 510 l 232 0 m 435 768 l 324 768 l 421 961 l 578 961 l 435 768 z "},"ŉ":{"ha":775,"x_min":-33,"x_max":685,"o":"m 254 0 l 111 0 l 111 656 l 222 656 l 242 568 q 344 641 290 615 q 465 667 397 667 q 627 610 569 667 q 685 447 685 553 l 685 0 l 542 0 l 542 429 q 513 519 542 486 q 424 553 483 553 q 335 531 379 553 q 254 469 292 510 l 254 0 m 44 865 q -5 892 19 871 q -29 950 -29 914 q -6 1010 -29 985 q 57 1036 17 1036 q 92 1029 74 1036 q 124 1007 110 1022 q 149 967 139 992 q 158 908 158 943 q 147 841 158 875 q 114 776 135 807 q 65 720 93 746 q 4 678 36 694 l -33 729 q 35 788 6 751 q 69 861 65 825 l 44 865 z "},"ň":{"ha":753,"x_min":89,"x_max":663,"o":"m 232 0 l 89 0 l 89 656 l 200 656 l 219 568 q 322 641 268 615 q 444 667 376 667 q 606 610 549 667 q 663 447 663 553 l 663 0 l 519 0 l 519 429 q 490 519 519 486 q 401 553 461 553 q 314 531 358 553 q 232 469 269 510 l 232 0 m 175 958 l 294 958 l 389 844 l 482 958 l 600 958 l 438 768 l 339 768 l 175 958 z "},"ņ":{"ha":753,"x_min":89,"x_max":663,"o":"m 232 0 l 89 0 l 89 656 l 200 656 l 219 568 q 322 641 268 615 q 444 667 376 667 q 606 610 549 667 q 663 447 663 553 l 663 0 l 519 0 l 519 429 q 490 519 519 486 q 401 553 461 553 q 314 531 358 553 q 232 469 269 510 l 232 0 m 367 -260 q 317 -234 342 -256 q 293 -175 293 -212 q 316 -115 293 -140 q 379 -90 339 -90 q 414 -97 396 -90 q 447 -119 432 -104 q 471 -158 461 -135 q 481 -217 481 -182 q 469 -285 481 -251 q 436 -350 457 -319 q 387 -406 415 -381 q 326 -449 358 -432 l 289 -397 q 357 -337 326 -374 q 392 -265 388 -301 l 367 -260 z "},"ŏ":{"ha":761,"x_min":54,"x_max":707,"o":"m 707 335 q 681 188 707 253 q 611 78 656 122 q 507 10 567 33 q 378 -14 447 -14 q 249 8 308 -14 q 147 73 190 31 q 78 178 103 115 q 54 321 54 240 q 80 468 54 404 q 150 576 106 532 q 254 644 194 621 q 383 667 314 667 q 512 645 453 667 q 615 582 571 624 q 683 478 658 540 q 707 335 707 415 m 558 328 q 543 434 558 390 q 503 506 528 478 q 445 546 478 533 q 379 558 413 558 q 314 547 346 558 q 257 510 282 536 q 217 439 232 483 q 203 328 203 394 q 218 222 203 267 q 258 149 233 178 q 315 108 283 121 q 382 94 347 94 q 447 106 415 94 q 504 144 479 117 q 544 216 529 171 q 558 328 558 261 m 292 947 q 314 879 296 904 q 385 854 332 854 q 451 878 429 854 q 478 947 474 903 l 571 947 q 523 820 571 869 q 385 771 475 771 q 299 786 335 771 q 241 826 264 801 q 208 882 218 850 q 197 947 197 914 l 292 947 z "},"ő":{"ha":761,"x_min":54,"x_max":707,"o":"m 707 335 q 681 188 707 253 q 611 78 656 122 q 507 10 567 33 q 378 -14 447 -14 q 249 8 308 -14 q 147 73 190 31 q 78 178 103 115 q 54 321 54 240 q 80 468 54 404 q 150 576 106 532 q 254 644 194 621 q 383 667 314 667 q 512 645 453 667 q 615 582 571 624 q 683 478 658 540 q 707 335 707 415 m 558 328 q 543 434 558 390 q 503 506 528 478 q 445 546 478 533 q 379 558 413 558 q 314 547 346 558 q 257 510 282 536 q 217 439 232 483 q 203 328 203 394 q 218 222 203 267 q 258 149 233 178 q 315 108 283 121 q 382 94 347 94 q 447 106 415 94 q 504 144 479 117 q 544 216 529 171 q 558 328 558 261 m 288 768 l 181 768 l 283 961 l 436 961 l 288 768 m 525 768 l 418 768 l 521 961 l 674 961 l 525 768 z "},"ō":{"ha":761,"x_min":54,"x_max":707,"o":"m 707 335 q 681 188 707 253 q 611 78 656 122 q 507 10 567 33 q 378 -14 447 -14 q 249 8 308 -14 q 147 73 190 31 q 78 178 103 115 q 54 321 54 240 q 80 468 54 404 q 150 576 106 532 q 254 644 194 621 q 383 667 314 667 q 512 645 453 667 q 615 582 571 624 q 683 478 658 540 q 707 335 707 415 m 558 328 q 543 434 558 390 q 503 506 528 478 q 445 546 478 533 q 379 558 413 558 q 314 547 346 558 q 257 510 282 536 q 217 439 232 483 q 203 328 203 394 q 218 222 203 267 q 258 149 233 178 q 315 108 283 121 q 382 94 347 94 q 447 106 415 94 q 504 144 479 117 q 544 216 529 171 q 558 328 558 261 m 556 908 l 556 815 l 208 815 l 208 908 l 556 908 z "},"ǿ":{"ha":761,"x_min":54,"x_max":707,"o":"m 507 788 l 572 769 l 529 639 q 657 528 608 603 q 707 336 706 454 q 682 189 707 254 q 613 79 657 124 q 508 10 568 35 q 379 -14 449 -14 q 300 -6 335 -14 l 261 -125 l 197 -106 l 238 14 q 104 125 154 50 q 54 319 54 200 q 79 467 54 403 q 149 576 104 532 q 253 644 193 621 q 382 667 313 667 q 465 658 424 667 l 507 788 m 378 558 q 313 547 344 558 q 256 510 281 536 q 217 438 232 483 q 203 326 203 393 q 225 202 203 250 q 282 128 247 154 l 422 554 q 378 558 401 558 m 558 328 q 537 450 558 403 q 482 522 515 497 l 343 99 q 383 94 361 94 q 448 106 417 94 q 504 145 479 118 q 544 217 529 172 q 558 328 558 261 m 364 768 l 253 768 l 350 961 l 507 961 l 364 768 z "},"ŕ":{"ha":525,"x_min":89,"x_max":524,"o":"m 89 0 l 89 656 l 197 656 l 218 529 q 294 627 242 588 q 422 667 347 667 q 480 661 456 667 q 524 646 504 656 l 497 526 q 459 540 481 535 q 410 546 438 546 q 282 494 333 546 q 231 336 231 442 l 231 0 l 89 0 m 222 768 l 113 768 l 210 961 l 367 961 l 222 768 z "},"ř":{"ha":525,"x_min":71,"x_max":524,"o":"m 89 656 l 197 656 l 218 529 q 294 627 242 588 q 422 667 347 667 q 480 661 456 667 q 524 646 504 656 l 497 526 q 459 540 481 535 q 410 546 438 546 q 282 494 333 546 q 231 336 231 442 l 231 0 l 89 0 l 89 656 m 285 844 l 378 958 l 496 958 l 333 768 l 235 768 l 71 958 l 190 958 l 285 844 z "},"ŗ":{"ha":525,"x_min":68,"x_max":524,"o":"m 89 0 l 89 656 l 197 656 l 218 529 q 294 627 242 588 q 422 667 347 667 q 480 661 456 667 q 524 646 504 656 l 497 526 q 459 540 481 535 q 410 546 438 546 q 282 494 333 546 q 231 336 231 442 l 231 0 l 89 0 m 146 -260 q 97 -234 121 -256 q 72 -175 72 -212 q 95 -115 72 -140 q 158 -90 118 -90 q 193 -97 175 -90 q 226 -119 211 -104 q 250 -158 240 -135 q 260 -217 260 -182 q 248 -285 260 -251 q 215 -350 236 -319 q 166 -406 194 -381 q 106 -449 138 -432 l 68 -397 q 136 -337 106 -374 q 171 -265 167 -301 l 146 -260 z "},"ś":{"ha":578,"x_min":49,"x_max":531,"o":"m 468 522 q 385 552 424 543 q 310 561 347 561 q 222 540 251 561 q 192 482 192 518 q 214 434 192 454 q 306 394 236 414 l 347 382 q 484 310 438 354 q 531 190 531 265 q 461 42 531 99 q 271 -14 392 -14 q 149 -2 206 -14 q 49 31 93 10 l 82 139 q 168 107 122 119 q 263 94 214 94 q 356 115 322 94 q 389 179 389 136 q 359 237 389 219 q 267 274 329 254 l 224 286 q 94 360 136 315 q 51 476 51 404 q 69 554 51 519 q 119 614 88 589 q 197 653 151 639 q 296 667 242 667 q 401 657 347 667 q 500 626 454 647 l 468 522 m 294 768 l 185 768 l 282 961 l 439 961 l 294 768 z "},"ş":{"ha":578,"x_min":49,"x_max":531,"o":"m 468 522 q 385 552 424 543 q 310 561 347 561 q 222 540 251 561 q 192 482 192 518 q 214 434 192 454 q 306 394 236 414 l 347 382 q 484 310 438 354 q 531 190 531 265 q 474 53 531 107 q 317 -10 417 0 l 289 -65 q 377 -96 347 -69 q 407 -162 407 -122 q 394 -213 407 -192 q 360 -249 382 -235 q 310 -271 339 -264 q 250 -278 282 -278 q 189 -272 218 -278 q 142 -260 160 -267 l 161 -196 q 199 -206 179 -203 q 238 -208 218 -208 q 292 -197 272 -208 q 311 -162 311 -186 q 285 -122 311 -135 q 192 -108 258 -108 l 238 -12 q 134 1 182 -10 q 49 31 86 11 l 82 139 q 168 107 122 119 q 263 94 214 94 q 356 115 322 94 q 389 179 389 136 q 359 237 389 219 q 267 274 329 254 l 224 286 q 94 360 136 315 q 51 476 51 404 q 69 554 51 519 q 119 614 88 589 q 197 653 151 639 q 296 667 242 667 q 401 657 347 667 q 500 626 454 647 l 468 522 z "},"ŝ":{"ha":578,"x_min":49,"x_max":531,"o":"m 468 522 q 385 552 424 543 q 310 561 347 561 q 222 540 251 561 q 192 482 192 518 q 214 434 192 454 q 306 394 236 414 l 347 382 q 484 310 438 354 q 531 190 531 265 q 461 42 531 99 q 271 -14 392 -14 q 149 -2 206 -14 q 49 31 93 10 l 82 139 q 168 107 122 119 q 263 94 214 94 q 356 115 322 94 q 389 179 389 136 q 359 237 389 219 q 267 274 329 254 l 224 286 q 94 360 136 315 q 51 476 51 404 q 69 554 51 519 q 119 614 88 589 q 197 653 151 639 q 296 667 242 667 q 401 657 347 667 q 500 626 454 647 l 468 522 m 504 768 l 388 768 l 294 882 l 200 768 l 79 768 l 243 958 l 343 958 l 504 768 z "},"ș":{"ha":578,"x_min":49,"x_max":531,"o":"m 468 522 q 385 552 424 543 q 310 561 347 561 q 222 540 251 561 q 192 482 192 518 q 214 434 192 454 q 306 394 236 414 l 347 382 q 484 310 438 354 q 531 190 531 265 q 461 42 531 99 q 271 -14 392 -14 q 149 -2 206 -14 q 49 31 93 10 l 82 139 q 168 107 122 119 q 263 94 214 94 q 356 115 322 94 q 389 179 389 136 q 359 237 389 219 q 267 274 329 254 l 224 286 q 94 360 136 315 q 51 476 51 404 q 69 554 51 519 q 119 614 88 589 q 197 653 151 639 q 296 667 242 667 q 401 657 347 667 q 500 626 454 647 l 468 522 m 271 -260 q 222 -234 246 -256 q 197 -175 197 -212 q 220 -115 197 -140 q 283 -90 243 -90 q 318 -97 300 -90 q 351 -119 336 -104 q 375 -158 365 -135 q 385 -217 385 -182 q 373 -285 385 -251 q 340 -350 361 -319 q 291 -406 319 -381 q 231 -449 263 -432 l 193 -397 q 261 -337 231 -374 q 296 -265 292 -301 l 271 -260 z "},"ﬆ":{"ha":1071,"x_min":49,"x_max":1043,"o":"m 822 656 l 1008 656 l 1008 550 l 822 550 l 822 196 q 846 131 822 147 q 907 114 869 114 q 966 120 935 114 q 1021 135 997 126 l 1043 29 q 972 9 1015 18 q 879 0 928 0 q 727 44 774 0 q 681 174 681 88 l 681 550 l 596 550 l 596 656 l 681 656 l 681 726 q 644 876 681 825 q 536 928 608 928 q 487 919 511 928 q 444 893 463 910 q 413 851 425 876 q 401 794 401 826 q 430 688 401 729 q 500 626 458 647 l 468 522 q 385 552 424 543 q 310 561 347 561 q 222 540 251 561 q 192 482 192 518 q 214 434 192 454 q 306 394 236 414 l 347 382 q 484 310 438 354 q 531 190 531 265 q 461 42 531 99 q 271 -14 392 -14 q 149 -2 206 -14 q 49 31 93 10 l 82 139 q 168 107 122 119 q 263 94 214 94 q 356 115 322 94 q 389 179 389 136 q 359 237 389 219 q 267 274 329 254 l 224 286 q 94 360 136 315 q 51 476 51 404 q 115 615 51 563 q 288 667 178 667 q 310 667 296 667 q 333 665 324 667 l 335 671 q 315 692 326 679 q 294 722 304 704 q 278 763 285 739 q 271 821 271 788 q 290 905 271 865 q 345 974 310 944 q 429 1019 381 1003 q 536 1036 478 1036 q 667 1013 613 1036 q 756 948 721 989 q 806 851 790 907 q 822 729 822 794 l 822 656 z "},"ŧ":{"ha":514,"x_min":24,"x_max":486,"o":"m 451 550 l 265 550 l 265 418 l 432 418 l 432 325 l 265 325 l 265 196 q 288 131 265 147 q 350 114 311 114 q 409 120 378 114 q 464 135 440 126 l 486 29 q 415 9 458 18 q 322 0 371 0 q 170 44 217 0 q 124 174 124 88 l 124 325 l 26 325 l 26 418 l 124 418 l 124 550 l 24 550 l 24 656 l 124 656 l 124 863 l 265 863 l 265 656 l 451 656 l 451 550 z "},"ť":{"ha":650,"x_min":24,"x_max":689,"o":"m 451 550 l 265 550 l 265 196 q 288 131 265 147 q 350 114 311 114 q 409 120 378 114 q 464 135 440 126 l 486 29 q 415 9 458 18 q 322 0 371 0 q 170 44 217 0 q 124 174 124 88 l 124 550 l 24 550 l 24 656 l 124 656 l 124 863 l 265 863 l 265 656 l 451 656 l 451 550 m 575 857 q 526 884 550 863 q 501 942 501 906 q 524 1002 501 976 q 588 1028 547 1028 q 622 1021 604 1028 q 655 999 640 1014 q 679 959 669 983 q 689 900 689 935 q 677 833 689 867 q 644 768 665 799 q 595 712 624 738 q 535 669 567 686 l 497 721 q 565 779 535 743 q 600 851 596 815 l 575 857 z "},"ţ":{"ha":514,"x_min":24,"x_max":486,"o":"m 451 550 l 265 550 l 265 196 q 288 131 265 147 q 350 114 311 114 q 409 120 378 114 q 464 135 440 126 l 486 29 q 415 9 458 18 q 322 0 371 0 q 170 44 217 0 q 124 174 124 88 l 124 550 l 24 550 l 24 656 l 124 656 l 124 863 l 265 863 l 265 656 l 451 656 l 451 550 m 268 -260 q 219 -234 243 -256 q 194 -175 194 -212 q 217 -115 194 -140 q 281 -90 240 -90 q 315 -97 297 -90 q 348 -119 333 -104 q 372 -158 363 -135 q 382 -217 382 -182 q 370 -285 382 -251 q 338 -350 358 -319 q 288 -406 317 -381 q 228 -449 260 -432 l 190 -397 q 259 -337 229 -374 q 293 -265 289 -301 l 268 -260 z "},"ŭ":{"ha":758,"x_min":90,"x_max":668,"o":"m 525 656 l 668 656 l 668 0 l 558 0 l 540 79 l 535 79 q 447 15 500 43 q 319 -14 394 -14 q 153 44 215 -14 q 90 219 90 103 l 90 656 l 233 656 l 233 235 q 269 128 233 158 q 354 97 304 97 q 450 120 408 97 q 525 181 492 143 l 525 656 m 285 947 q 307 879 289 904 q 378 854 325 854 q 444 878 422 854 q 471 947 467 903 l 564 947 q 516 820 564 869 q 378 771 468 771 q 292 786 328 771 q 234 826 257 801 q 201 882 211 850 q 190 947 190 914 l 285 947 z "},"ű":{"ha":769,"x_min":90,"x_max":690,"o":"m 525 656 l 668 656 l 668 0 l 558 0 l 540 79 l 535 79 q 447 15 500 43 q 319 -14 394 -14 q 153 44 215 -14 q 90 219 90 103 l 90 656 l 233 656 l 233 235 q 269 128 233 158 q 354 97 304 97 q 450 120 408 97 q 525 181 492 143 l 525 656 m 304 768 l 199 768 l 301 961 l 454 961 l 304 768 m 542 768 l 436 768 l 538 961 l 690 961 l 542 768 z "},"ū":{"ha":758,"x_min":90,"x_max":668,"o":"m 525 656 l 668 656 l 668 0 l 558 0 l 540 79 l 535 79 q 447 15 500 43 q 319 -14 394 -14 q 153 44 215 -14 q 90 219 90 103 l 90 656 l 233 656 l 233 235 q 269 128 233 158 q 354 97 304 97 q 450 120 408 97 q 525 181 492 143 l 525 656 m 554 908 l 554 815 l 207 815 l 207 908 l 554 908 z "},"ų":{"ha":758,"x_min":90,"x_max":733,"o":"m 525 656 l 668 656 l 668 0 l 653 0 q 575 -126 575 -57 q 595 -176 575 -158 q 647 -193 615 -193 q 713 -182 683 -193 l 733 -257 q 619 -286 685 -286 q 513 -251 556 -286 q 471 -151 471 -217 q 500 -60 471 -99 q 558 0 529 -22 l 540 79 l 535 79 q 447 15 500 43 q 319 -14 394 -14 q 153 44 215 -14 q 90 219 90 103 l 90 656 l 233 656 l 233 235 q 269 128 233 158 q 354 97 304 97 q 450 120 408 97 q 525 181 492 143 l 525 656 z "},"ů":{"ha":758,"x_min":90,"x_max":668,"o":"m 525 656 l 668 656 l 668 0 l 558 0 l 540 79 l 535 79 q 447 15 500 43 q 319 -14 394 -14 q 153 44 215 -14 q 90 219 90 103 l 90 656 l 233 656 l 233 235 q 269 128 233 158 q 354 97 304 97 q 450 120 408 97 q 525 181 492 143 l 525 656 m 247 865 q 258 918 247 896 q 288 955 269 940 q 331 976 307 969 q 381 983 354 983 q 475 955 435 983 q 515 865 515 926 q 503 813 515 835 q 473 776 492 790 q 430 753 454 761 q 381 746 406 746 q 331 753 356 746 q 288 776 307 761 q 258 814 269 792 q 247 865 247 836 m 317 865 q 333 815 317 833 q 381 797 350 797 q 428 815 411 797 q 446 865 446 833 q 428 915 446 897 q 381 933 410 933 q 334 915 351 933 q 317 865 317 897 z "},"ũ":{"ha":758,"x_min":90,"x_max":668,"o":"m 525 656 l 668 656 l 668 0 l 558 0 l 540 79 l 535 79 q 447 15 500 43 q 319 -14 394 -14 q 153 44 215 -14 q 90 219 90 103 l 90 656 l 233 656 l 233 235 q 269 128 233 158 q 354 97 304 97 q 450 120 408 97 q 525 181 492 143 l 525 656 m 158 768 q 189 885 158 839 q 282 931 219 931 q 334 921 311 931 q 378 900 357 911 q 418 879 399 889 q 458 869 438 869 q 497 891 486 869 q 510 936 507 913 l 586 936 q 556 822 586 869 q 467 775 526 775 q 410 784 436 775 q 363 805 385 793 q 323 826 342 817 q 288 835 304 835 q 249 816 260 835 q 235 768 238 797 l 158 768 z "},"ẃ":{"ha":1011,"x_min":14,"x_max":999,"o":"m 14 656 l 165 656 l 268 265 l 293 110 l 299 110 l 329 265 l 431 656 l 583 656 l 689 265 l 718 110 l 724 110 l 753 265 l 853 656 l 999 656 l 806 0 l 640 0 l 538 386 l 507 547 l 475 386 l 369 0 l 210 0 l 14 656 m 529 768 l 418 768 l 515 961 l 672 961 l 529 768 z "},"ŵ":{"ha":1011,"x_min":14,"x_max":999,"o":"m 14 656 l 165 656 l 268 265 l 293 110 l 299 110 l 329 265 l 431 656 l 583 656 l 689 265 l 718 110 l 724 110 l 753 265 l 853 656 l 999 656 l 806 0 l 640 0 l 538 386 l 507 547 l 475 386 l 369 0 l 210 0 l 14 656 m 717 768 l 600 768 l 507 882 l 413 768 l 292 768 l 457 958 l 556 958 l 717 768 z "},"ẅ":{"ha":1011,"x_min":14,"x_max":999,"o":"m 14 656 l 165 656 l 268 265 l 293 110 l 299 110 l 329 265 l 431 656 l 583 656 l 689 265 l 718 110 l 724 110 l 753 265 l 853 656 l 999 656 l 806 0 l 640 0 l 538 386 l 507 547 l 475 386 l 369 0 l 210 0 l 14 656 m 307 864 q 329 916 307 893 q 383 939 351 939 q 438 916 415 939 q 460 864 460 893 q 438 809 460 832 q 383 786 415 786 q 329 809 351 786 q 307 864 307 832 m 553 864 q 575 916 553 893 q 629 939 597 939 q 683 916 661 939 q 704 864 704 893 q 683 809 704 832 q 629 786 661 786 q 575 809 597 786 q 553 864 553 832 z "},"ẁ":{"ha":1011,"x_min":14,"x_max":999,"o":"m 14 656 l 165 656 l 268 265 l 293 110 l 299 110 l 329 265 l 431 656 l 583 656 l 689 265 l 718 110 l 724 110 l 753 265 l 853 656 l 999 656 l 806 0 l 640 0 l 538 386 l 507 547 l 475 386 l 369 0 l 210 0 l 14 656 m 344 961 l 501 961 l 599 768 l 489 768 l 344 961 z "},"ŷ":{"ha":668,"x_min":11,"x_max":658,"o":"m 11 656 l 165 656 l 297 301 l 344 144 l 347 144 l 393 303 l 513 656 l 658 656 l 410 -44 q 303 -237 368 -162 q 135 -347 239 -311 l 74 -235 q 194 -159 143 -208 q 271 -31 246 -110 l 282 1 l 11 656 m 557 768 l 440 768 l 347 882 l 253 768 l 132 768 l 296 958 l 396 958 l 557 768 z "},"ỳ":{"ha":668,"x_min":11,"x_max":658,"o":"m 11 656 l 165 656 l 297 301 l 344 144 l 347 144 l 393 303 l 513 656 l 658 656 l 410 -44 q 303 -237 368 -162 q 135 -347 239 -311 l 74 -235 q 194 -159 143 -208 q 271 -31 246 -110 l 282 1 l 11 656 m 181 961 l 338 961 l 435 768 l 325 768 l 181 961 z "},"ź":{"ha":575,"x_min":33,"x_max":543,"o":"m 536 571 l 201 106 l 543 106 l 543 0 l 33 0 l 33 89 l 367 550 l 54 550 l 54 656 l 536 656 l 536 571 m 321 768 l 211 768 l 308 961 l 465 961 l 321 768 z "},"ż":{"ha":575,"x_min":33,"x_max":543,"o":"m 536 571 l 201 106 l 543 106 l 543 0 l 33 0 l 33 89 l 367 550 l 54 550 l 54 656 l 536 656 l 536 571 m 214 865 q 239 922 214 897 q 296 946 264 946 q 353 922 331 946 q 376 865 376 897 q 353 806 376 831 q 296 782 331 782 q 239 806 264 782 q 214 865 214 831 z "},"Ŋ":{"ha":933,"x_min":106,"x_max":828,"o":"m 106 875 l 238 875 l 604 324 q 651 251 629 288 q 689 186 674 215 l 692 186 q 685 391 685 289 q 685 597 685 493 l 685 875 l 828 875 l 828 101 q 817 -44 828 22 q 781 -165 807 -111 q 708 -262 754 -219 q 590 -336 663 -304 l 526 -233 q 635 -147 596 -197 q 685 -11 675 -97 l 339 507 q 288 588 313 544 q 244 667 263 632 l 242 667 q 249 452 249 558 q 249 239 249 346 l 249 0 l 106 0 l 106 875 z "},"ŋ":{"ha":756,"x_min":90,"x_max":664,"o":"m 90 656 l 203 656 l 222 568 q 324 641 271 615 q 446 667 378 667 q 607 610 550 667 q 664 447 664 553 l 664 94 q 653 -50 664 15 q 617 -169 643 -115 q 544 -265 590 -222 q 426 -337 499 -307 l 363 -233 q 434 -190 404 -212 q 483 -135 464 -168 q 512 -56 503 -103 q 521 64 521 -8 l 521 429 q 492 519 521 486 q 404 553 463 553 q 316 531 360 553 q 233 469 272 510 l 233 0 l 90 0 l 90 656 z "},"₹":{"ha":688,"x_min":0,"x_max":604,"o":"m 21 560 l 21 656 l 329 656 q 306 723 322 692 q 272 776 290 754 l 0 776 l 0 879 l 604 879 l 604 776 l 399 776 q 429 728 413 757 q 456 656 446 700 l 583 656 l 583 560 l 464 560 q 442 477 463 515 q 388 410 422 439 q 310 363 354 381 q 217 342 267 344 l 458 63 l 350 -14 l 153 242 q 108 295 129 271 q 71 338 88 319 q 35 375 51 358 l 72 456 q 109 446 92 449 q 151 443 126 443 q 277 476 231 443 q 329 560 324 510 l 21 560 z "},"":{"ha":729,"x_min":51,"x_max":676,"o":"m 676 335 q 653 188 676 253 q 588 78 629 122 q 488 10 546 33 q 361 -14 431 -14 q 235 8 292 -14 q 137 73 178 31 q 74 178 96 115 q 51 321 51 240 q 75 467 51 403 q 140 576 99 532 q 240 644 182 621 q 368 667 299 667 q 494 645 438 667 q 592 581 551 624 q 654 477 632 539 q 676 335 676 415 m 533 328 q 519 435 533 390 q 483 508 506 479 q 428 549 460 536 q 364 563 397 563 q 299 551 331 563 q 245 513 268 540 q 208 441 222 486 q 194 328 194 396 q 208 221 194 265 q 246 148 222 176 q 301 106 269 119 q 365 92 332 92 q 429 103 399 92 q 483 142 460 115 q 519 215 506 169 q 533 328 533 261 z "},"":{"ha":556,"x_min":54,"x_max":506,"o":"m 282 656 l 360 656 l 360 106 l 506 106 l 506 0 l 74 0 l 74 106 l 225 106 l 225 414 l 229 519 l 83 474 l 54 581 l 282 656 z "},"":{"ha":582,"x_min":40,"x_max":526,"o":"m 40 594 q 144 649 90 632 q 258 667 199 667 q 441 606 374 667 q 508 447 508 546 q 484 338 508 389 q 423 244 460 288 q 342 164 386 200 q 257 100 297 128 l 379 108 l 526 108 l 526 0 l 68 0 l 68 86 q 159 149 107 111 q 258 234 211 188 q 336 333 304 281 q 368 439 368 385 q 335 524 368 492 q 242 556 303 556 q 169 542 206 556 q 99 503 132 528 l 40 594 z "},"":{"ha":603,"x_min":43,"x_max":540,"o":"m 50 614 q 147 656 97 644 q 254 667 196 667 q 442 609 374 667 q 510 458 510 551 q 467 346 510 392 q 364 283 424 300 l 364 279 q 433 256 401 272 q 489 213 465 239 q 526 150 513 186 q 540 69 540 114 q 513 -50 540 4 q 437 -142 486 -104 q 317 -201 388 -181 q 161 -222 247 -222 q 116 -221 140 -222 q 63 -215 92 -219 l 43 -114 q 90 -117 67 -117 q 129 -118 113 -118 q 335 -67 267 -118 q 403 72 403 -15 q 351 181 403 143 q 204 218 299 218 q 174 217 193 218 q 128 214 156 217 l 128 329 l 171 329 q 327 365 279 329 q 375 457 375 400 q 338 535 375 508 q 246 563 300 563 q 172 553 210 563 q 99 521 135 543 l 50 614 z "},"":{"ha":763,"x_min":46,"x_max":706,"o":"m 429 656 l 571 656 l 571 108 l 706 108 l 706 0 l 571 0 l 571 -222 l 442 -222 l 442 0 l 46 0 l 46 86 l 429 656 m 192 108 l 442 108 l 442 356 l 450 524 l 364 376 l 192 108 z "},"":{"ha":607,"x_min":44,"x_max":539,"o":"m 124 656 l 508 661 l 494 553 l 222 553 l 192 354 q 221 356 206 356 q 244 356 236 356 q 369 335 314 356 q 461 280 424 315 q 519 197 499 244 q 539 93 539 149 q 513 -30 539 28 q 438 -131 488 -87 q 316 -198 388 -174 q 153 -222 244 -222 q 113 -221 133 -222 q 64 -215 92 -219 l 44 -114 q 122 -118 90 -118 q 246 -102 193 -118 q 333 -58 299 -86 q 385 7 368 -31 q 401 88 401 44 q 340 208 401 167 q 178 249 279 249 q 122 247 146 249 q 64 240 99 244 l 124 656 z "},"":{"ha":722,"x_min":63,"x_max":665,"o":"m 603 781 q 579 784 590 783 q 550 785 568 785 q 413 758 472 785 q 310 689 353 732 q 240 592 267 646 q 204 485 214 539 l 207 482 q 285 536 236 515 q 392 557 335 557 q 508 536 457 557 q 594 478 558 515 q 647 392 629 442 q 665 282 665 342 q 642 161 665 215 q 578 68 618 107 q 485 8 539 29 q 372 -14 432 -14 q 251 8 307 -14 q 153 76 194 31 q 87 190 111 121 q 63 351 63 258 q 94 555 63 457 q 184 728 125 653 q 330 847 243 803 q 528 892 417 892 q 560 890 543 892 q 592 886 576 889 l 603 781 m 197 301 q 210 217 197 256 q 245 151 222 179 q 301 108 268 124 q 372 93 333 93 q 485 144 443 93 q 528 276 528 196 q 484 408 528 360 q 368 456 440 456 q 274 435 310 456 q 219 383 239 414 q 197 301 197 349 z "},"":{"ha":594,"x_min":56,"x_max":569,"o":"m 569 656 l 569 563 q 449 353 506 460 q 345 143 392 246 q 263 -53 299 40 q 204 -221 226 -146 l 79 -187 q 142 -19 104 -111 q 226 171 181 74 q 322 364 272 268 q 419 544 371 460 l 56 544 l 56 656 l 569 656 z "},"":{"ha":701,"x_min":63,"x_max":639,"o":"m 351 892 q 464 874 414 892 q 549 826 514 857 q 602 753 583 796 q 621 663 621 711 q 575 542 621 592 q 464 471 529 493 l 464 467 q 597 379 556 433 q 639 246 639 325 q 615 139 639 185 q 550 63 590 93 q 458 16 510 32 q 351 0 407 0 q 242 15 294 0 q 150 60 190 31 q 86 135 110 90 q 63 238 63 179 q 240 457 63 394 l 240 461 q 126 538 167 493 q 85 663 85 583 q 102 753 85 711 q 153 826 119 796 q 238 874 188 857 q 351 892 288 892 m 219 669 q 260 575 219 610 q 356 521 301 540 q 403 540 379 528 q 444 571 426 553 q 474 612 463 589 q 485 664 485 635 q 473 720 485 696 q 442 760 461 744 q 399 784 424 776 q 351 792 375 792 q 258 760 296 792 q 219 669 219 728 m 347 404 q 200 242 200 353 q 213 180 200 206 q 246 137 225 154 q 294 111 267 119 q 351 103 321 103 q 407 111 381 103 q 454 138 433 119 q 488 183 475 156 q 500 246 500 210 q 488 303 500 278 q 453 347 475 328 q 404 381 432 367 q 347 404 376 394 z "},"":{"ha":721,"x_min":56,"x_max":658,"o":"m 129 -117 q 281 -92 214 -117 q 396 -28 347 -68 q 474 63 444 13 q 514 167 503 114 l 510 169 q 431 112 479 132 q 328 92 382 92 q 213 113 263 92 q 127 170 163 133 q 74 258 92 207 q 56 368 56 308 q 79 492 56 436 q 144 586 103 547 q 240 646 185 625 q 357 667 294 667 q 476 644 421 667 q 572 576 532 622 q 635 461 613 531 q 658 299 658 392 q 625 97 658 192 q 527 -69 592 1 q 368 -181 463 -140 q 151 -222 274 -222 q 119 -221 136 -222 q 88 -217 103 -219 l 76 -112 q 100 -116 89 -115 q 129 -117 111 -117 m 524 351 q 513 431 524 393 q 482 497 503 468 q 429 543 461 526 q 354 560 397 560 q 289 546 318 560 q 238 507 260 532 q 205 448 217 482 q 193 374 193 414 q 238 244 193 292 q 354 197 282 197 q 447 219 413 197 q 500 269 482 242 q 524 351 524 304 z "},"Ḍ":{"ha":897,"x_min":106,"x_max":836,"o":"m 397 875 q 574 849 493 875 q 713 770 654 822 q 803 640 771 718 q 836 457 836 561 q 797 247 836 333 q 692 105 758 160 q 538 25 626 50 q 353 0 450 0 l 106 0 l 106 875 l 397 875 m 254 119 l 340 119 q 465 134 404 119 q 572 187 525 149 q 648 290 619 225 q 676 457 676 356 q 594 678 676 601 q 372 756 511 756 l 254 756 l 254 119 m 308 -171 q 333 -115 308 -139 q 390 -90 358 -90 q 449 -115 425 -90 q 472 -171 472 -139 q 449 -230 472 -206 q 390 -254 425 -254 q 333 -230 358 -254 q 308 -171 308 -206 z "},"ḍ":{"ha":757,"x_min":51,"x_max":665,"o":"m 522 988 l 665 988 l 665 0 l 553 0 l 536 72 l 531 72 q 450 8 494 31 q 335 -14 406 -14 q 228 8 279 -14 q 138 72 178 29 q 75 179 99 115 q 51 326 51 243 q 72 467 51 404 q 130 574 92 529 q 224 642 168 618 q 350 667 279 667 q 444 651 399 667 q 522 608 490 636 l 522 988 m 522 493 q 382 560 464 560 q 313 547 346 560 q 253 507 279 535 q 211 436 226 479 q 196 331 196 393 q 210 224 196 268 q 249 150 225 179 q 303 108 272 121 q 368 94 335 94 q 456 117 418 94 q 522 179 494 139 l 522 493 m 310 -171 q 335 -115 310 -139 q 392 -90 360 -90 q 450 -115 426 -90 q 474 -171 474 -139 q 450 -230 474 -206 q 392 -254 426 -254 q 335 -230 360 -254 q 310 -171 310 -206 z "},"Ḥ":{"ha":896,"x_min":106,"x_max":790,"o":"m 372 -171 q 397 -115 372 -139 q 454 -90 422 -90 q 513 -115 489 -90 q 536 -171 536 -139 q 513 -230 536 -206 q 454 -254 489 -254 q 397 -230 422 -254 q 372 -171 372 -206 m 106 0 l 106 875 l 254 875 l 254 514 l 642 514 l 642 875 l 790 875 l 790 0 l 642 0 l 642 392 l 254 392 l 254 0 l 106 0 z "},"ḥ":{"ha":764,"x_min":93,"x_max":672,"o":"m 303 -171 q 328 -115 303 -139 q 385 -90 353 -90 q 443 -115 419 -90 q 467 -171 467 -139 q 443 -230 467 -206 q 385 -254 419 -254 q 328 -230 353 -254 q 303 -171 303 -206 m 236 0 l 93 0 l 93 988 l 236 988 l 236 581 q 334 642 281 617 q 453 667 388 667 q 550 650 508 667 q 619 604 592 633 q 659 535 646 575 q 672 447 672 494 l 672 0 l 529 0 l 529 415 q 499 521 529 489 q 410 553 468 553 q 322 531 367 553 q 236 472 276 510 l 236 0 z "},"Ḷ":{"ha":639,"x_min":106,"x_max":621,"o":"m 289 -171 q 314 -115 289 -139 q 371 -90 339 -90 q 429 -115 406 -90 q 453 -171 453 -139 q 429 -230 453 -206 q 371 -254 406 -254 q 314 -230 339 -254 q 289 -171 289 -206 m 106 875 l 254 875 l 254 122 l 621 122 l 621 0 l 106 0 l 106 875 z "},"ḷ":{"ha":333,"x_min":86,"x_max":250,"o":"m 86 -171 q 111 -115 86 -139 q 168 -90 136 -90 q 226 -115 203 -90 q 250 -171 250 -139 q 226 -230 250 -206 q 168 -254 203 -254 q 111 -230 136 -254 q 86 -171 86 -206 m 96 0 l 96 988 l 236 988 l 236 0 l 96 0 z "},"Ḹ":{"ha":639,"x_min":106,"x_max":621,"o":"m 106 875 l 254 875 l 254 122 l 621 122 l 621 0 l 106 0 l 106 875 m 289 -171 q 314 -115 289 -139 q 371 -90 339 -90 q 429 -115 406 -90 q 453 -171 453 -139 q 429 -230 453 -206 q 371 -254 406 -254 q 314 -230 339 -254 q 289 -171 289 -206 m 532 1072 l 532 979 l 186 979 l 186 1072 l 532 1072 z "},"ḹ":{"ha":333,"x_min":-1,"x_max":325,"o":"m 325 1138 l 325 1050 l -1 1050 l -1 1138 l 325 1138 m 86 -171 q 111 -115 86 -139 q 168 -90 136 -90 q 226 -115 203 -90 q 250 -171 250 -139 q 226 -230 250 -206 q 168 -254 203 -254 q 111 -230 136 -254 q 86 -171 86 -206 m 96 0 l 96 957 l 236 957 l 236 0 l 96 0 z "},"Ḻ":{"ha":639,"x_min":106,"x_max":621,"o":"m 106 875 l 254 875 l 254 122 l 621 122 l 621 0 l 106 0 l 106 875 m 538 -122 l 538 -215 l 190 -215 l 190 -122 l 538 -122 z "},"ḻ":{"ha":333,"x_min":-7,"x_max":340,"o":"m 340 -122 l 340 -215 l -7 -215 l -7 -122 l 340 -122 m 96 0 l 96 988 l 236 988 l 236 0 l 96 0 z "},"Ṃ":{"ha":1136,"x_min":89,"x_max":1047,"o":"m 483 -171 q 508 -115 483 -139 q 565 -90 533 -90 q 624 -115 600 -90 q 647 -171 647 -139 q 624 -230 647 -206 q 565 -254 600 -254 q 508 -230 533 -254 q 483 -171 483 -206 m 158 875 l 350 875 l 504 403 q 538 295 524 343 q 568 188 553 247 l 572 188 q 603 294 588 238 q 635 403 619 351 l 783 875 l 975 875 l 1047 0 l 903 0 q 881 280 892 139 q 865 563 871 421 l 860 722 l 857 722 q 808 547 833 636 q 754 376 782 458 l 631 0 l 504 0 l 379 378 q 345 486 360 438 q 319 576 331 535 q 297 653 307 617 q 279 722 288 689 l 275 722 q 263 482 271 604 q 247 247 254 360 l 231 0 l 89 0 l 158 875 z "},"ṃ":{"ha":1158,"x_min":90,"x_max":1067,"o":"m 233 0 l 90 0 l 90 656 l 201 656 l 221 568 q 319 640 267 614 q 443 667 372 667 q 559 639 514 667 q 628 561 604 611 q 733 639 675 611 q 860 667 790 667 q 1015 610 963 667 q 1067 451 1067 554 l 1067 0 l 924 0 l 924 429 q 898 521 924 489 q 814 553 872 553 q 650 474 725 553 l 650 0 l 507 0 l 507 429 q 481 521 507 489 q 397 553 456 553 q 233 469 308 553 l 233 0 m 496 -171 q 521 -115 496 -139 q 578 -90 546 -90 q 636 -115 613 -90 q 660 -171 660 -139 q 636 -230 660 -206 q 578 -254 613 -254 q 521 -230 546 -254 q 496 -171 496 -206 z "},"Ṅ":{"ha":933,"x_min":106,"x_max":828,"o":"m 392 1058 q 417 1115 392 1090 q 474 1139 442 1139 q 532 1115 508 1139 q 556 1058 556 1090 q 532 999 556 1024 q 474 975 508 975 q 417 999 442 975 q 392 1058 392 1024 m 106 875 l 238 875 l 604 351 q 651 279 629 315 q 689 214 674 243 l 692 214 q 685 419 685 317 q 685 625 685 521 l 685 875 l 828 875 l 828 0 l 696 0 l 339 507 q 288 588 313 544 q 244 667 263 632 l 242 667 q 249 452 249 558 q 249 239 249 346 l 249 0 l 106 0 l 106 875 z "},"ṅ":{"ha":756,"x_min":90,"x_max":664,"o":"m 300 865 q 325 922 300 897 q 382 946 350 946 q 440 922 417 946 q 463 865 463 897 q 440 806 463 831 q 382 782 417 782 q 325 806 350 782 q 300 865 300 831 m 233 0 l 90 0 l 90 656 l 203 656 l 222 568 q 324 641 271 615 q 446 667 378 667 q 607 610 550 667 q 664 447 664 553 l 664 0 l 521 0 l 521 429 q 492 519 521 486 q 404 553 463 553 q 316 531 360 553 q 233 469 272 510 l 233 0 z "},"Ṇ":{"ha":933,"x_min":106,"x_max":828,"o":"m 106 875 l 238 875 l 604 351 q 651 279 629 315 q 689 214 674 243 l 692 214 q 685 419 685 317 q 685 625 685 521 l 685 875 l 828 875 l 828 0 l 696 0 l 339 507 q 288 588 313 544 q 244 667 263 632 l 242 667 q 249 452 249 558 q 249 239 249 346 l 249 0 l 106 0 l 106 875 m 390 -171 q 415 -115 390 -139 q 472 -90 440 -90 q 531 -115 507 -90 q 554 -171 554 -139 q 531 -230 554 -206 q 472 -254 507 -254 q 415 -230 440 -254 q 390 -171 390 -206 z "},"ṇ":{"ha":756,"x_min":90,"x_max":664,"o":"m 290 -171 q 315 -115 290 -139 q 372 -90 340 -90 q 431 -115 407 -90 q 454 -171 454 -139 q 431 -230 454 -206 q 372 -254 407 -254 q 315 -230 340 -254 q 290 -171 290 -206 m 233 0 l 90 0 l 90 656 l 203 656 l 222 568 q 324 641 271 615 q 446 667 378 667 q 607 610 550 667 q 664 447 664 553 l 664 0 l 521 0 l 521 429 q 492 519 521 486 q 404 553 463 553 q 316 531 360 553 q 233 469 272 510 l 233 0 z "},"Ṉ":{"ha":933,"x_min":106,"x_max":828,"o":"m 649 -122 l 649 -215 l 301 -215 l 301 -122 l 649 -122 m 106 875 l 238 875 l 604 351 q 651 279 629 315 q 689 214 674 243 l 692 214 q 685 419 685 317 q 685 625 685 521 l 685 875 l 828 875 l 828 0 l 696 0 l 339 507 q 288 588 313 544 q 244 667 263 632 l 242 667 q 249 452 249 558 q 249 239 249 346 l 249 0 l 106 0 l 106 875 z "},"ṉ":{"ha":756,"x_min":90,"x_max":664,"o":"m 547 -122 l 547 -215 l 200 -215 l 200 -122 l 547 -122 m 233 0 l 90 0 l 90 656 l 203 656 l 222 568 q 324 641 271 615 q 446 667 378 667 q 607 610 550 667 q 664 447 664 553 l 664 0 l 521 0 l 521 429 q 492 519 521 486 q 404 553 463 553 q 316 531 360 553 q 233 469 272 510 l 233 0 z "},"Ṛ":{"ha":761,"x_min":106,"x_max":740,"o":"m 106 875 l 407 875 q 530 855 476 875 q 619 799 583 835 q 674 715 656 764 q 692 610 692 667 q 676 518 692 558 q 635 448 660 478 q 578 397 610 418 q 515 363 547 375 l 740 0 l 572 0 l 379 336 l 250 336 l 250 0 l 106 0 l 106 875 m 250 454 l 344 454 q 421 463 386 454 q 482 489 456 471 q 523 535 508 507 q 538 604 538 564 q 493 720 538 682 q 365 758 449 758 l 250 758 l 250 454 m 326 -171 q 351 -115 326 -139 q 408 -90 376 -90 q 467 -115 443 -90 q 490 -171 490 -139 q 467 -230 490 -206 q 408 -254 443 -254 q 351 -230 376 -254 q 326 -171 326 -206 z "},"ṛ":{"ha":525,"x_min":76,"x_max":524,"o":"m 76 -171 q 101 -115 76 -139 q 158 -90 126 -90 q 217 -115 193 -90 q 240 -171 240 -139 q 217 -230 240 -206 q 158 -254 193 -254 q 101 -230 126 -254 q 76 -171 76 -206 m 89 0 l 89 656 l 197 656 l 218 529 q 294 627 242 588 q 422 667 347 667 q 480 661 456 667 q 524 646 504 656 l 497 526 q 459 540 481 535 q 410 546 438 546 q 282 494 333 546 q 231 336 231 442 l 231 0 l 89 0 z "},"Ṝ":{"ha":761,"x_min":106,"x_max":740,"o":"m 106 875 l 407 875 q 530 855 476 875 q 619 799 583 835 q 674 715 656 764 q 692 610 692 667 q 676 518 692 558 q 635 448 660 478 q 578 397 610 418 q 515 363 547 375 l 740 0 l 572 0 l 379 336 l 250 336 l 250 0 l 106 0 l 106 875 m 250 454 l 344 454 q 421 463 386 454 q 482 489 456 471 q 523 535 508 507 q 538 604 538 564 q 493 720 538 682 q 365 758 449 758 l 250 758 l 250 454 m 326 -171 q 351 -115 326 -139 q 408 -90 376 -90 q 467 -115 443 -90 q 490 -171 490 -139 q 467 -230 490 -206 q 408 -254 443 -254 q 351 -230 376 -254 q 326 -171 326 -206 m 554 1072 l 554 979 l 208 979 l 208 1072 l 554 1072 z "},"ṝ":{"ha":525,"x_min":76,"x_max":524,"o":"m 89 0 l 89 656 l 197 656 l 218 529 q 294 627 242 588 q 422 667 347 667 q 480 661 456 667 q 524 646 504 656 l 497 526 q 459 540 481 535 q 410 546 438 546 q 282 494 333 546 q 231 336 231 442 l 231 0 l 89 0 m 425 917 l 425 829 l 99 829 l 99 917 l 425 917 m 76 -171 q 101 -115 76 -139 q 158 -90 126 -90 q 217 -115 193 -90 q 240 -171 240 -139 q 217 -230 240 -206 q 158 -254 193 -254 q 101 -230 126 -254 q 76 -171 76 -206 z "},"Ṟ":{"ha":761,"x_min":106,"x_max":740,"o":"m 106 875 l 407 875 q 530 855 476 875 q 619 799 583 835 q 674 715 656 764 q 692 610 692 667 q 676 518 692 558 q 635 448 660 478 q 578 397 610 418 q 515 363 547 375 l 740 0 l 572 0 l 379 336 l 250 336 l 250 0 l 106 0 l 106 875 m 250 454 l 344 454 q 421 463 386 454 q 482 489 456 471 q 523 535 508 507 q 538 604 538 564 q 493 720 538 682 q 365 758 449 758 l 250 758 l 250 454 m 575 -122 l 575 -215 l 228 -215 l 228 -122 l 575 -122 z "},"ṟ":{"ha":525,"x_min":89,"x_max":524,"o":"m 89 0 l 89 656 l 197 656 l 218 529 q 294 627 242 588 q 422 667 347 667 q 480 661 456 667 q 524 646 504 656 l 497 526 q 459 540 481 535 q 410 546 438 546 q 282 494 333 546 q 231 336 231 442 l 231 0 l 89 0 m 478 -122 l 478 -215 l 131 -215 l 131 -122 l 478 -122 z "},"Ṣ":{"ha":715,"x_min":60,"x_max":658,"o":"m 364 889 q 614 836 507 889 l 579 718 q 472 759 521 746 q 372 772 422 772 q 254 740 297 772 q 211 651 211 708 q 244 572 211 601 q 353 519 278 543 l 439 492 q 606 391 553 456 q 658 242 658 326 q 636 138 658 185 q 573 57 614 90 q 474 5 532 24 q 344 -14 415 -14 q 203 -1 274 -14 q 67 44 133 13 l 101 161 q 218 117 161 132 q 338 103 275 103 q 460 135 413 103 q 507 229 507 167 q 474 308 507 274 q 347 374 442 343 l 265 400 q 115 485 169 432 q 60 635 60 539 q 138 819 60 750 q 364 889 215 889 m 271 -171 q 296 -115 271 -139 q 353 -90 321 -90 q 411 -115 388 -90 q 435 -171 435 -139 q 411 -230 435 -206 q 353 -254 388 -254 q 296 -230 321 -254 q 271 -171 271 -206 z "},"ṣ":{"ha":578,"x_min":49,"x_max":531,"o":"m 468 522 q 385 552 424 543 q 310 561 347 561 q 222 540 251 561 q 192 482 192 518 q 214 434 192 454 q 306 394 236 414 l 347 382 q 484 310 438 354 q 531 190 531 265 q 461 42 531 99 q 271 -14 392 -14 q 149 -2 206 -14 q 49 31 93 10 l 82 139 q 168 107 122 119 q 263 94 214 94 q 356 115 322 94 q 389 179 389 136 q 359 237 389 219 q 267 274 329 254 l 224 286 q 94 360 136 315 q 51 476 51 404 q 69 554 51 519 q 119 614 88 589 q 197 653 151 639 q 296 667 242 667 q 401 657 347 667 q 500 626 454 647 l 468 522 m 206 -171 q 231 -115 206 -139 q 288 -90 256 -90 q 346 -115 322 -90 q 369 -171 369 -139 q 346 -230 369 -206 q 288 -254 322 -254 q 231 -230 256 -254 q 206 -171 206 -206 z "},"Ṭ":{"ha":699,"x_min":14,"x_max":686,"o":"m 686 875 l 686 753 l 422 753 l 422 0 l 274 0 l 274 753 l 14 753 l 14 875 l 686 875 m 265 -171 q 290 -115 265 -139 q 347 -90 315 -90 q 406 -115 382 -90 q 429 -171 429 -139 q 406 -230 429 -206 q 347 -254 382 -254 q 290 -230 315 -254 q 265 -171 265 -206 z "},"ṭ":{"ha":514,"x_min":24,"x_max":486,"o":"m 451 550 l 265 550 l 265 196 q 288 131 265 147 q 350 114 311 114 q 409 120 378 114 q 464 135 440 126 l 486 29 q 415 9 458 18 q 322 0 371 0 q 170 44 217 0 q 124 174 124 88 l 124 550 l 24 550 l 24 656 l 124 656 l 124 863 l 265 863 l 265 656 l 451 656 l 451 550 m 213 -171 q 238 -115 213 -139 q 294 -90 263 -90 q 353 -115 329 -90 q 376 -171 376 -139 q 353 -230 376 -206 q 294 -254 329 -254 q 238 -230 263 -254 q 213 -171 213 -206 z "},"Ṯ":{"ha":699,"x_min":14,"x_max":686,"o":"m 686 875 l 686 753 l 422 753 l 422 0 l 274 0 l 274 753 l 14 753 l 14 875 l 686 875 m 521 -122 l 521 -215 l 174 -215 l 174 -122 l 521 -122 z "},"ṯ":{"ha":514,"x_min":24,"x_max":486,"o":"m 472 -122 l 472 -215 l 125 -215 l 125 -122 l 472 -122 m 451 550 l 265 550 l 265 196 q 288 131 265 147 q 350 114 311 114 q 409 120 378 114 q 464 135 440 126 l 486 29 q 415 9 458 18 q 322 0 371 0 q 170 44 217 0 q 124 174 124 88 l 124 550 l 24 550 l 24 656 l 124 656 l 124 863 l 265 863 l 265 656 l 451 656 l 451 550 z "},"Ẏ":{"ha":756,"x_min":14,"x_max":754,"o":"m 178 875 l 386 500 l 594 875 l 754 875 l 454 365 l 454 0 l 306 0 l 306 365 l 14 875 l 178 875 m 303 1058 q 328 1115 303 1090 q 385 1139 353 1139 q 443 1115 419 1139 q 467 1058 467 1090 q 443 999 467 1024 q 385 975 419 975 q 328 999 353 975 q 303 1058 303 1024 z "},"ẏ":{"ha":668,"x_min":11,"x_max":658,"o":"m 11 656 l 165 656 l 297 301 l 344 144 l 347 144 l 393 303 l 513 656 l 658 656 l 410 -44 q 303 -237 368 -162 q 135 -347 239 -311 l 74 -235 q 194 -159 143 -208 q 271 -31 246 -110 l 282 1 l 11 656 m 261 865 q 286 922 261 897 q 343 946 311 946 q 401 922 378 946 q 424 865 424 897 q 401 806 424 831 q 343 782 378 782 q 286 806 311 782 q 261 865 261 831 z "},"ℓ":{"ha":729,"x_min":46,"x_max":683,"o":"m 683 99 q 572 17 633 47 q 419 -14 510 -14 q 322 1 367 -14 q 245 47 278 17 q 194 120 213 76 q 175 221 175 164 l 175 233 l 97 181 l 46 269 q 110 313 74 289 q 172 360 146 338 l 172 703 q 190 837 172 781 q 240 929 208 893 q 315 983 272 965 q 408 1000 358 1000 q 494 983 456 1000 q 561 938 533 967 q 603 869 589 908 q 618 783 618 829 q 596 662 618 721 q 533 544 574 603 q 437 428 493 486 q 313 311 381 371 l 313 264 q 322 188 313 219 q 349 138 332 157 q 390 111 367 119 q 438 103 413 103 q 535 128 490 103 q 617 190 581 153 l 683 99 m 313 457 q 381 531 347 492 q 440 611 414 569 q 481 696 465 653 q 496 781 496 739 q 471 870 496 844 q 410 896 446 896 q 376 888 393 896 q 344 859 358 879 q 322 806 331 839 q 313 725 313 774 l 313 457 z "},"№":{"ha":1460,"x_min":106,"x_max":1389,"o":"m 943 250 l 943 335 l 1371 335 l 1371 250 l 943 250 m 1153 888 q 1329 821 1269 888 q 1389 649 1389 754 q 1326 478 1389 540 q 1153 415 1264 415 q 979 478 1040 415 q 918 649 918 540 q 976 822 918 757 q 1153 888 1035 888 m 1038 650 q 1068 538 1038 579 q 1153 497 1099 497 q 1239 539 1208 497 q 1269 649 1269 581 q 1240 766 1269 725 q 1153 807 1211 807 q 1038 650 1038 807 m 106 875 l 328 875 l 574 331 l 657 133 l 661 133 l 657 358 l 657 875 l 803 875 l 803 0 l 581 0 l 344 521 l 251 749 l 247 749 l 251 492 l 251 0 l 106 0 l 106 875 z "},"Ω":{"ha":1042,"x_min":63,"x_max":979,"o":"m 775 113 l 974 113 l 974 0 l 607 0 l 607 89 q 688 153 647 118 q 763 238 729 189 q 817 352 796 286 q 838 506 838 418 q 815 644 838 579 q 752 758 793 710 q 653 835 711 807 q 524 863 596 863 q 394 838 453 863 q 294 765 336 813 q 228 652 251 718 q 206 504 206 586 q 226 355 206 421 q 281 238 247 289 q 355 151 314 188 q 436 89 396 114 l 436 0 l 69 0 l 69 113 l 265 113 l 265 117 q 192 181 228 146 q 126 264 156 217 q 80 373 97 311 q 63 514 63 435 q 100 708 63 622 q 201 853 138 794 q 350 944 265 913 q 528 975 435 975 q 708 941 625 975 q 851 847 790 907 q 945 702 911 786 q 979 518 979 618 q 961 376 979 439 q 914 266 943 314 q 849 181 885 218 q 775 117 813 144 l 775 113 z "},"∆":{"ha":865,"x_min":44,"x_max":819,"o":"m 44 0 l 44 82 l 360 917 l 508 917 l 819 83 l 819 0 l 44 0 m 494 582 q 478 631 486 603 q 460 690 469 660 q 444 750 451 721 q 431 801 436 779 l 426 801 q 415 751 422 779 q 400 694 408 724 q 383 637 392 665 q 367 586 375 608 l 185 114 l 675 114 l 494 582 z "}," ":{"ha":314,"x_min":0,"x_max":0,"o":""},"­":{"ha":389,"x_min":42,"x_max":347,"o":"m 347 465 l 347 346 l 42 346 l 42 465 l 347 465 z "},"ı":{"ha":356,"x_min":106,"x_max":249,"o":"m 106 0 l 106 656 l 249 656 l 249 0 l 106 0 z "},"Ț":{"ha":699,"x_min":14,"x_max":686,"o":"m 686 875 l 686 753 l 422 753 l 422 0 l 274 0 l 274 753 l 14 753 l 14 875 l 686 875 m 328 -260 q 278 -234 303 -256 q 254 -175 254 -212 q 277 -115 254 -140 q 340 -90 300 -90 q 375 -97 357 -90 q 408 -119 393 -104 q 432 -158 422 -135 q 442 -217 442 -182 q 430 -285 442 -251 q 397 -350 418 -319 q 349 -406 376 -381 q 289 -449 321 -432 l 251 -397 q 319 -337 289 -374 q 353 -265 349 -301 l 328 -260 z "},"ț":{"ha":514,"x_min":24,"x_max":486,"o":"m 451 550 l 265 550 l 265 196 q 288 131 265 147 q 350 114 311 114 q 409 120 378 114 q 464 135 440 126 l 486 29 q 415 9 458 18 q 322 0 371 0 q 170 44 217 0 q 124 174 124 88 l 124 550 l 24 550 l 24 656 l 124 656 l 124 863 l 265 863 l 265 656 l 451 656 l 451 550 m 268 -260 q 219 -234 243 -256 q 194 -175 194 -212 q 217 -115 194 -140 q 281 -90 240 -90 q 315 -97 297 -90 q 348 -119 333 -104 q 372 -158 363 -135 q 382 -217 382 -182 q 370 -285 382 -251 q 338 -350 358 -319 q 288 -406 317 -381 q 228 -449 260 -432 l 190 -397 q 259 -337 229 -374 q 293 -265 289 -301 l 268 -260 z "},"ˉ":{"ha":404,"x_min":39,"x_max":365,"o":"m 365 917 l 365 829 l 39 829 l 39 917 l 365 917 z "},"π":{"ha":906,"x_min":21,"x_max":885,"o":"m 599 760 l 290 760 l 290 0 l 150 0 l 150 760 l 21 760 l 21 875 l 869 875 l 869 760 l 740 760 l 740 185 q 758 121 740 140 q 815 101 775 101 q 838 103 824 101 q 868 108 853 104 l 885 0 q 835 -12 854 -10 q 790 -14 815 -14 q 649 33 699 -14 q 599 168 599 81 l 599 760 z "},"℮":{"ha":1135,"x_min":49,"x_max":1086,"o":"m 246 439 q 239 433 239 439 l 239 179 q 251 150 239 164 q 392 49 311 86 q 569 13 474 13 q 755 54 669 13 q 903 167 840 96 l 979 167 q 801 34 908 83 q 568 -15 694 -15 q 367 22 461 -15 q 201 122 272 58 q 90 269 131 185 q 49 451 49 354 q 90 633 49 549 q 201 781 131 718 q 367 881 272 844 q 568 918 461 918 q 769 881 675 918 q 934 781 864 844 q 1045 633 1004 718 q 1086 451 1086 549 l 1086 439 l 246 439 m 897 728 q 883 758 897 744 q 741 856 821 821 q 569 890 661 890 q 394 853 474 890 q 253 754 315 817 q 239 722 239 740 l 239 472 q 246 465 239 465 l 890 465 q 897 472 897 465 l 897 728 z "},"∂":{"ha":750,"x_min":40,"x_max":707,"o":"m 107 954 q 208 995 151 983 q 321 1007 264 1007 q 458 978 389 1007 q 583 890 528 950 q 672 738 638 831 q 707 514 707 644 q 676 277 707 376 q 591 113 644 178 q 469 17 538 49 q 325 -14 400 -14 q 197 11 250 -14 q 108 78 143 36 q 57 173 74 119 q 40 282 40 226 q 64 421 40 358 q 128 527 88 483 q 224 595 168 571 q 343 619 279 619 q 423 610 389 619 q 483 587 457 601 q 528 554 508 572 q 565 517 547 536 q 567 532 567 526 q 567 542 567 538 q 548 694 567 628 q 495 803 529 760 q 415 869 461 847 q 314 892 368 892 q 231 883 269 892 q 161 860 192 875 l 107 954 m 326 100 q 409 123 369 100 q 479 185 449 146 q 529 279 510 225 q 554 394 549 333 q 526 431 543 411 q 487 469 510 451 q 435 497 464 486 q 369 508 406 508 q 298 494 332 508 q 238 451 264 479 q 198 381 213 424 q 183 285 183 339 q 221 149 183 197 q 326 100 258 100 z "},"∏":{"ha":872,"x_min":14,"x_max":858,"o":"m 729 760 l 729 -153 l 593 -153 l 593 760 l 279 760 l 279 -153 l 143 -153 l 143 760 l 14 760 l 14 875 l 858 875 l 858 760 l 729 760 z "},"∑":{"ha":704,"x_min":13,"x_max":718,"o":"m 13 -114 l 13 -26 l 347 399 l 31 821 l 31 917 l 688 917 l 688 801 l 204 801 l 504 401 l 190 1 l 718 1 l 718 -114 l 13 -114 z "},"√":{"ha":790,"x_min":19,"x_max":854,"o":"m 496 -132 l 394 -132 l 149 453 l 49 411 l 19 483 l 214 564 l 404 103 q 424 46 415 79 q 438 -12 432 13 l 440 -12 q 451 43 444 11 q 465 104 457 75 l 756 1149 l 854 1149 l 496 -132 z "},"∞":{"ha":1031,"x_min":51,"x_max":978,"o":"m 763 151 q 690 164 724 151 q 626 198 657 176 q 569 247 596 219 q 515 307 542 275 q 461 247 489 275 q 402 198 433 219 q 335 164 371 176 q 257 151 300 151 q 175 167 213 151 q 110 212 138 183 q 67 280 82 240 q 51 367 51 319 q 67 453 51 414 q 113 520 83 492 q 181 565 142 549 q 268 581 221 581 q 340 568 307 581 q 403 535 374 556 q 460 486 433 514 q 515 428 488 458 q 569 486 542 458 q 627 535 596 514 q 694 568 658 556 q 774 581 731 581 q 856 564 818 581 q 920 519 893 547 q 963 451 947 490 q 978 368 978 413 q 962 287 978 326 q 917 217 946 247 q 849 169 889 188 q 763 151 810 151 m 760 244 q 842 278 808 244 q 876 368 876 313 q 844 457 876 425 q 763 489 811 489 q 661 452 707 489 q 578 368 615 415 q 660 281 618 318 q 760 244 703 244 m 267 244 q 369 281 322 244 q 453 367 417 318 q 413 410 433 389 q 371 449 393 432 q 324 478 349 467 q 271 489 300 489 q 188 456 221 489 q 154 367 154 422 q 185 279 154 314 q 267 244 217 244 z "},"∫":{"ha":475,"x_min":7,"x_max":469,"o":"m 443 999 q 393 1008 421 1008 q 311 965 333 1008 q 292 818 289 921 l 308 90 q 97 -208 315 -208 q 43 -201 69 -208 q 7 -187 17 -194 l 36 -101 q 60 -107 47 -104 q 88 -110 72 -110 q 139 -94 118 -110 q 172 -51 160 -79 q 188 15 183 -24 q 192 99 193 53 l 175 822 q 220 1031 172 957 q 383 1104 268 1104 q 433 1099 410 1104 q 469 1088 457 1093 l 443 999 z "},"≈":{"ha":957,"x_min":50,"x_max":911,"o":"m 50 529 q 158 632 96 599 q 304 665 219 665 q 408 651 360 665 q 499 620 456 638 q 585 589 543 603 q 671 575 626 575 q 761 594 724 575 q 839 654 799 614 l 911 582 q 803 489 860 514 q 679 464 746 464 q 576 478 624 464 q 483 510 528 493 q 394 541 438 526 q 303 556 350 556 q 212 538 253 556 q 125 465 171 519 l 50 529 m 50 222 q 158 325 96 292 q 304 358 219 358 q 408 344 360 358 q 499 313 456 331 q 585 282 543 296 q 671 268 626 268 q 761 288 724 268 q 839 347 799 307 l 911 275 q 803 182 860 207 q 679 157 746 157 q 576 172 624 157 q 483 203 528 186 q 394 234 438 219 q 303 249 350 249 q 212 231 253 249 q 125 158 171 213 l 50 222 z "},"≠":{"ha":685,"x_min":56,"x_max":629,"o":"m 188 0 l 100 0 l 222 274 l 56 274 l 56 368 l 264 368 l 319 494 l 56 494 l 56 589 l 361 589 l 489 875 l 576 875 l 449 589 l 629 589 l 629 494 l 407 494 l 351 368 l 629 368 l 629 274 l 308 274 l 188 0 z "},"◊":{"ha":746,"x_min":42,"x_max":704,"o":"m 426 -71 l 317 -71 l 42 424 l 317 917 l 426 917 l 704 424 l 426 -71 m 386 781 l 371 815 l 354 781 l 160 425 l 358 63 l 374 28 l 389 63 l 585 421 l 386 781 z "},"µ":{"ha":757,"x_min":90,"x_max":668,"o":"m 525 656 l 668 656 l 668 0 l 558 0 l 540 79 l 535 79 q 451 15 501 43 q 325 -14 400 -14 q 221 10 267 -14 l 233 -101 l 233 -224 l 90 -224 l 90 656 l 233 656 l 233 235 q 269 128 233 158 q 354 97 304 97 q 450 120 408 97 q 525 181 492 143 l 525 656 z "},"∕":{"ha":622,"x_min":-22,"x_max":643,"o":"m -22 -14 l 546 889 l 643 889 l 75 -14 l -22 -14 z "},"∙":{"ha":506,"x_min":76,"x_max":431,"o":"m 76 372 q 90 442 76 410 q 128 498 104 474 q 184 536 151 522 q 253 550 217 550 q 322 536 289 550 q 378 498 354 522 q 417 441 403 474 q 431 372 431 408 q 417 303 431 336 q 378 247 403 271 q 322 210 354 224 q 253 196 289 196 q 184 210 217 196 q 128 247 151 224 q 90 303 104 271 q 76 372 76 336 z "},"ँ":{"ha":0,"x_min":-418,"x_max":69,"o":"m -240 1235 q -222 1283 -240 1263 q -174 1304 -204 1304 q -126 1283 -144 1304 q -108 1235 -108 1263 q -126 1185 -108 1206 q -174 1164 -144 1164 q -222 1185 -204 1164 q -240 1235 -240 1206 m 69 1224 q 50 1122 69 1165 q -3 1050 31 1078 q -80 1008 -36 1022 q -171 994 -124 994 q -267 1009 -222 994 q -346 1053 -312 1024 q -399 1124 -379 1082 q -418 1224 -418 1167 l -311 1224 q -270 1122 -304 1153 q -174 1090 -236 1090 q -76 1126 -110 1090 q -39 1224 -43 1163 l 69 1224 z "},"ं":{"ha":0,"x_min":-258,"x_max":-90,"o":"m -258 1079 q -235 1135 -258 1108 q -174 1161 -211 1161 q -112 1135 -135 1161 q -90 1079 -90 1108 q -114 1019 -90 1043 q -174 996 -137 996 q -235 1019 -211 996 q -258 1079 -258 1043 z "},"ः":{"ha":196,"x_min":-14,"x_max":210,"o":"m -14 776 l -14 879 l 210 879 l 210 776 l -14 776 m 0 556 q 22 607 0 583 q 78 631 44 631 q 134 607 114 631 q 154 556 154 583 q 133 501 154 524 q 78 479 113 479 q 22 501 44 479 q 0 556 0 524 m 0 233 q 22 285 0 261 q 78 308 44 308 q 134 285 114 308 q 154 233 154 261 q 133 179 154 201 q 78 157 113 157 q 22 179 44 157 q 0 233 0 201 z "}}}
